<svg width="1600" height="1000" viewBox="0 0 1600 1000" fill="none" xmlns="http://www.w3.org/2000/svg">
  
  <defs>
    <linearGradient id="bg" x1="0" y1="0" x2="1600" y2="1000" gradientUnits="userSpaceOnUse">
      <stop stop-color="#132822"/>
      <stop offset=".58" stop-color="#12231F"/>
      <stop offset="1" stop-color="#132822"/>
    </linearGradient>
    <linearGradient id="paper" x1="0" y1="0" x2="1" y2="1">
      <stop stop-color="#fffaf0"/>
      <stop offset="1" stop-color="#EEF5F2"/>
    </linearGradient>
    <linearGradient id="accent" x1="0" y1="0" x2="1" y2="1">
      <stop stop-color="#5F857D"/>
      <stop offset="1" stop-color="#C7D8CA"/>
    </linearGradient>
    <filter id="shadow" x="-20%" y="-20%" width="140%" height="150%" color-interpolation-filters="sRGB">
      <feDropShadow dx="0" dy="34" stdDeviation="26" flood-color="#000000" flood-opacity=".34"/>
    </filter>
    <filter id="soft" x="-20%" y="-20%" width="140%" height="150%" color-interpolation-filters="sRGB">
      <feDropShadow dx="0" dy="18" stdDeviation="18" flood-color="#000000" flood-opacity=".20"/>
    </filter>
    <filter id="texture" x="0" y="0" width="100%" height="100%">
      <feTurbulence type="fractalNoise" baseFrequency=".8" numOctaves="2" stitchTiles="stitch"/>
      <feColorMatrix type="saturate" values="0"/>
      <feComponentTransfer><feFuncA type="table" tableValues="0 .045"/></feComponentTransfer>
    </filter>
  </defs>
  
  <rect width="1600" height="1000" fill="#132822"/>
  <rect x="70" y="64" width="1460" height="872" rx="42" fill="#EEF5F2"/>
  <rect x="70" y="64" width="1460" height="872" rx="42" fill="#ffffff" filter="url(#texture)" opacity=".44"/>
  <text x="130" y="138" font-family="Inter, Arial, sans-serif" font-size="18" font-weight="950" letter-spacing="6" fill="#5F857D">BRAND KIT DELIVERABLES</text>
  <text x="130" y="212" font-family="Inter, Arial, sans-serif" font-size="58" font-weight="950" fill="#12231F">Breath Pilates</text>
  <text x="130" y="262" font-family="Inter, Arial, sans-serif" font-size="22" font-weight="760" fill="#12231F" opacity=".62">Logo, business card, social profile, application board, and editable source package.</text>
  <g transform="translate(128 340)">
    <rect width="395" height="250" rx="26" fill="#ffffff" filter="url(#soft)"/><text x="34" y="54" font-family="Inter, Arial, sans-serif" font-size="15" font-weight="950" letter-spacing="4" fill="#12231F" opacity=".42">PRIMARY LOGO</text>
    <g transform="translate(34 102) scale(0.62)"><path d="M100 30v140" stroke="#12231F" stroke-width="10" stroke-linecap="round"/><path d="M100 58c-48 4-68 42-36 74 18 18 41 8 36-16" fill="none" stroke="#5F857D" stroke-width="15" stroke-linecap="round"/><path d="M100 58c48 4 68 42 36 74-18 18-41 8-36-16" fill="none" stroke="#C7D8CA" stroke-width="15" stroke-linecap="round"/><circle cx="100" cy="100" r="14" fill="#FFF4E4" stroke="#12231F" stroke-width="6"/></g><text x="176.6" y="166.48000000000002" text-anchor="start" fill="#12231F" font-family="Inter, Montserrat, Arial, sans-serif" font-size="28" font-weight="860" letter-spacing="-1">Breath Pilates</text>
  <text x="176.6" y="179.92000000000002" text-anchor="start" fill="#12231F" opacity=".58" font-family="Inter, Montserrat, Arial, sans-serif" font-size="11" font-weight="820" letter-spacing="4">PILATES STUDIO</text><path d="M34 198h315" stroke="#12231F" stroke-width="2" opacity=".08"/><text x="34" y="226" font-family="Inter, Arial, sans-serif" font-size="16" font-weight="800" fill="#12231F" opacity=".56">Horizontal / symbol / mono versions</text>
  </g>
  <g transform="translate(558 340)">
    <rect width="395" height="250" rx="26" fill="#ffffff" filter="url(#soft)"/><rect x="38" y="58" width="318" height="142" rx="13" fill="url(#paper)" filter="url(#soft)" transform="rotate(-4 197 129)"/>
    <g transform="translate(78 105) rotate(-4)"><g transform="translate(0 0) scale(0.42)"><path d="M100 30v140" stroke="#12231F" stroke-width="10" stroke-linecap="round"/><path d="M100 58c-48 4-68 42-36 74 18 18 41 8 36-16" fill="none" stroke="#5F857D" stroke-width="15" stroke-linecap="round"/><path d="M100 58c48 4 68 42 36 74-18 18-41 8-36-16" fill="none" stroke="#C7D8CA" stroke-width="15" stroke-linecap="round"/><circle cx="100" cy="100" r="14" fill="#FFF4E4" stroke="#12231F" stroke-width="6"/></g><text x="98" y="49" text-anchor="start" fill="#12231F" font-family="Inter, Montserrat, Arial, sans-serif" font-size="23" font-weight="860" letter-spacing="-1">Breath Pilates</text>
  <text x="98" y="60.04" text-anchor="start" fill="#12231F" opacity=".58" font-family="Inter, Montserrat, Arial, sans-serif" font-size="11" font-weight="820" letter-spacing="4">PILATES STUDIO</text></g><text x="38" y="226" font-family="Inter, Arial, sans-serif" font-size="16" font-weight="800" fill="#12231F" opacity=".56">Business card front design</text>
  </g>
  <g transform="translate(988 340)">
    <rect width="395" height="250" rx="26" fill="#ffffff" filter="url(#soft)"/><rect x="38" y="54" width="132" height="132" rx="34" fill="#132822" filter="url(#soft)"/>
    <g transform="translate(54 70) scale(0.5)"><path d="M100 30v140" stroke="#132822" stroke-width="10" stroke-linecap="round"/><path d="M100 58c-48 4-68 42-36 74 18 18 41 8 36-16" fill="none" stroke="#5F857D" stroke-width="15" stroke-linecap="round"/><path d="M100 58c48 4 68 42 36 74-18 18-41 8-36-16" fill="none" stroke="#C7D8CA" stroke-width="15" stroke-linecap="round"/><circle cx="100" cy="100" r="14" fill="#EEF5F2" stroke="#132822" stroke-width="6"/></g><rect x="204" y="58" width="118" height="118" rx="28" fill="#5F857D"/><g transform="translate(213 67) scale(0.5)"><path d="M100 30v140" stroke="#12231F" stroke-width="10" stroke-linecap="round"/><path d="M100 58c-48 4-68 42-36 74 18 18 41 8 36-16" fill="none" stroke="#5F857D" stroke-width="15" stroke-linecap="round"/><path d="M100 58c48 4 68 42 36 74-18 18-41 8-36-16" fill="none" stroke="#C7D8CA" stroke-width="15" stroke-linecap="round"/><circle cx="100" cy="100" r="14" fill="#FFF4E4" stroke="#12231F" stroke-width="6"/></g>
    <text x="38" y="226" font-family="Inter, Arial, sans-serif" font-size="16" font-weight="800" fill="#12231F" opacity=".56">SNS profile icon set</text>
  </g>
  <g transform="translate(128 638)">
    <rect width="395" height="188" rx="26" fill="#132822" filter="url(#soft)"/><g transform="translate(42 48) scale(0.52)"><path d="M100 30v140" stroke="#132822" stroke-width="10" stroke-linecap="round"/><path d="M100 58c-48 4-68 42-36 74 18 18 41 8 36-16" fill="none" stroke="#5F857D" stroke-width="15" stroke-linecap="round"/><path d="M100 58c48 4 68 42 36 74-18 18-41 8-36-16" fill="none" stroke="#C7D8CA" stroke-width="15" stroke-linecap="round"/><circle cx="100" cy="100" r="14" fill="#EEF5F2" stroke="#132822" stroke-width="6"/></g><text x="164" y="94" text-anchor="start" fill="#EEF5F2" font-family="Inter, Montserrat, Arial, sans-serif" font-size="27" font-weight="860" letter-spacing="-1">Breath Pilates</text>
  <text x="164" y="106.96" text-anchor="start" fill="#EEF5F2" opacity=".58" font-family="Inter, Montserrat, Arial, sans-serif" font-size="11" font-weight="820" letter-spacing="4">PILATES STUDIO</text><text x="34" y="154" font-family="Inter, Arial, sans-serif" font-size="15" font-weight="850" letter-spacing="3" fill="#EEF5F2" opacity=".42">SIGN / PACKAGE MOCKUP</text>
  </g>
  <g transform="translate(558 638)">
    <rect width="395" height="188" rx="26" fill="#ffffff" filter="url(#soft)"/><text x="34" y="52" font-family="Inter, Arial, sans-serif" font-size="15" font-weight="950" letter-spacing="4" fill="#12231F" opacity=".42">SOURCE PACKAGE</text>
    <text x="36" y="112" font-family="Inter, Arial, sans-serif" font-size="30" font-weight="950" fill="#12231F">AI</text><text x="112" y="112" font-family="Inter, Arial, sans-serif" font-size="30" font-weight="950" fill="#12231F">SVG</text><text x="218" y="112" font-family="Inter, Arial, sans-serif" font-size="30" font-weight="950" fill="#12231F">PNG</text><text x="320" y="112" font-family="Inter, Arial, sans-serif" font-size="30" font-weight="950" fill="#12231F">PDF</text><path d="M34 136h324" stroke="#12231F" stroke-width="2" opacity=".08"/><text x="34" y="166" font-family="Inter, Arial, sans-serif" font-size="15" font-weight="800" fill="#12231F" opacity=".56">Editable and delivery-ready file set</text>
  </g>
  <g transform="translate(988 638)">
    <rect width="395" height="188" rx="26" fill="#ffffff" filter="url(#soft)"/><text x="34" y="52" font-family="Inter, Arial, sans-serif" font-size="15" font-weight="950" letter-spacing="4" fill="#12231F" opacity=".42">MINI GUIDE</text>
    <rect x="36" y="82" width="64" height="64" rx="16" fill="#5F857D"/><rect x="118" y="82" width="64" height="64" rx="16" fill="#C7D8CA"/><rect x="200" y="82" width="64" height="64" rx="16" fill="#12231F"/><path d="M304 84h50M304 108h34M304 132h62" stroke="#12231F" stroke-width="8" stroke-linecap="round" opacity=".18"/><text x="34" y="166" font-family="Inter, Arial, sans-serif" font-size="15" font-weight="800" fill="#12231F" opacity=".56">Color, spacing, and usage notes</text>
  </g>
</svg>
