<svg width="1600" height="1000" viewBox="0 0 1600 1000" fill="none" xmlns="http://www.w3.org/2000/svg">
  
  <defs>
    <linearGradient id="bg" x1="0" y1="0" x2="1600" y2="1000" gradientUnits="userSpaceOnUse">
      <stop stop-color="#132822"/>
      <stop offset=".58" stop-color="#12231F"/>
      <stop offset="1" stop-color="#132822"/>
    </linearGradient>
    <linearGradient id="paper" x1="0" y1="0" x2="1" y2="1">
      <stop stop-color="#fffaf0"/>
      <stop offset="1" stop-color="#EEF5F2"/>
    </linearGradient>
    <linearGradient id="accent" x1="0" y1="0" x2="1" y2="1">
      <stop stop-color="#5F857D"/>
      <stop offset="1" stop-color="#C7D8CA"/>
    </linearGradient>
    <filter id="shadow" x="-20%" y="-20%" width="140%" height="150%" color-interpolation-filters="sRGB">
      <feDropShadow dx="0" dy="34" stdDeviation="26" flood-color="#000000" flood-opacity=".34"/>
    </filter>
    <filter id="soft" x="-20%" y="-20%" width="140%" height="150%" color-interpolation-filters="sRGB">
      <feDropShadow dx="0" dy="18" stdDeviation="18" flood-color="#000000" flood-opacity=".20"/>
    </filter>
    <filter id="texture" x="0" y="0" width="100%" height="100%">
      <feTurbulence type="fractalNoise" baseFrequency=".8" numOctaves="2" stitchTiles="stitch"/>
      <feColorMatrix type="saturate" values="0"/>
      <feComponentTransfer><feFuncA type="table" tableValues="0 .045"/></feComponentTransfer>
    </filter>
  </defs>
  
  <rect width="1600" height="1000" fill="#EEF5F2"/>
  <rect width="1600" height="1000" fill="#ffffff" filter="url(#texture)" opacity=".42"/>
  <rect x="78" y="72" width="1444" height="856" rx="38" fill="#ffffff" filter="url(#soft)"/>
  <text x="132" y="150" font-family="Inter, Arial, sans-serif" font-size="18" font-weight="950" letter-spacing="6" fill="#5F857D">BRAND GUIDE</text>
  <text x="132" y="220" font-family="Inter, Arial, sans-serif" font-size="50" font-weight="950" fill="#12231F">Breath Pilates</text>
  <text x="132" y="268" font-family="Inter, Arial, sans-serif" font-size="21" font-weight="750" fill="#12231F" opacity=".58">breath curve + body axis / clearspace, scale, and palette rules</text>
  <g transform="translate(180 390) scale(1.8)"><path d="M100 30v140" stroke="#12231F" stroke-width="10" stroke-linecap="round"/><path d="M100 58c-48 4-68 42-36 74 18 18 41 8 36-16" fill="none" stroke="#5F857D" stroke-width="15" stroke-linecap="round"/><path d="M100 58c48 4 68 42 36 74-18 18-41 8-36-16" fill="none" stroke="#C7D8CA" stroke-width="15" stroke-linecap="round"/><circle cx="100" cy="100" r="14" fill="#FFF4E4" stroke="#12231F" stroke-width="6"/></g><path d="M150 360h260v260H150Z" fill="none" stroke="#5F857D" stroke-width="3" stroke-dasharray="10 12" opacity=".45"/><path d="M180 390h200v200H180Z" fill="none" stroke="#12231F" stroke-width="2" opacity=".12"/><text x="150" y="682" font-family="Inter, Arial, sans-serif" font-size="18" font-weight="900" letter-spacing="3" fill="#12231F" opacity=".45">CLEARSPACE</text>
  <g transform="translate(590 392) scale(1.1)"><path d="M100 30v140" stroke="#12231F" stroke-width="10" stroke-linecap="round"/><path d="M100 58c-48 4-68 42-36 74 18 18 41 8 36-16" fill="none" stroke="#5F857D" stroke-width="15" stroke-linecap="round"/><path d="M100 58c48 4 68 42 36 74-18 18-41 8-36-16" fill="none" stroke="#C7D8CA" stroke-width="15" stroke-linecap="round"/><circle cx="100" cy="100" r="14" fill="#FFF4E4" stroke="#12231F" stroke-width="6"/></g><g transform="translate(815 420) scale(0.72)"><path d="M100 30v140" stroke="#12231F" stroke-width="10" stroke-linecap="round"/><path d="M100 58c-48 4-68 42-36 74 18 18 41 8 36-16" fill="none" stroke="#5F857D" stroke-width="15" stroke-linecap="round"/><path d="M100 58c48 4 68 42 36 74-18 18-41 8-36-16" fill="none" stroke="#C7D8CA" stroke-width="15" stroke-linecap="round"/><circle cx="100" cy="100" r="14" fill="#FFF4E4" stroke="#12231F" stroke-width="6"/></g><g transform="translate(985 448) scale(0.45)"><path d="M100 30v140" stroke="#12231F" stroke-width="10" stroke-linecap="round"/><path d="M100 58c-48 4-68 42-36 74 18 18 41 8 36-16" fill="none" stroke="#5F857D" stroke-width="15" stroke-linecap="round"/><path d="M100 58c48 4 68 42 36 74-18 18-41 8-36-16" fill="none" stroke="#C7D8CA" stroke-width="15" stroke-linecap="round"/><circle cx="100" cy="100" r="14" fill="#FFF4E4" stroke="#12231F" stroke-width="6"/></g><path d="M570 620h548" stroke="#12231F" stroke-width="2" opacity=".12"/><text x="570" y="682" font-family="Inter, Arial, sans-serif" font-size="18" font-weight="900" letter-spacing="3" fill="#12231F" opacity=".45">SCALE TEST</text>
  <rect x="1190" y="380" width="120" height="120" rx="26" fill="#5F857D"/><rect x="1340" y="380" width="120" height="120" rx="26" fill="#C7D8CA"/><rect x="1190" y="535" width="120" height="120" rx="26" fill="#12231F"/><rect x="1340" y="535" width="120" height="120" rx="26" fill="#EEF5F2" stroke="#12231F" stroke-width="2" opacity=".9"/><text x="1190" y="710" font-family="Inter, Arial, sans-serif" font-size="18" font-weight="900" letter-spacing="3" fill="#12231F" opacity=".45">PALETTE</text>
</svg>
