<svg width="1600" height="900" viewBox="0 0 1600 900" fill="none" xmlns="http://www.w3.org/2000/svg">
  
  <defs>
    <linearGradient id="bg" x1="0" y1="0" x2="1600" y2="1000" gradientUnits="userSpaceOnUse">
      <stop stop-color="#10132F"/>
      <stop offset=".58" stop-color="#11142A"/>
      <stop offset="1" stop-color="#10132F"/>
    </linearGradient>
    <linearGradient id="paper" x1="0" y1="0" x2="1" y2="1">
      <stop stop-color="#fffaf0"/>
      <stop offset="1" stop-color="#ECECFF"/>
    </linearGradient>
    <linearGradient id="accent" x1="0" y1="0" x2="1" y2="1">
      <stop stop-color="#665CFF"/>
      <stop offset="1" stop-color="#12C8E8"/>
    </linearGradient>
    <filter id="shadow" x="-20%" y="-20%" width="140%" height="150%" color-interpolation-filters="sRGB">
      <feDropShadow dx="0" dy="34" stdDeviation="26" flood-color="#000000" flood-opacity=".34"/>
    </filter>
    <filter id="soft" x="-20%" y="-20%" width="140%" height="150%" color-interpolation-filters="sRGB">
      <feDropShadow dx="0" dy="18" stdDeviation="18" flood-color="#000000" flood-opacity=".20"/>
    </filter>
    <filter id="texture" x="0" y="0" width="100%" height="100%">
      <feTurbulence type="fractalNoise" baseFrequency=".8" numOctaves="2" stitchTiles="stitch"/>
      <feColorMatrix type="saturate" values="0"/>
      <feComponentTransfer><feFuncA type="table" tableValues="0 .045"/></feComponentTransfer>
    </filter>
  </defs>
  
  <rect width="1600" height="900" fill="url(#bg)"/>
  <g opacity=".10"><circle cx="1300" cy="120" r="220" stroke="#665CFF"/><circle cx="1380" cy="760" r="360" stroke="#665CFF"/><path d="M70 118h1460M70 770h1460" stroke="#665CFF"/></g>
  <text x="92" y="116" fill="#665CFF" font-family="Inter, Arial, sans-serif" font-size="18" font-weight="900" letter-spacing="6">TECH SAAS</text>
  <text x="92" y="178" fill="#ECECFF" font-family="Inter, Arial, sans-serif" font-size="52" font-weight="860">Connected Data Node</text>
  <text x="92" y="222" fill="#ECECFF" opacity=".58" font-family="Inter, Arial, sans-serif" font-size="21" font-weight="560">node network + nova pulse / logo, business card, brand kit</text>
  <g filter="url(#shadow)"><g transform="translate(154 328) scale(1.55)"><path d="M100 27v146M27 100h146M54 54l92 92M146 54l-92 92" stroke="#12C8E8" stroke-width="10" stroke-linecap="round"/><circle cx="100" cy="100" r="31" fill="#665CFF"/><circle cx="100" cy="27" r="13" fill="#11142A"/><circle cx="173" cy="100" r="13" fill="#11142A"/><circle cx="100" cy="173" r="13" fill="#11142A"/><circle cx="27" cy="100" r="13" fill="#11142A"/><circle cx="100" cy="100" r="9" fill="#FFF4E4"/></g></g>
  <text x="112" y="670" fill="#ECECFF" font-family="Inter, Arial, sans-serif" font-size="76" font-weight="860" letter-spacing="-2">Nova Node</text>
  <text x="116" y="722" fill="#665CFF" font-family="Inter, Arial, sans-serif" font-size="20" font-weight="820" letter-spacing="7">DATA INTELLIGENCE</text>
  <g transform="translate(885 212)" filter="url(#shadow)">
    <rect x="0" y="45" width="520" height="292" rx="18" fill="url(#paper)" transform="rotate(-6 0 45)"/>
    <rect x="54" y="276" width="520" height="292" rx="18" fill="#10132F" transform="rotate(8 54 276)"/>
    <g transform="translate(130 120) rotate(-6)"><g transform="translate(0 0) scale(0.52)"><path d="M100 27v146M27 100h146M54 54l92 92M146 54l-92 92" stroke="#12C8E8" stroke-width="10" stroke-linecap="round"/><circle cx="100" cy="100" r="31" fill="#665CFF"/><circle cx="100" cy="27" r="13" fill="#11142A"/><circle cx="173" cy="100" r="13" fill="#11142A"/><circle cx="100" cy="173" r="13" fill="#11142A"/><circle cx="27" cy="100" r="13" fill="#11142A"/><circle cx="100" cy="100" r="9" fill="#FFF4E4"/></g><text x="120" y="60" text-anchor="start" fill="#11142A" font-family="Inter, Montserrat, Arial, sans-serif" font-size="30" font-weight="860" letter-spacing="-1">Nova Node</text>
  <text x="120" y="74.4" text-anchor="start" fill="#11142A" opacity=".58" font-family="Inter, Montserrat, Arial, sans-serif" font-size="11" font-weight="820" letter-spacing="4">DATA INTELLIGENCE</text></g>
    <g transform="translate(190 362) rotate(8)"><g transform="translate(0 0) scale(0.5)"><path d="M100 27v146M27 100h146M54 54l92 92M146 54l-92 92" stroke="#12C8E8" stroke-width="10" stroke-linecap="round"/><circle cx="100" cy="100" r="31" fill="#665CFF"/><circle cx="100" cy="27" r="13" fill="#10132F"/><circle cx="173" cy="100" r="13" fill="#10132F"/><circle cx="100" cy="173" r="13" fill="#10132F"/><circle cx="27" cy="100" r="13" fill="#10132F"/><circle cx="100" cy="100" r="9" fill="#ECECFF"/></g><text x="116" y="58" text-anchor="start" fill="#ECECFF" font-family="Inter, Montserrat, Arial, sans-serif" font-size="29" font-weight="860" letter-spacing="-1">Nova Node</text>
  <text x="116" y="71.92" text-anchor="start" fill="#ECECFF" opacity=".58" font-family="Inter, Montserrat, Arial, sans-serif" font-size="11" font-weight="820" letter-spacing="4">DATA INTELLIGENCE</text></g>
  </g>
  <g transform="translate(92 760)">
    <rect x="0" y="0" width="70" height="34" rx="17" fill="#665CFF"/><rect x="86" y="0" width="70" height="34" rx="17" fill="#12C8E8"/><rect x="172" y="0" width="70" height="34" rx="17" fill="#ECECFF"/>
    <text x="286" y="24" fill="#ECECFF" opacity=".56" font-family="Inter, Arial, sans-serif" font-size="14" font-weight="800" letter-spacing="4">PRIMARY / ACCENT / PAPER</text>
  </g>
</svg>
