<svg width="1600" height="1000" viewBox="0 0 1600 1000" fill="none" xmlns="http://www.w3.org/2000/svg">
  
  <defs>
    <linearGradient id="bg" x1="0" y1="0" x2="1600" y2="1000" gradientUnits="userSpaceOnUse">
      <stop stop-color="#10132F"/>
      <stop offset=".58" stop-color="#11142A"/>
      <stop offset="1" stop-color="#10132F"/>
    </linearGradient>
    <linearGradient id="paper" x1="0" y1="0" x2="1" y2="1">
      <stop stop-color="#fffaf0"/>
      <stop offset="1" stop-color="#ECECFF"/>
    </linearGradient>
    <linearGradient id="accent" x1="0" y1="0" x2="1" y2="1">
      <stop stop-color="#665CFF"/>
      <stop offset="1" stop-color="#12C8E8"/>
    </linearGradient>
    <filter id="shadow" x="-20%" y="-20%" width="140%" height="150%" color-interpolation-filters="sRGB">
      <feDropShadow dx="0" dy="34" stdDeviation="26" flood-color="#000000" flood-opacity=".34"/>
    </filter>
    <filter id="soft" x="-20%" y="-20%" width="140%" height="150%" color-interpolation-filters="sRGB">
      <feDropShadow dx="0" dy="18" stdDeviation="18" flood-color="#000000" flood-opacity=".20"/>
    </filter>
    <filter id="texture" x="0" y="0" width="100%" height="100%">
      <feTurbulence type="fractalNoise" baseFrequency=".8" numOctaves="2" stitchTiles="stitch"/>
      <feColorMatrix type="saturate" values="0"/>
      <feComponentTransfer><feFuncA type="table" tableValues="0 .045"/></feComponentTransfer>
    </filter>
  </defs>
  
  <rect width="1600" height="1000" fill="#ECECFF"/>
  <rect width="1600" height="1000" fill="#ffffff" filter="url(#texture)" opacity=".42"/>
  <rect x="78" y="72" width="1444" height="856" rx="38" fill="#ffffff" filter="url(#soft)"/>
  <text x="132" y="150" font-family="Inter, Arial, sans-serif" font-size="18" font-weight="950" letter-spacing="6" fill="#665CFF">BRAND GUIDE</text>
  <text x="132" y="220" font-family="Inter, Arial, sans-serif" font-size="50" font-weight="950" fill="#11142A">Nova Node</text>
  <text x="132" y="268" font-family="Inter, Arial, sans-serif" font-size="21" font-weight="750" fill="#11142A" opacity=".58">node network + nova pulse / clearspace, scale, and palette rules</text>
  <g transform="translate(180 390) scale(1.8)"><path d="M100 27v146M27 100h146M54 54l92 92M146 54l-92 92" stroke="#12C8E8" stroke-width="10" stroke-linecap="round"/><circle cx="100" cy="100" r="31" fill="#665CFF"/><circle cx="100" cy="27" r="13" fill="#11142A"/><circle cx="173" cy="100" r="13" fill="#11142A"/><circle cx="100" cy="173" r="13" fill="#11142A"/><circle cx="27" cy="100" r="13" fill="#11142A"/><circle cx="100" cy="100" r="9" fill="#FFF4E4"/></g><path d="M150 360h260v260H150Z" fill="none" stroke="#665CFF" stroke-width="3" stroke-dasharray="10 12" opacity=".45"/><path d="M180 390h200v200H180Z" fill="none" stroke="#11142A" stroke-width="2" opacity=".12"/><text x="150" y="682" font-family="Inter, Arial, sans-serif" font-size="18" font-weight="900" letter-spacing="3" fill="#11142A" opacity=".45">CLEARSPACE</text>
  <g transform="translate(590 392) scale(1.1)"><path d="M100 27v146M27 100h146M54 54l92 92M146 54l-92 92" stroke="#12C8E8" stroke-width="10" stroke-linecap="round"/><circle cx="100" cy="100" r="31" fill="#665CFF"/><circle cx="100" cy="27" r="13" fill="#11142A"/><circle cx="173" cy="100" r="13" fill="#11142A"/><circle cx="100" cy="173" r="13" fill="#11142A"/><circle cx="27" cy="100" r="13" fill="#11142A"/><circle cx="100" cy="100" r="9" fill="#FFF4E4"/></g><g transform="translate(815 420) scale(0.72)"><path d="M100 27v146M27 100h146M54 54l92 92M146 54l-92 92" stroke="#12C8E8" stroke-width="10" stroke-linecap="round"/><circle cx="100" cy="100" r="31" fill="#665CFF"/><circle cx="100" cy="27" r="13" fill="#11142A"/><circle cx="173" cy="100" r="13" fill="#11142A"/><circle cx="100" cy="173" r="13" fill="#11142A"/><circle cx="27" cy="100" r="13" fill="#11142A"/><circle cx="100" cy="100" r="9" fill="#FFF4E4"/></g><g transform="translate(985 448) scale(0.45)"><path d="M100 27v146M27 100h146M54 54l92 92M146 54l-92 92" stroke="#12C8E8" stroke-width="10" stroke-linecap="round"/><circle cx="100" cy="100" r="31" fill="#665CFF"/><circle cx="100" cy="27" r="13" fill="#11142A"/><circle cx="173" cy="100" r="13" fill="#11142A"/><circle cx="100" cy="173" r="13" fill="#11142A"/><circle cx="27" cy="100" r="13" fill="#11142A"/><circle cx="100" cy="100" r="9" fill="#FFF4E4"/></g><path d="M570 620h548" stroke="#11142A" stroke-width="2" opacity=".12"/><text x="570" y="682" font-family="Inter, Arial, sans-serif" font-size="18" font-weight="900" letter-spacing="3" fill="#11142A" opacity=".45">SCALE TEST</text>
  <rect x="1190" y="380" width="120" height="120" rx="26" fill="#665CFF"/><rect x="1340" y="380" width="120" height="120" rx="26" fill="#12C8E8"/><rect x="1190" y="535" width="120" height="120" rx="26" fill="#11142A"/><rect x="1340" y="535" width="120" height="120" rx="26" fill="#ECECFF" stroke="#11142A" stroke-width="2" opacity=".9"/><text x="1190" y="710" font-family="Inter, Arial, sans-serif" font-size="18" font-weight="900" letter-spacing="3" fill="#11142A" opacity=".45">PALETTE</text>
</svg>
