<svg xmlns="http://www.w3.org/2000/svg" width="1800" height="1200" viewBox="0 0 1800 1200" role="img">
  
  <defs>
    <filter id="shadowLg" x="-30%" y="-30%" width="160%" height="170%">
      <feDropShadow dx="0" dy="32" stdDeviation="30" flood-color="#160a06" flood-opacity=".18"/>
    </filter>
    <filter id="shadowMd" x="-25%" y="-25%" width="150%" height="155%">
      <feDropShadow dx="0" dy="16" stdDeviation="14" flood-color="#160a06" flood-opacity=".18"/>
    </filter>
    <filter id="paperGrain" x="0" y="0" width="100%" height="100%">
      <feTurbulence type="fractalNoise" baseFrequency=".8" numOctaves="2" stitchTiles="stitch"/>
      <feColorMatrix type="saturate" values="0"/>
      <feComponentTransfer>
        <feFuncA type="table" tableValues="0 .032"/>
      </feComponentTransfer>
    </filter>
    <linearGradient id="paperWarm" x1="0" y1="0" x2="1" y2="1">
      <stop offset="0" stop-color="#fffaf2"/>
      <stop offset=".64" stop-color="#f7efe3"/>
      <stop offset="1" stop-color="#ead3b7"/>
    </linearGradient>
    <linearGradient id="roastDark" x1="0" y1="0" x2="1" y2="1">
      <stop offset="0" stop-color="#24140e"/>
      <stop offset=".62" stop-color="#4d2d21"/>
      <stop offset="1" stop-color="#9b6644"/>
    </linearGradient>
    <linearGradient id="cardLight" x1="0" y1="0" x2="1" y2="1">
      <stop offset="0" stop-color="#ffffff"/>
      <stop offset=".58" stop-color="#fffaf2"/>
      <stop offset="1" stop-color="#f7efe3"/>
    </linearGradient>
  </defs>
  
  
  <rect width="1800" height="1200" fill="#fffaf2"/>
  <rect x="54" y="54" width="1692" height="1092" rx="44" fill="#ffffff"/>
  <rect x="54" y="54" width="1692" height="1092" rx="44" fill="#ffffff" filter="url(#paperGrain)" opacity=".44"/>
  
  <text x="112" y="122" font-family="Inter, Arial, sans-serif" font-size="18" font-weight="950" letter-spacing="7" fill="#9b6644">01  LOGO EXPLORATION</text>
  <text x="112" y="206" font-family="Inter, Arial, sans-serif" font-size="70" font-weight="950" letter-spacing="-1" fill="#17110d">Three Directions</text>
  <text x="114" y="258" font-family="Inter, Arial, sans-serif" font-size="24" font-weight="720" fill="#7c7066">Different moods before locking one final identity system.</text>
  <g transform="translate(112 354)">
    
    <g transform="translate(0 0)">
      <rect width="492" height="610" rx="34" fill="#24140e" filter="url(#shadowLg)"/>
      <text x="42" y="62" font-family="Inter, Arial, sans-serif" font-size="16" font-weight="950" letter-spacing="6" fill="#c99a67">CONCEPT A</text>
      <g transform="translate(146 128)">
  <g transform="translate(0 0) scale(1.05)">
    <circle cx="100" cy="100" r="88" fill="url(#roastDark)"/>
    <circle cx="100" cy="100" r="70" fill="none" stroke="#c99a67" stroke-width="7"/>
    <path d="M53 122V76c0-23 28-32 42-13l5 7 5-7c14-19 42-10 42 13v46" fill="none" stroke="#fffaf2" stroke-width="16" stroke-linecap="round" stroke-linejoin="round"/>
    <path d="M54 122c28-17 64-17 92 0" fill="none" stroke="#c99a67" stroke-width="10" stroke-linecap="round"/>
    <circle cx="100" cy="91" r="7" fill="#c99a67"/>
  </g></g>
      <text x="42" y="402" font-family="Inter, Arial, sans-serif" font-size="34" font-weight="950" fill="#fffaf2">Quiet Roastery Seal</text>
      <text x="42" y="448" font-family="Inter, Arial, sans-serif" font-size="20" font-weight="720" fill="#d9c8b7">Warm, stampable, premium</text>
      <path d="M42 500h408" stroke="#fffaf2" stroke-width="2" opacity=".12"/>
      <text x="42" y="552" font-family="Inter, Arial, sans-serif" font-size="18" font-weight="850" letter-spacing="4" fill="#fffaf2" opacity=".42">SELECTED DIRECTION</text>
    </g>
    <g transform="translate(550 0)">
      <rect width="492" height="610" rx="34" fill="#ffffff" filter="url(#shadowLg)"/>
      <text x="42" y="62" font-family="Inter, Arial, sans-serif" font-size="16" font-weight="950" letter-spacing="6" fill="#9b6644">CONCEPT B</text>
      <g transform="translate(146 128)">
  <g transform="translate(0 0) scale(1.05)">
    <path d="M100 18c48 32 72 70 72 114 0 29-22 50-52 50-22 0-38-11-48-30-11 19-27 30-49 30-30 0-52-21-52-50 0-44 29-82 79-114Z" fill="#24140e"/>
    <path d="M68 134c21-38 45-64 75-82" fill="none" stroke="#c99a67" stroke-width="12" stroke-linecap="round"/>
    <path d="M48 120h104" stroke="#fffaf2" stroke-width="10" stroke-linecap="round" opacity=".92"/>
  </g></g>
      <text x="42" y="402" font-family="Inter, Arial, sans-serif" font-size="34" font-weight="950" fill="#17110d">Bean Route Symbol</text>
      <text x="42" y="448" font-family="Inter, Arial, sans-serif" font-size="20" font-weight="720" fill="#7c7066">Organic, crafted, memorable</text>
      <path d="M42 500h408" stroke="#17110d" stroke-width="2" opacity=".12"/>
      <text x="42" y="552" font-family="Inter, Arial, sans-serif" font-size="18" font-weight="850" letter-spacing="4" fill="#17110d" opacity=".42">ALTERNATIVE</text>
    </g>
    <g transform="translate(1100 0)">
      <rect width="492" height="610" rx="34" fill="#ffffff" filter="url(#shadowLg)"/>
      <text x="42" y="62" font-family="Inter, Arial, sans-serif" font-size="16" font-weight="950" letter-spacing="6" fill="#9b6644">CONCEPT C</text>
      <g transform="translate(146 128)">
  <g transform="translate(0 0) scale(1.05)">
    <rect x="18" y="18" width="164" height="164" rx="40" fill="#24140e"/>
    <path d="M52 128V70l48 46 48-46v58" fill="none" stroke="#fffaf2" stroke-width="16" stroke-linecap="round" stroke-linejoin="round"/>
    <path d="M58 142h84" stroke="#c99a67" stroke-width="10" stroke-linecap="round"/>
    <path d="M58 54h84" stroke="#c99a67" stroke-width="7" stroke-linecap="round" opacity=".85"/>
  </g></g>
      <text x="42" y="402" font-family="Inter, Arial, sans-serif" font-size="34" font-weight="950" fill="#17110d">Modular M Stamp</text>
      <text x="42" y="448" font-family="Inter, Arial, sans-serif" font-size="20" font-weight="720" fill="#7c7066">Modern, compact, digital-ready</text>
      <path d="M42 500h408" stroke="#17110d" stroke-width="2" opacity=".12"/>
      <text x="42" y="552" font-family="Inter, Arial, sans-serif" font-size="18" font-weight="850" letter-spacing="4" fill="#17110d" opacity=".42">ALTERNATIVE</text>
    </g>
  </g>
</svg>