<svg xmlns="http://www.w3.org/2000/svg" width="1600" height="1000" viewBox="0 0 1600 1000" role="img">
  
  <defs>
    <filter id="softShadow" x="-20%" y="-20%" width="140%" height="150%">
      <feDropShadow dx="0" dy="24" stdDeviation="26" flood-color="#3A2621" flood-opacity=".18"/>
    </filter>
    <filter id="tightShadow" x="-20%" y="-20%" width="140%" height="150%">
      <feDropShadow dx="0" dy="12" stdDeviation="12" flood-color="#3A2621" flood-opacity=".18"/>
    </filter>
    <linearGradient id="paperGrad" x1="0" y1="0" x2="1" y2="1">
      <stop offset="0" stop-color="#F8EEEA"/>
      <stop offset=".62" stop-color="#ffffff"/>
      <stop offset="1" stop-color="#F8EEEA"/>
    </linearGradient>
    <linearGradient id="accentGrad" x1="0" y1="0" x2="1" y2="1">
      <stop offset="0" stop-color="#9A6759"/>
      <stop offset="1" stop-color="#E7C5B8"/>
    </linearGradient>
  </defs>
  
  <rect width="1600" height="1000" fill="#3A2621"/>
  <rect x="70" y="74" width="1460" height="852" rx="44" fill="url(#paperGrad)"/>
  <text x="126" y="154" font-family="Inter, Arial, sans-serif" font-size="19" font-weight="900" letter-spacing="6" fill="#201714" opacity=".5">APPLICATION SYSTEM</text>
  <g transform="translate(130 250) scale(1.45)"><g>
      <circle cx="50" cy="50" r="37" fill="none" stroke="#9A6759" stroke-width="11"/>
      <path d="M17 52c11-18 24-21 39-3 11 13 21 12 32-3" fill="none" stroke="#201714" stroke-width="7" stroke-linecap="round"/>
      <path d="M27 68c13 10 31 10 45 0" fill="none" stroke="#E7C5B8" stroke-width="7" stroke-linecap="round"/>
      <path d="M32 34c10-8 25-9 36-1" fill="none" stroke="#E7C5B8" stroke-width="5" stroke-linecap="round" opacity=".8"/></g></g>
  
  <text x="300" y="328" text-anchor="start" font-family="Inter, Arial, sans-serif" font-size="52" font-weight="950" letter-spacing="-.6" fill="#201714">Onda Hair</text>
  <text x="300" y="355.04" text-anchor="start" font-family="Inter, Arial, sans-serif" font-size="12" font-weight="800" letter-spacing="5" fill="#201714" opacity=".52">FLUID SALON IDENTITY</text>
  <text x="130" y="472" font-family="Inter, Arial, sans-serif" font-size="24" font-weight="700" fill="#201714" opacity=".58">Hair Salon brand touchpoints</text>
  <rect x="130" y="548" width="390" height="170" rx="26" fill="#ffffff" filter="url(#tightShadow)"/>
  <g transform="translate(168 592) scale(.68)"><g>
      <circle cx="50" cy="50" r="37" fill="none" stroke="#9A6759" stroke-width="11"/>
      <path d="M17 52c11-18 24-21 39-3 11 13 21 12 32-3" fill="none" stroke="#201714" stroke-width="7" stroke-linecap="round"/>
      <path d="M27 68c13 10 31 10 45 0" fill="none" stroke="#E7C5B8" stroke-width="7" stroke-linecap="round"/>
      <path d="M32 34c10-8 25-9 36-1" fill="none" stroke="#E7C5B8" stroke-width="5" stroke-linecap="round" opacity=".8"/></g></g>
  <text x="270" y="638" font-family="Inter, Arial, sans-serif" font-size="24" font-weight="950" fill="#201714">Onda Hair</text>
  <text x="270" y="672" font-family="Inter, Arial, sans-serif" font-size="13" font-weight="800" letter-spacing="3" fill="#201714" opacity=".45">BUSINESS CARD</text>
  
      <rect x="885" y="266" width="480" height="330" rx="28" fill="#3A2621" filter="url(#softShadow)"/>
      <g transform="translate(959 345) scale(1.14)"><g>
      <circle cx="50" cy="50" r="37" fill="none" stroke="#9A6759" stroke-width="11"/>
      <path d="M17 52c11-18 24-21 39-3 11 13 21 12 32-3" fill="none" stroke="#ffffff" stroke-width="7" stroke-linecap="round"/>
      <path d="M27 68c13 10 31 10 45 0" fill="none" stroke="#E7C5B8" stroke-width="7" stroke-linecap="round"/>
      <path d="M32 34c10-8 25-9 36-1" fill="none" stroke="#E7C5B8" stroke-width="5" stroke-linecap="round" opacity=".8"/></g></g>
      
  <text x="1100" y="404" text-anchor="start" font-family="Inter, Arial, sans-serif" font-size="40" font-weight="950" letter-spacing="-.6" fill="#ffffff">Onda Hair</text>
  <text x="1100" y="424.8" text-anchor="start" font-family="Inter, Arial, sans-serif" font-size="12" font-weight="800" letter-spacing="5" fill="#ffffff" opacity=".52">FLUID SALON IDENTITY</text>
      <rect x="955" y="670" width="350" height="76" rx="38" fill="#ffffff" filter="url(#tightShadow)"/>
      <path d="M1000 710c55-40 105 40 160-2" fill="none" stroke="#9A6759" stroke-width="8" stroke-linecap="round"/>
</svg>
