<svg width="1600" height="1000" viewBox="0 0 1600 1000" fill="none" xmlns="http://www.w3.org/2000/svg">
  
  <defs>
    <linearGradient id="bg" x1="0" y1="0" x2="1600" y2="1000" gradientUnits="userSpaceOnUse">
      <stop stop-color="#2B210B"/>
      <stop offset=".58" stop-color="#20190D"/>
      <stop offset="1" stop-color="#2B210B"/>
    </linearGradient>
    <linearGradient id="paper" x1="0" y1="0" x2="1" y2="1">
      <stop stop-color="#fffaf0"/>
      <stop offset="1" stop-color="#FFF3CE"/>
    </linearGradient>
    <linearGradient id="accent" x1="0" y1="0" x2="1" y2="1">
      <stop stop-color="#F2A900"/>
      <stop offset="1" stop-color="#20A887"/>
    </linearGradient>
    <filter id="shadow" x="-20%" y="-20%" width="140%" height="150%" color-interpolation-filters="sRGB">
      <feDropShadow dx="0" dy="34" stdDeviation="26" flood-color="#000000" flood-opacity=".34"/>
    </filter>
    <filter id="soft" x="-20%" y="-20%" width="140%" height="150%" color-interpolation-filters="sRGB">
      <feDropShadow dx="0" dy="18" stdDeviation="18" flood-color="#000000" flood-opacity=".20"/>
    </filter>
    <filter id="texture" x="0" y="0" width="100%" height="100%">
      <feTurbulence type="fractalNoise" baseFrequency=".8" numOctaves="2" stitchTiles="stitch"/>
      <feColorMatrix type="saturate" values="0"/>
      <feComponentTransfer><feFuncA type="table" tableValues="0 .045"/></feComponentTransfer>
    </filter>
  </defs>
  
  <rect width="1600" height="1000" fill="#2B210B"/>
  <rect x="70" y="64" width="1460" height="872" rx="42" fill="#FFF3CE"/>
  <rect x="70" y="64" width="1460" height="872" rx="42" fill="#ffffff" filter="url(#texture)" opacity=".44"/>
  <text x="130" y="138" font-family="Inter, Arial, sans-serif" font-size="18" font-weight="950" letter-spacing="6" fill="#F2A900">BRAND KIT DELIVERABLES</text>
  <text x="130" y="212" font-family="Inter, Arial, sans-serif" font-size="58" font-weight="950" fill="#20190D">Salty Yuzu</text>
  <text x="130" y="262" font-family="Inter, Arial, sans-serif" font-size="22" font-weight="760" fill="#20190D" opacity=".62">Logo, business card, social profile, application board, and editable source package.</text>
  <g transform="translate(128 340)">
    <rect width="395" height="250" rx="26" fill="#ffffff" filter="url(#soft)"/><text x="34" y="54" font-family="Inter, Arial, sans-serif" font-size="15" font-weight="950" letter-spacing="4" fill="#20190D" opacity=".42">PRIMARY LOGO</text>
    <g transform="translate(34 102) scale(0.62)"><circle cx="93" cy="104" r="62" fill="#F2A900"/><circle cx="93" cy="104" r="45" fill="none" stroke="#20190D" stroke-width="7"/><path d="M93 58v92M47 104h92M61 72l65 65M126 72l-65 65" stroke="#20190D" stroke-width="5" stroke-linecap="round"/><circle cx="93" cy="104" r="13" fill="#FFF4E4"/><path d="M148 35l9 22 24 4-18 16 4 24-21-12-21 12 4-24-18-16 24-4Z" fill="#20A887" stroke="#20190D" stroke-width="5" stroke-linejoin="round"/></g><text x="176.6" y="166.48000000000002" text-anchor="start" fill="#20190D" font-family="Inter, Montserrat, Arial, sans-serif" font-size="28" font-weight="860" letter-spacing="-1">Salty Yuzu</text>
  <text x="176.6" y="179.92000000000002" text-anchor="start" fill="#20190D" opacity=".58" font-family="Inter, Montserrat, Arial, sans-serif" font-size="11" font-weight="820" letter-spacing="4">YUZU SALT DESSERT</text><path d="M34 198h315" stroke="#20190D" stroke-width="2" opacity=".08"/><text x="34" y="226" font-family="Inter, Arial, sans-serif" font-size="16" font-weight="800" fill="#20190D" opacity=".56">Horizontal / symbol / mono versions</text>
  </g>
  <g transform="translate(558 340)">
    <rect width="395" height="250" rx="26" fill="#ffffff" filter="url(#soft)"/><rect x="38" y="58" width="318" height="142" rx="13" fill="url(#paper)" filter="url(#soft)" transform="rotate(-4 197 129)"/>
    <g transform="translate(78 105) rotate(-4)"><g transform="translate(0 0) scale(0.42)"><circle cx="93" cy="104" r="62" fill="#F2A900"/><circle cx="93" cy="104" r="45" fill="none" stroke="#20190D" stroke-width="7"/><path d="M93 58v92M47 104h92M61 72l65 65M126 72l-65 65" stroke="#20190D" stroke-width="5" stroke-linecap="round"/><circle cx="93" cy="104" r="13" fill="#FFF4E4"/><path d="M148 35l9 22 24 4-18 16 4 24-21-12-21 12 4-24-18-16 24-4Z" fill="#20A887" stroke="#20190D" stroke-width="5" stroke-linejoin="round"/></g><text x="98" y="49" text-anchor="start" fill="#20190D" font-family="Inter, Montserrat, Arial, sans-serif" font-size="23" font-weight="860" letter-spacing="-1">Salty Yuzu</text>
  <text x="98" y="60.04" text-anchor="start" fill="#20190D" opacity=".58" font-family="Inter, Montserrat, Arial, sans-serif" font-size="11" font-weight="820" letter-spacing="4">YUZU SALT DESSERT</text></g><text x="38" y="226" font-family="Inter, Arial, sans-serif" font-size="16" font-weight="800" fill="#20190D" opacity=".56">Business card front design</text>
  </g>
  <g transform="translate(988 340)">
    <rect width="395" height="250" rx="26" fill="#ffffff" filter="url(#soft)"/><rect x="38" y="54" width="132" height="132" rx="34" fill="#2B210B" filter="url(#soft)"/>
    <g transform="translate(54 70) scale(0.5)"><circle cx="93" cy="104" r="62" fill="#F2A900"/><circle cx="93" cy="104" r="45" fill="none" stroke="#2B210B" stroke-width="7"/><path d="M93 58v92M47 104h92M61 72l65 65M126 72l-65 65" stroke="#2B210B" stroke-width="5" stroke-linecap="round"/><circle cx="93" cy="104" r="13" fill="#FFF3CE"/><path d="M148 35l9 22 24 4-18 16 4 24-21-12-21 12 4-24-18-16 24-4Z" fill="#20A887" stroke="#2B210B" stroke-width="5" stroke-linejoin="round"/></g><rect x="204" y="58" width="118" height="118" rx="28" fill="#F2A900"/><g transform="translate(213 67) scale(0.5)"><circle cx="93" cy="104" r="62" fill="#F2A900"/><circle cx="93" cy="104" r="45" fill="none" stroke="#20190D" stroke-width="7"/><path d="M93 58v92M47 104h92M61 72l65 65M126 72l-65 65" stroke="#20190D" stroke-width="5" stroke-linecap="round"/><circle cx="93" cy="104" r="13" fill="#FFF4E4"/><path d="M148 35l9 22 24 4-18 16 4 24-21-12-21 12 4-24-18-16 24-4Z" fill="#20A887" stroke="#20190D" stroke-width="5" stroke-linejoin="round"/></g>
    <text x="38" y="226" font-family="Inter, Arial, sans-serif" font-size="16" font-weight="800" fill="#20190D" opacity=".56">SNS profile icon set</text>
  </g>
  <g transform="translate(128 638)">
    <rect width="395" height="188" rx="26" fill="#2B210B" filter="url(#soft)"/><g transform="translate(42 48) scale(0.52)"><circle cx="93" cy="104" r="62" fill="#F2A900"/><circle cx="93" cy="104" r="45" fill="none" stroke="#2B210B" stroke-width="7"/><path d="M93 58v92M47 104h92M61 72l65 65M126 72l-65 65" stroke="#2B210B" stroke-width="5" stroke-linecap="round"/><circle cx="93" cy="104" r="13" fill="#FFF3CE"/><path d="M148 35l9 22 24 4-18 16 4 24-21-12-21 12 4-24-18-16 24-4Z" fill="#20A887" stroke="#2B210B" stroke-width="5" stroke-linejoin="round"/></g><text x="164" y="94" text-anchor="start" fill="#FFF3CE" font-family="Inter, Montserrat, Arial, sans-serif" font-size="27" font-weight="860" letter-spacing="-1">Salty Yuzu</text>
  <text x="164" y="106.96" text-anchor="start" fill="#FFF3CE" opacity=".58" font-family="Inter, Montserrat, Arial, sans-serif" font-size="11" font-weight="820" letter-spacing="4">YUZU SALT DESSERT</text><text x="34" y="154" font-family="Inter, Arial, sans-serif" font-size="15" font-weight="850" letter-spacing="3" fill="#FFF3CE" opacity=".42">SIGN / PACKAGE MOCKUP</text>
  </g>
  <g transform="translate(558 638)">
    <rect width="395" height="188" rx="26" fill="#ffffff" filter="url(#soft)"/><text x="34" y="52" font-family="Inter, Arial, sans-serif" font-size="15" font-weight="950" letter-spacing="4" fill="#20190D" opacity=".42">SOURCE PACKAGE</text>
    <text x="36" y="112" font-family="Inter, Arial, sans-serif" font-size="30" font-weight="950" fill="#20190D">AI</text><text x="112" y="112" font-family="Inter, Arial, sans-serif" font-size="30" font-weight="950" fill="#20190D">SVG</text><text x="218" y="112" font-family="Inter, Arial, sans-serif" font-size="30" font-weight="950" fill="#20190D">PNG</text><text x="320" y="112" font-family="Inter, Arial, sans-serif" font-size="30" font-weight="950" fill="#20190D">PDF</text><path d="M34 136h324" stroke="#20190D" stroke-width="2" opacity=".08"/><text x="34" y="166" font-family="Inter, Arial, sans-serif" font-size="15" font-weight="800" fill="#20190D" opacity=".56">Editable and delivery-ready file set</text>
  </g>
  <g transform="translate(988 638)">
    <rect width="395" height="188" rx="26" fill="#ffffff" filter="url(#soft)"/><text x="34" y="52" font-family="Inter, Arial, sans-serif" font-size="15" font-weight="950" letter-spacing="4" fill="#20190D" opacity=".42">MINI GUIDE</text>
    <rect x="36" y="82" width="64" height="64" rx="16" fill="#F2A900"/><rect x="118" y="82" width="64" height="64" rx="16" fill="#20A887"/><rect x="200" y="82" width="64" height="64" rx="16" fill="#20190D"/><path d="M304 84h50M304 108h34M304 132h62" stroke="#20190D" stroke-width="8" stroke-linecap="round" opacity=".18"/><text x="34" y="166" font-family="Inter, Arial, sans-serif" font-size="15" font-weight="800" fill="#20190D" opacity=".56">Color, spacing, and usage notes</text>
  </g>
</svg>
