<svg width="1600" height="900" viewBox="0 0 1600 900" fill="none" xmlns="http://www.w3.org/2000/svg">
  
  <defs>
    <linearGradient id="bg" x1="0" y1="0" x2="1600" y2="1000" gradientUnits="userSpaceOnUse">
      <stop stop-color="#2B210B"/>
      <stop offset=".58" stop-color="#20190D"/>
      <stop offset="1" stop-color="#2B210B"/>
    </linearGradient>
    <linearGradient id="paper" x1="0" y1="0" x2="1" y2="1">
      <stop stop-color="#fffaf0"/>
      <stop offset="1" stop-color="#FFF3CE"/>
    </linearGradient>
    <linearGradient id="accent" x1="0" y1="0" x2="1" y2="1">
      <stop stop-color="#F2A900"/>
      <stop offset="1" stop-color="#20A887"/>
    </linearGradient>
    <filter id="shadow" x="-20%" y="-20%" width="140%" height="150%" color-interpolation-filters="sRGB">
      <feDropShadow dx="0" dy="34" stdDeviation="26" flood-color="#000000" flood-opacity=".34"/>
    </filter>
    <filter id="soft" x="-20%" y="-20%" width="140%" height="150%" color-interpolation-filters="sRGB">
      <feDropShadow dx="0" dy="18" stdDeviation="18" flood-color="#000000" flood-opacity=".20"/>
    </filter>
    <filter id="texture" x="0" y="0" width="100%" height="100%">
      <feTurbulence type="fractalNoise" baseFrequency=".8" numOctaves="2" stitchTiles="stitch"/>
      <feColorMatrix type="saturate" values="0"/>
      <feComponentTransfer><feFuncA type="table" tableValues="0 .045"/></feComponentTransfer>
    </filter>
  </defs>
  
  <rect width="1600" height="900" fill="url(#bg)"/>
  <g opacity=".10"><circle cx="1300" cy="120" r="220" stroke="#F2A900"/><circle cx="1380" cy="760" r="360" stroke="#F2A900"/><path d="M70 118h1460M70 770h1460" stroke="#F2A900"/></g>
  <text x="92" y="116" fill="#F2A900" font-family="Inter, Arial, sans-serif" font-size="18" font-weight="900" letter-spacing="6">F&amp;B DESSERT</text>
  <text x="92" y="178" fill="#FFF3CE" font-family="Inter, Arial, sans-serif" font-size="52" font-weight="860">Bright Citrus Dessert Mark</text>
  <text x="92" y="222" fill="#FFF3CE" opacity=".58" font-family="Inter, Arial, sans-serif" font-size="21" font-weight="560">yuzu slice + salt crystal / logo, business card, brand kit</text>
  <g filter="url(#shadow)"><g transform="translate(154 328) scale(1.55)"><circle cx="93" cy="104" r="62" fill="#F2A900"/><circle cx="93" cy="104" r="45" fill="none" stroke="#20190D" stroke-width="7"/><path d="M93 58v92M47 104h92M61 72l65 65M126 72l-65 65" stroke="#20190D" stroke-width="5" stroke-linecap="round"/><circle cx="93" cy="104" r="13" fill="#FFF4E4"/><path d="M148 35l9 22 24 4-18 16 4 24-21-12-21 12 4-24-18-16 24-4Z" fill="#20A887" stroke="#20190D" stroke-width="5" stroke-linejoin="round"/></g></g>
  <text x="112" y="670" fill="#FFF3CE" font-family="Inter, Arial, sans-serif" font-size="76" font-weight="860" letter-spacing="-2">Salty Yuzu</text>
  <text x="116" y="722" fill="#F2A900" font-family="Inter, Arial, sans-serif" font-size="20" font-weight="820" letter-spacing="7">YUZU SALT DESSERT</text>
  <g transform="translate(885 212)" filter="url(#shadow)">
    <rect x="0" y="45" width="520" height="292" rx="18" fill="url(#paper)" transform="rotate(-6 0 45)"/>
    <rect x="54" y="276" width="520" height="292" rx="18" fill="#2B210B" transform="rotate(8 54 276)"/>
    <g transform="translate(130 120) rotate(-6)"><g transform="translate(0 0) scale(0.52)"><circle cx="93" cy="104" r="62" fill="#F2A900"/><circle cx="93" cy="104" r="45" fill="none" stroke="#20190D" stroke-width="7"/><path d="M93 58v92M47 104h92M61 72l65 65M126 72l-65 65" stroke="#20190D" stroke-width="5" stroke-linecap="round"/><circle cx="93" cy="104" r="13" fill="#FFF4E4"/><path d="M148 35l9 22 24 4-18 16 4 24-21-12-21 12 4-24-18-16 24-4Z" fill="#20A887" stroke="#20190D" stroke-width="5" stroke-linejoin="round"/></g><text x="120" y="60" text-anchor="start" fill="#20190D" font-family="Inter, Montserrat, Arial, sans-serif" font-size="30" font-weight="860" letter-spacing="-1">Salty Yuzu</text>
  <text x="120" y="74.4" text-anchor="start" fill="#20190D" opacity=".58" font-family="Inter, Montserrat, Arial, sans-serif" font-size="11" font-weight="820" letter-spacing="4">YUZU SALT DESSERT</text></g>
    <g transform="translate(190 362) rotate(8)"><g transform="translate(0 0) scale(0.5)"><circle cx="93" cy="104" r="62" fill="#F2A900"/><circle cx="93" cy="104" r="45" fill="none" stroke="#2B210B" stroke-width="7"/><path d="M93 58v92M47 104h92M61 72l65 65M126 72l-65 65" stroke="#2B210B" stroke-width="5" stroke-linecap="round"/><circle cx="93" cy="104" r="13" fill="#FFF3CE"/><path d="M148 35l9 22 24 4-18 16 4 24-21-12-21 12 4-24-18-16 24-4Z" fill="#20A887" stroke="#2B210B" stroke-width="5" stroke-linejoin="round"/></g><text x="116" y="58" text-anchor="start" fill="#FFF3CE" font-family="Inter, Montserrat, Arial, sans-serif" font-size="29" font-weight="860" letter-spacing="-1">Salty Yuzu</text>
  <text x="116" y="71.92" text-anchor="start" fill="#FFF3CE" opacity=".58" font-family="Inter, Montserrat, Arial, sans-serif" font-size="11" font-weight="820" letter-spacing="4">YUZU SALT DESSERT</text></g>
  </g>
  <g transform="translate(92 760)">
    <rect x="0" y="0" width="70" height="34" rx="17" fill="#F2A900"/><rect x="86" y="0" width="70" height="34" rx="17" fill="#20A887"/><rect x="172" y="0" width="70" height="34" rx="17" fill="#FFF3CE"/>
    <text x="286" y="24" fill="#FFF3CE" opacity=".56" font-family="Inter, Arial, sans-serif" font-size="14" font-weight="800" letter-spacing="4">PRIMARY / ACCENT / PAPER</text>
  </g>
</svg>
