<svg xmlns="http://www.w3.org/2000/svg" width="1600" height="1000" viewBox="0 0 1600 1000" role="img">
  
  <defs>
    <filter id="softShadow" x="-20%" y="-20%" width="140%" height="150%">
      <feDropShadow dx="0" dy="24" stdDeviation="26" flood-color="#4A3210" flood-opacity=".18"/>
    </filter>
    <filter id="tightShadow" x="-20%" y="-20%" width="140%" height="150%">
      <feDropShadow dx="0" dy="12" stdDeviation="12" flood-color="#4A3210" flood-opacity=".18"/>
    </filter>
    <linearGradient id="paperGrad" x1="0" y1="0" x2="1" y2="1">
      <stop offset="0" stop-color="#FFF4D4"/>
      <stop offset=".62" stop-color="#ffffff"/>
      <stop offset="1" stop-color="#FFF4D4"/>
    </linearGradient>
    <linearGradient id="accentGrad" x1="0" y1="0" x2="1" y2="1">
      <stop offset="0" stop-color="#F2A900"/>
      <stop offset="1" stop-color="#1AAE89"/>
    </linearGradient>
  </defs>
  
  <rect width="1600" height="1000" fill="#4A3210"/>
  <rect x="70" y="74" width="1460" height="852" rx="44" fill="url(#paperGrad)"/>
  <text x="126" y="154" font-family="Inter, Arial, sans-serif" font-size="19" font-weight="900" letter-spacing="6" fill="#1F1A10" opacity=".5">APPLICATION SYSTEM</text>
  <g transform="translate(130 250) scale(1.45)"><g>
      <circle cx="46" cy="51" r="36" fill="#F2A900"/>
      <circle cx="46" cy="51" r="24" fill="none" stroke="#1F1A10" stroke-width="5"/>
      <path d="M46 27v48M22 51h48M29 34l34 34M63 34 29 68" stroke="#1F1A10" stroke-width="4" stroke-linecap="round"/>
      <circle cx="46" cy="51" r="8" fill="#ffffff"/>
      <path d="M76 20l6 12 13 3-10 9 2 14-12-7-12 7 2-14-10-9 13-3Z" fill="#1AAE89" stroke="#1F1A10" stroke-width="3" stroke-linejoin="round"/></g></g>
  
  <text x="300" y="328" text-anchor="start" font-family="Inter, Arial, sans-serif" font-size="52" font-weight="950" letter-spacing="-.6" fill="#1F1A10">Salty Yuzu</text>
  <text x="300" y="355.04" text-anchor="start" font-family="Inter, Arial, sans-serif" font-size="12" font-weight="800" letter-spacing="5" fill="#1F1A10" opacity=".52">CITRUS DESSERT IDENTITY</text>
  <text x="130" y="472" font-family="Inter, Arial, sans-serif" font-size="24" font-weight="700" fill="#1F1A10" opacity=".58">F&amp;B Dessert brand touchpoints</text>
  <rect x="130" y="548" width="390" height="170" rx="26" fill="#ffffff" filter="url(#tightShadow)"/>
  <g transform="translate(168 592) scale(.68)"><g>
      <circle cx="46" cy="51" r="36" fill="#F2A900"/>
      <circle cx="46" cy="51" r="24" fill="none" stroke="#1F1A10" stroke-width="5"/>
      <path d="M46 27v48M22 51h48M29 34l34 34M63 34 29 68" stroke="#1F1A10" stroke-width="4" stroke-linecap="round"/>
      <circle cx="46" cy="51" r="8" fill="#ffffff"/>
      <path d="M76 20l6 12 13 3-10 9 2 14-12-7-12 7 2-14-10-9 13-3Z" fill="#1AAE89" stroke="#1F1A10" stroke-width="3" stroke-linejoin="round"/></g></g>
  <text x="270" y="638" font-family="Inter, Arial, sans-serif" font-size="24" font-weight="950" fill="#1F1A10">Salty Yuzu</text>
  <text x="270" y="672" font-family="Inter, Arial, sans-serif" font-size="13" font-weight="800" letter-spacing="3" fill="#1F1A10" opacity=".45">BUSINESS CARD</text>
  
      <rect x="895" y="265" width="460" height="430" rx="30" fill="#ffffff" filter="url(#softShadow)"/>
      <path d="M957 355h336l-36 270H98Z" fill="#F2A900" opacity=".15"/>
      <path d="M987 375h276l-28 220H120Z" fill="#ffffff"/>
      <g transform="translate(1082 430) scale(1.15)"><g>
      <circle cx="46" cy="51" r="36" fill="#F2A900"/>
      <circle cx="46" cy="51" r="24" fill="none" stroke="#1F1A10" stroke-width="5"/>
      <path d="M46 27v48M22 51h48M29 34l34 34M63 34 29 68" stroke="#1F1A10" stroke-width="4" stroke-linecap="round"/>
      <circle cx="46" cy="51" r="8" fill="#ffffff"/>
      <path d="M76 20l6 12 13 3-10 9 2 14-12-7-12 7 2-14-10-9 13-3Z" fill="#1AAE89" stroke="#1F1A10" stroke-width="3" stroke-linejoin="round"/></g></g>
      <text x="1125" y="600" text-anchor="middle" font-family="Inter, Arial, sans-serif" font-size="26" font-weight="950" fill="#1F1A10">Salty Yuzu</text>
      <circle cx="1305" cy="325" r="42" fill="#1AAE89" opacity=".7"/>
</svg>
