<svg width="1600" height="1000" viewBox="0 0 1600 1000" fill="none" xmlns="http://www.w3.org/2000/svg">
  
  <defs>
    <linearGradient id="bg" x1="0" y1="0" x2="1600" y2="1000" gradientUnits="userSpaceOnUse">
      <stop stop-color="#2B210B"/>
      <stop offset=".58" stop-color="#20190D"/>
      <stop offset="1" stop-color="#2B210B"/>
    </linearGradient>
    <linearGradient id="paper" x1="0" y1="0" x2="1" y2="1">
      <stop stop-color="#fffaf0"/>
      <stop offset="1" stop-color="#FFF3CE"/>
    </linearGradient>
    <linearGradient id="accent" x1="0" y1="0" x2="1" y2="1">
      <stop stop-color="#F2A900"/>
      <stop offset="1" stop-color="#20A887"/>
    </linearGradient>
    <filter id="shadow" x="-20%" y="-20%" width="140%" height="150%" color-interpolation-filters="sRGB">
      <feDropShadow dx="0" dy="34" stdDeviation="26" flood-color="#000000" flood-opacity=".34"/>
    </filter>
    <filter id="soft" x="-20%" y="-20%" width="140%" height="150%" color-interpolation-filters="sRGB">
      <feDropShadow dx="0" dy="18" stdDeviation="18" flood-color="#000000" flood-opacity=".20"/>
    </filter>
    <filter id="texture" x="0" y="0" width="100%" height="100%">
      <feTurbulence type="fractalNoise" baseFrequency=".8" numOctaves="2" stitchTiles="stitch"/>
      <feColorMatrix type="saturate" values="0"/>
      <feComponentTransfer><feFuncA type="table" tableValues="0 .045"/></feComponentTransfer>
    </filter>
  </defs>
  
  <rect width="1600" height="1000" fill="#F4F1EC"/>
  <rect x="82" y="92" width="686" height="816" rx="36" fill="#2B210B" filter="url(#shadow)"/>
  <rect x="832" y="92" width="686" height="816" rx="36" fill="#ffffff" filter="url(#shadow)"/>
  <text x="132" y="166" font-family="Inter, Arial, sans-serif" font-size="18" font-weight="950" letter-spacing="6" fill="#ffffff" opacity=".48">REVERSE</text>
  <g transform="translate(275 245) scale(1.88)"><circle cx="93" cy="104" r="62" fill="#F2A900"/><circle cx="93" cy="104" r="45" fill="none" stroke="#2B210B" stroke-width="7"/><path d="M93 58v92M47 104h92M61 72l65 65M126 72l-65 65" stroke="#2B210B" stroke-width="5" stroke-linecap="round"/><circle cx="93" cy="104" r="13" fill="#FFF3CE"/><path d="M148 35l9 22 24 4-18 16 4 24-21-12-21 12 4-24-18-16 24-4Z" fill="#20A887" stroke="#2B210B" stroke-width="5" stroke-linejoin="round"/></g>
  <text x="425" y="690" text-anchor="middle" fill="#ffffff" font-family="Inter, Montserrat, Arial, sans-serif" font-size="46" font-weight="860" letter-spacing="-1">Salty Yuzu</text>
  <text x="425" y="712.08" text-anchor="middle" fill="#ffffff" opacity=".58" font-family="Inter, Montserrat, Arial, sans-serif" font-size="11" font-weight="820" letter-spacing="4">YUZU SALT DESSERT</text>
  <text x="425" y="815" text-anchor="middle" font-family="Inter, Arial, sans-serif" font-size="18" font-weight="850" letter-spacing="5" fill="#ffffff" opacity=".42">DARK BACKGROUND</text>
  <text x="882" y="166" font-family="Inter, Arial, sans-serif" font-size="18" font-weight="950" letter-spacing="6" fill="#20190D" opacity=".42">MONO</text>
  <g transform="translate(1025 245) scale(1.88)"><circle cx="93" cy="104" r="62" fill="#20190D"/><circle cx="93" cy="104" r="45" fill="none" stroke="#20190D" stroke-width="7"/><path d="M93 58v92M47 104h92M61 72l65 65M126 72l-65 65" stroke="#20190D" stroke-width="5" stroke-linecap="round"/><circle cx="93" cy="104" r="13" fill="#FFF4E4"/><path d="M148 35l9 22 24 4-18 16 4 24-21-12-21 12 4-24-18-16 24-4Z" fill="#20190D" stroke="#20190D" stroke-width="5" stroke-linejoin="round"/></g>
  <text x="1175" y="690" text-anchor="middle" fill="#20190D" font-family="Inter, Montserrat, Arial, sans-serif" font-size="46" font-weight="860" letter-spacing="-1">Salty Yuzu</text>
  <text x="1175" y="712.08" text-anchor="middle" fill="#20190D" opacity=".58" font-family="Inter, Montserrat, Arial, sans-serif" font-size="11" font-weight="820" letter-spacing="4">YUZU SALT DESSERT</text>
  <text x="1175" y="815" text-anchor="middle" font-family="Inter, Arial, sans-serif" font-size="18" font-weight="850" letter-spacing="5" fill="#20190D" opacity=".42">ONE-COLOR VERSION</text>
</svg>
