<svg width="1600" height="900" viewBox="0 0 1600 900" fill="none" xmlns="http://www.w3.org/2000/svg">
  
  <defs>
    <linearGradient id="bg" x1="0" y1="0" x2="1600" y2="1000" gradientUnits="userSpaceOnUse">
      <stop stop-color="#281A16"/>
      <stop offset=".58" stop-color="#211714"/>
      <stop offset="1" stop-color="#281A16"/>
    </linearGradient>
    <linearGradient id="paper" x1="0" y1="0" x2="1" y2="1">
      <stop stop-color="#fffaf0"/>
      <stop offset="1" stop-color="#F8EEE9"/>
    </linearGradient>
    <linearGradient id="accent" x1="0" y1="0" x2="1" y2="1">
      <stop stop-color="#C88973"/>
      <stop offset="1" stop-color="#A8B996"/>
    </linearGradient>
    <filter id="shadow" x="-20%" y="-20%" width="140%" height="150%" color-interpolation-filters="sRGB">
      <feDropShadow dx="0" dy="34" stdDeviation="26" flood-color="#000000" flood-opacity=".34"/>
    </filter>
    <filter id="soft" x="-20%" y="-20%" width="140%" height="150%" color-interpolation-filters="sRGB">
      <feDropShadow dx="0" dy="18" stdDeviation="18" flood-color="#000000" flood-opacity=".20"/>
    </filter>
    <filter id="texture" x="0" y="0" width="100%" height="100%">
      <feTurbulence type="fractalNoise" baseFrequency=".8" numOctaves="2" stitchTiles="stitch"/>
      <feColorMatrix type="saturate" values="0"/>
      <feComponentTransfer><feFuncA type="table" tableValues="0 .045"/></feComponentTransfer>
    </filter>
  </defs>
  
  <rect width="1600" height="900" fill="url(#bg)"/>
  <g opacity=".10"><circle cx="1300" cy="120" r="220" stroke="#C88973"/><circle cx="1380" cy="760" r="360" stroke="#C88973"/><path d="M70 118h1460M70 770h1460" stroke="#C88973"/></g>
  <text x="92" y="116" fill="#C88973" font-family="Inter, Arial, sans-serif" font-size="18" font-weight="900" letter-spacing="6">CLEAN COSMETICS</text>
  <text x="92" y="178" fill="#F8EEE9" font-family="Inter, Arial, sans-serif" font-size="52" font-weight="860">Gentle Barrier Identity</text>
  <text x="92" y="222" fill="#F8EEE9" opacity=".58" font-family="Inter, Arial, sans-serif" font-size="21" font-weight="560">soft n + skin barrier / logo, business card, brand kit</text>
  <g filter="url(#shadow)"><g transform="translate(154 328) scale(1.55)"><rect x="35" y="38" width="130" height="124" rx="62" fill="#A8B996"/><path d="M61 151V75h35c27 0 42 17 42 44v32" fill="none" stroke="#211714" stroke-width="17" stroke-linecap="round" stroke-linejoin="round"/><path d="M61 76c26-26 61-28 90-5" fill="none" stroke="#C88973" stroke-width="13" stroke-linecap="round"/><path d="M141 52c-15-6-35-3-52 12" fill="none" stroke="#FFF4E4" stroke-width="7" stroke-linecap="round" opacity=".82"/></g></g>
  <text x="112" y="670" fill="#F8EEE9" font-family="Inter, Arial, sans-serif" font-size="76" font-weight="860" letter-spacing="-2">Nudekind</text>
  <text x="116" y="722" fill="#C88973" font-family="Inter, Arial, sans-serif" font-size="20" font-weight="820" letter-spacing="7">CLEAN BEAUTY</text>
  <g transform="translate(885 212)" filter="url(#shadow)">
    <rect x="0" y="45" width="520" height="292" rx="18" fill="url(#paper)" transform="rotate(-6 0 45)"/>
    <rect x="54" y="276" width="520" height="292" rx="18" fill="#281A16" transform="rotate(8 54 276)"/>
    <g transform="translate(130 120) rotate(-6)"><g transform="translate(0 0) scale(0.52)"><rect x="35" y="38" width="130" height="124" rx="62" fill="#A8B996"/><path d="M61 151V75h35c27 0 42 17 42 44v32" fill="none" stroke="#211714" stroke-width="17" stroke-linecap="round" stroke-linejoin="round"/><path d="M61 76c26-26 61-28 90-5" fill="none" stroke="#C88973" stroke-width="13" stroke-linecap="round"/><path d="M141 52c-15-6-35-3-52 12" fill="none" stroke="#FFF4E4" stroke-width="7" stroke-linecap="round" opacity=".82"/></g><text x="120" y="60" text-anchor="start" fill="#211714" font-family="Inter, Montserrat, Arial, sans-serif" font-size="30" font-weight="860" letter-spacing="-1">Nudekind</text>
  <text x="120" y="74.4" text-anchor="start" fill="#211714" opacity=".58" font-family="Inter, Montserrat, Arial, sans-serif" font-size="11" font-weight="820" letter-spacing="4">CLEAN BEAUTY</text></g>
    <g transform="translate(190 362) rotate(8)"><g transform="translate(0 0) scale(0.5)"><rect x="35" y="38" width="130" height="124" rx="62" fill="#A8B996"/><path d="M61 151V75h35c27 0 42 17 42 44v32" fill="none" stroke="#281A16" stroke-width="17" stroke-linecap="round" stroke-linejoin="round"/><path d="M61 76c26-26 61-28 90-5" fill="none" stroke="#C88973" stroke-width="13" stroke-linecap="round"/><path d="M141 52c-15-6-35-3-52 12" fill="none" stroke="#F8EEE9" stroke-width="7" stroke-linecap="round" opacity=".82"/></g><text x="116" y="58" text-anchor="start" fill="#F8EEE9" font-family="Inter, Montserrat, Arial, sans-serif" font-size="29" font-weight="860" letter-spacing="-1">Nudekind</text>
  <text x="116" y="71.92" text-anchor="start" fill="#F8EEE9" opacity=".58" font-family="Inter, Montserrat, Arial, sans-serif" font-size="11" font-weight="820" letter-spacing="4">CLEAN BEAUTY</text></g>
  </g>
  <g transform="translate(92 760)">
    <rect x="0" y="0" width="70" height="34" rx="17" fill="#C88973"/><rect x="86" y="0" width="70" height="34" rx="17" fill="#A8B996"/><rect x="172" y="0" width="70" height="34" rx="17" fill="#F8EEE9"/>
    <text x="286" y="24" fill="#F8EEE9" opacity=".56" font-family="Inter, Arial, sans-serif" font-size="14" font-weight="800" letter-spacing="4">PRIMARY / ACCENT / PAPER</text>
  </g>
</svg>
