<svg xmlns="http://www.w3.org/2000/svg" width="1600" height="1000" viewBox="0 0 1600 1000" role="img">
  
  <defs>
    <filter id="softShadow" x="-20%" y="-20%" width="140%" height="150%">
      <feDropShadow dx="0" dy="24" stdDeviation="26" flood-color="#3B2923" flood-opacity=".18"/>
    </filter>
    <filter id="tightShadow" x="-20%" y="-20%" width="140%" height="150%">
      <feDropShadow dx="0" dy="12" stdDeviation="12" flood-color="#3B2923" flood-opacity=".18"/>
    </filter>
    <linearGradient id="paperGrad" x1="0" y1="0" x2="1" y2="1">
      <stop offset="0" stop-color="#F8EFEA"/>
      <stop offset=".62" stop-color="#ffffff"/>
      <stop offset="1" stop-color="#F8EFEA"/>
    </linearGradient>
    <linearGradient id="accentGrad" x1="0" y1="0" x2="1" y2="1">
      <stop offset="0" stop-color="#C88B75"/>
      <stop offset="1" stop-color="#A7B797"/>
    </linearGradient>
  </defs>
  
  <rect width="1600" height="1000" fill="#3B2923"/>
  <rect x="70" y="74" width="1460" height="852" rx="44" fill="url(#paperGrad)"/>
  <text x="126" y="154" font-family="Inter, Arial, sans-serif" font-size="19" font-weight="900" letter-spacing="6" fill="#211916" opacity=".5">APPLICATION SYSTEM</text>
  <g transform="translate(130 250) scale(1.45)"><g>
      <rect x="18" y="20" width="64" height="60" rx="30" fill="#A7B797"/>
      <path d="M31 73V35h17c13 0 21 8 21 22v16" fill="none" stroke="#211916" stroke-width="9" stroke-linecap="round" stroke-linejoin="round"/>
      <path d="M31 36c13-13 30-14 44-2" fill="none" stroke="#C88B75" stroke-width="7" stroke-linecap="round"/>
      <path d="M70 24c-7-3-16-2-24 5" fill="none" stroke="#ffffff" stroke-width="4" stroke-linecap="round" opacity=".9"/></g></g>
  
  <text x="300" y="328" text-anchor="start" font-family="Inter, Arial, sans-serif" font-size="52" font-weight="950" letter-spacing="-.6" fill="#211916">Nudekind</text>
  <text x="300" y="355.04" text-anchor="start" font-family="Inter, Arial, sans-serif" font-size="12" font-weight="800" letter-spacing="5" fill="#211916" opacity=".52">GENTLE BEAUTY IDENTITY</text>
  <text x="130" y="472" font-family="Inter, Arial, sans-serif" font-size="24" font-weight="700" fill="#211916" opacity=".58">Clean Cosmetics brand touchpoints</text>
  <rect x="130" y="548" width="390" height="170" rx="26" fill="#ffffff" filter="url(#tightShadow)"/>
  <g transform="translate(168 592) scale(.68)"><g>
      <rect x="18" y="20" width="64" height="60" rx="30" fill="#A7B797"/>
      <path d="M31 73V35h17c13 0 21 8 21 22v16" fill="none" stroke="#211916" stroke-width="9" stroke-linecap="round" stroke-linejoin="round"/>
      <path d="M31 36c13-13 30-14 44-2" fill="none" stroke="#C88B75" stroke-width="7" stroke-linecap="round"/>
      <path d="M70 24c-7-3-16-2-24 5" fill="none" stroke="#ffffff" stroke-width="4" stroke-linecap="round" opacity=".9"/></g></g>
  <text x="270" y="638" font-family="Inter, Arial, sans-serif" font-size="24" font-weight="950" fill="#211916">Nudekind</text>
  <text x="270" y="672" font-family="Inter, Arial, sans-serif" font-size="13" font-weight="800" letter-spacing="3" fill="#211916" opacity=".45">BUSINESS CARD</text>
  
      <rect x="947" y="390" width="370" height="138" rx="69" fill="#ffffff" filter="url(#softShadow)" transform="rotate(-12 1132 459)"/>
      <rect x="990" y="430" width="260" height="58" rx="29" fill="#F8EFEA" transform="rotate(-12 1120 459)"/>
      <g transform="translate(1073 388) rotate(-12) scale(.72)"><g>
      <rect x="18" y="20" width="64" height="60" rx="30" fill="#A7B797"/>
      <path d="M31 73V35h17c13 0 21 8 21 22v16" fill="none" stroke="#211916" stroke-width="9" stroke-linecap="round" stroke-linejoin="round"/>
      <path d="M31 36c13-13 30-14 44-2" fill="none" stroke="#C88B75" stroke-width="7" stroke-linecap="round"/>
      <path d="M70 24c-7-3-16-2-24 5" fill="none" stroke="#ffffff" stroke-width="4" stroke-linecap="round" opacity=".9"/></g></g>
      <rect x="985" y="615" width="300" height="104" rx="22" fill="#3B2923" filter="url(#softShadow)"/>
      <text x="1135" y="678" text-anchor="middle" font-family="Inter, Arial, sans-serif" font-size="25" font-weight="950" fill="#ffffff">Nudekind</text>
</svg>
