<svg xmlns="http://www.w3.org/2000/svg" width="1600" height="900" viewBox="0 0 1600 900" role="img">
  <rect width="1600" height="900" fill="#eef2ff"/>
  <rect x="86" y="70" width="1428" height="760" rx="34" fill="#ffffff"/>
  <rect x="86" y="70" width="1428" height="78" rx="34" fill="#6366f1"/>
  <rect x="86" y="112" width="1428" height="92" fill="#ffffff"/>
  <text x="132" y="120" font-family="Inter, Arial, sans-serif" font-size="22" font-weight="900" letter-spacing="5" fill="#ffffff">Digital COMMERCE</text>
  <circle cx="1410" cy="110" r="18" fill="#ffffff" opacity=".75"/>
  <circle cx="1460" cy="110" r="18" fill="#22d3ee"/>
  <text x="132" y="177" font-family="Inter, Arial, sans-serif" font-size="26" font-weight="900" fill="#111827">디지털 템플릿몰</text>
  <text x="1015" y="177" font-family="Inter, Arial, sans-serif" font-size="18" font-weight="700" fill="#64748b">LOGIN  CART  MY</text>
  <rect x="128" y="246" width="720" height="360" rx="28" fill="#eef2ff"/>
  <text x="170" y="340" font-family="Inter, Arial, sans-serif" font-size="28" font-weight="800" fill="#6366f1">Digital</text>
  <text x="170" y="430" font-family="Inter, Arial, sans-serif" font-size="72" font-weight="950" fill="#111827">Download-ready</text>
  <rect x="170" y="505" width="210" height="54" rx="27" fill="#6366f1"/>
  <text x="275" y="540" text-anchor="middle" font-family="Inter, Arial, sans-serif" font-size="18" font-weight="900" fill="#ffffff">SHOP NOW</text>
  <circle cx="740" cy="370" r="145" fill="#22d3ee" opacity=".28"/>
  <circle cx="710" cy="430" r="105" fill="#6366f1" opacity=".72"/>
  <rect x="910" y="246" width="250" height="172" rx="24" fill="#f8fafc"/>
  <rect x="1200" y="246" width="250" height="172" rx="24" fill="#f8fafc"/>
  <rect x="910" y="456" width="250" height="150" rx="24" fill="#f8fafc"/>
  <rect x="1200" y="456" width="250" height="150" rx="24" fill="#f8fafc"/>
  <circle cx="930" cy="300" r="22" fill="#6366f1"/><text x="968" y="308" font-family="Inter, Arial, sans-serif" font-size="25" font-weight="900" fill="#111827">미리보기</text>
  <circle cx="1220" cy="300" r="22" fill="#22d3ee"/><text x="1258" y="308" font-family="Inter, Arial, sans-serif" font-size="25" font-weight="900" fill="#111827">사용처 필터</text>
  <circle cx="930" cy="510" r="22" fill="#6366f1"/><text x="968" y="518" font-family="Inter, Arial, sans-serif" font-size="25" font-weight="900" fill="#111827">즉시 다운로드</text>
  <rect x="128" y="670" width="1322" height="84" rx="24" fill="#111827"/>
  <text x="170" y="724" font-family="Inter, Arial, sans-serif" font-size="23" font-weight="800" fill="#ffffff" opacity=".9">Cafe24 Smart Design · Main HTML · Replacement Guide</text>
</svg>
