<svg xmlns="http://www.w3.org/2000/svg" width="1600" height="1000" viewBox="0 0 1600 1000" role="img">
  
  <defs>
    <filter id="ambientShadow" x="-20%" y="-20%" width="140%" height="150%">
      <feDropShadow dx="0" dy="34" stdDeviation="30" flood-color="#1C2A36" flood-opacity=".24"/>
    </filter>
    <filter id="contactShadow" x="-20%" y="-20%" width="140%" height="150%">
      <feDropShadow dx="0" dy="14" stdDeviation="11" flood-color="#000000" flood-opacity=".22"/>
    </filter>
    <filter id="pressedInk" x="-20%" y="-20%" width="140%" height="140%">
      <feDropShadow dx="0" dy="1.4" stdDeviation=".6" flood-color="#ffffff" flood-opacity=".45"/>
      <feDropShadow dx="0" dy="2.2" stdDeviation="1.8" flood-color="#000000" flood-opacity=".16"/>
    </filter>
    <filter id="neonGlow" x="-60%" y="-60%" width="220%" height="220%">
      <feDropShadow dx="0" dy="0" stdDeviation="5" flood-color="#D9C6AD" flood-opacity=".45"/>
      <feDropShadow dx="0" dy="0" stdDeviation="16" flood-color="#71879D" flood-opacity=".28"/>
    </filter>
    <filter id="paperNoise" x="0" y="0" width="100%" height="100%">
      <feTurbulence type="fractalNoise" baseFrequency=".92" numOctaves="2" stitchTiles="stitch"/>
      <feColorMatrix type="saturate" values="0"/>
      <feComponentTransfer>
        <feFuncA type="table" tableValues="0 .045"/>
      </feComponentTransfer>
    </filter>
    <linearGradient id="studioBg" x1="0" y1="0" x2="1" y2="1">
      <stop offset="0" stop-color="#F3F2ED"/>
      <stop offset=".52" stop-color="#ffffff"/>
      <stop offset="1" stop-color="#D9C6AD" stop-opacity=".52"/>
    </linearGradient>
    <linearGradient id="darkPanel" x1="0" y1="0" x2="1" y2="1">
      <stop offset="0" stop-color="#1C2A36"/>
      <stop offset=".65" stop-color="#17212B"/>
      <stop offset="1" stop-color="#71879D"/>
    </linearGradient>
    <linearGradient id="cardSheen" x1="0" y1="0" x2="1" y2="1">
      <stop offset="0" stop-color="#ffffff" stop-opacity=".96"/>
      <stop offset=".48" stop-color="#F3F2ED" stop-opacity=".92"/>
      <stop offset=".51" stop-color="#ffffff" stop-opacity=".45"/>
      <stop offset="1" stop-color="#ffffff" stop-opacity=".86"/>
    </linearGradient>
    <linearGradient id="glass" x1="0" y1="0" x2="1" y2="1">
      <stop offset="0" stop-color="#ffffff" stop-opacity=".78"/>
      <stop offset=".35" stop-color="#F3F2ED" stop-opacity=".22"/>
      <stop offset="1" stop-color="#ffffff" stop-opacity=".06"/>
    </linearGradient>
  </defs>
  
  <rect width="1600" height="1000" fill="url(#studioBg)"/>
  <rect width="1600" height="1000" fill="#ffffff" filter="url(#paperNoise)" opacity=".55"/>
  <ellipse cx="790" cy="860" rx="610" ry="76" fill="#000000" opacity=".11"/>
  <circle cx="1320" cy="174" r="214" fill="#71879D" opacity=".1"/>
  <circle cx="250" cy="816" r="190" fill="#D9C6AD" opacity=".14"/>
  <text x="96" y="110" font-family="Inter, Arial, sans-serif" font-size="18" font-weight="950" letter-spacing="6" fill="#17212B" opacity=".42">BUSINESS CARD MOCKUP</text>
  <text x="96" y="168" font-family="Inter, Arial, sans-serif" font-size="56" font-weight="950" fill="#17212B">Vela Skin</text>
  <text x="98" y="214" font-family="Inter, Arial, sans-serif" font-size="20" font-weight="750" fill="#17212B" opacity=".55">Clean science identity / foil, emboss, print-ready presentation</text>
  
  <g transform="rotate(8 1220 225)">
    <rect x="1030" y="95" width="380" height="250" rx="20" fill="#F3F2ED" filter="url(#contactShadow)"/>
    <rect x="1064" y="129" width="312" height="42" rx="21" fill="#1C2A36"/>
    <g transform="translate(1074 201) scale(.44)"><g><path d="M20 24 50 80 80 24" fill="none" stroke="#71879D" stroke-width="11" stroke-linecap="round" stroke-linejoin="round"/><circle cx="50" cy="37" r="9" fill="#D9C6AD"/><circle cx="50" cy="37" r="3" fill="#ffffff"/><path d="M34 78h32" stroke="#17212B" stroke-width="5" stroke-linecap="round"/><path d="M33 25c11-8 23-8 34 0" fill="none" stroke="#D9C6AD" stroke-width="5" stroke-linecap="round"/></g></g>
    <path d="M1148 223h178M1148 255h130M1148 287h158" stroke="#17212B" stroke-width="8" stroke-linecap="round" opacity=".12"/>
  </g>
  
  <g transform="rotate(-8 655 562.5)">
    <rect x="300" y="360" width="710" height="405" rx="22" fill="url(#cardSheen)" filter="url(#ambientShadow)"/>
    <rect x="300" y="360" width="710" height="405" rx="22" fill="#ffffff" opacity=".22"/>
    <rect x="324" y="384" width="662" height="357" rx="14" fill="none" stroke="#17212B" stroke-width="1.3" opacity=".1"/>
    <g transform="translate(346 418) scale(.62)"><g><path d="M20 24 50 80 80 24" fill="none" stroke="#71879D" stroke-width="11" stroke-linecap="round" stroke-linejoin="round"/><circle cx="50" cy="37" r="9" fill="#D9C6AD"/><circle cx="50" cy="37" r="3" fill="#ffffff"/><path d="M34 78h32" stroke="#17212B" stroke-width="5" stroke-linecap="round"/><path d="M33 25c11-8 23-8 34 0" fill="none" stroke="#D9C6AD" stroke-width="5" stroke-linecap="round"/></g></g>
    
  <text x="440" y="468" text-anchor="start" font-family="Inter, Arial, sans-serif" font-size="31" font-weight="950" fill="#17212B">Vela Skin</text>
  <text x="440" y="482.88" text-anchor="start" font-family="Inter, Arial, sans-serif" font-size="10" font-weight="850" letter-spacing="4" fill="#17212B" opacity=".48">CLEAN SCIENCE IDENTITY</text>
    <text x="346" y="690" font-family="Inter, Arial, sans-serif" font-size="13" font-weight="850" letter-spacing="3" fill="#17212B" opacity=".42">BRAND IDENTITY</text>
    <path d="M346 717h618" stroke="#17212B" stroke-width="1.5" opacity=".12"/>
    <text x="964" y="689" text-anchor="end" font-family="Inter, Arial, sans-serif" font-size="18" font-weight="900" fill="#17212B" opacity=".74">Skincare</text>
    <circle cx="942" cy="424" r="26" fill="#D9C6AD" opacity=".22"/>
  </g>
  
  <g transform="rotate(9 985 400)">
    <rect x="640" y="205" width="690" height="390" rx="22" fill="#1C2A36" filter="url(#ambientShadow)"/>
    <rect x="640" y="205" width="690" height="390" rx="22" fill="#ffffff" opacity=".04"/>
    <rect x="664" y="229" width="642" height="342" rx="14" fill="none" stroke="#ffffff" stroke-width="1.3" opacity=".1"/>
    <g transform="translate(686 263) scale(.62)"><g><path d="M20 24 50 80 80 24" fill="none" stroke="#71879D" stroke-width="11" stroke-linecap="round" stroke-linejoin="round"/><circle cx="50" cy="37" r="9" fill="#D9C6AD"/><circle cx="50" cy="37" r="3" fill="#ffffff"/><path d="M34 78h32" stroke="#ffffff" stroke-width="5" stroke-linecap="round"/><path d="M33 25c11-8 23-8 34 0" fill="none" stroke="#D9C6AD" stroke-width="5" stroke-linecap="round"/></g></g>
    
  <text x="780" y="313" text-anchor="start" font-family="Inter, Arial, sans-serif" font-size="31" font-weight="950" fill="#ffffff">Vela Skin</text>
  <text x="780" y="327.88" text-anchor="start" font-family="Inter, Arial, sans-serif" font-size="10" font-weight="850" letter-spacing="4" fill="#ffffff" opacity=".48">CLEAN SCIENCE IDENTITY</text>
    <text x="686" y="520" font-family="Inter, Arial, sans-serif" font-size="13" font-weight="850" letter-spacing="3" fill="#ffffff" opacity=".42">BRAND IDENTITY</text>
    <path d="M686 547h598" stroke="#ffffff" stroke-width="1.5" opacity=".12"/>
    <text x="1284" y="519" text-anchor="end" font-family="Inter, Arial, sans-serif" font-size="18" font-weight="900" fill="#ffffff" opacity=".74">Skincare</text>
    <circle cx="1262" cy="269" r="26" fill="#D9C6AD" opacity=".38"/>
  </g>
  <g transform="rotate(-8 650 540)">
    <rect x="804" y="602" width="142" height="34" rx="17" fill="#71879D" opacity=".92"/>
    <rect x="960" y="602" width="80" height="34" rx="17" fill="#D9C6AD" opacity=".92"/>
  </g>
  <text x="1140" y="870" font-family="Inter, Arial, sans-serif" font-size="18" font-weight="850" letter-spacing="4" fill="#17212B" opacity=".44">PRINT APPLICATION</text>
</svg>
