<svg xmlns="http://www.w3.org/2000/svg" width="1600" height="1000" viewBox="0 0 1600 1000" role="img">
  
  <defs>
    <filter id="softShadow" x="-20%" y="-20%" width="140%" height="150%">
      <feDropShadow dx="0" dy="24" stdDeviation="26" flood-color="#1C2A36" flood-opacity=".18"/>
    </filter>
    <filter id="tightShadow" x="-20%" y="-20%" width="140%" height="150%">
      <feDropShadow dx="0" dy="12" stdDeviation="12" flood-color="#1C2A36" flood-opacity=".18"/>
    </filter>
    <linearGradient id="paperGrad" x1="0" y1="0" x2="1" y2="1">
      <stop offset="0" stop-color="#F3F2ED"/>
      <stop offset=".62" stop-color="#ffffff"/>
      <stop offset="1" stop-color="#F3F2ED"/>
    </linearGradient>
    <linearGradient id="accentGrad" x1="0" y1="0" x2="1" y2="1">
      <stop offset="0" stop-color="#71879D"/>
      <stop offset="1" stop-color="#D9C6AD"/>
    </linearGradient>
  </defs>
  
  <rect width="1600" height="1000" fill="#1C2A36"/>
  <rect x="70" y="74" width="1460" height="852" rx="44" fill="url(#paperGrad)"/>
  <text x="126" y="154" font-family="Inter, Arial, sans-serif" font-size="19" font-weight="900" letter-spacing="6" fill="#17212B" opacity=".5">APPLICATION SYSTEM</text>
  <g transform="translate(130 250) scale(1.45)"><g>
      <path d="M20 24 50 80 80 24" fill="none" stroke="#71879D" stroke-width="11" stroke-linecap="round" stroke-linejoin="round"/>
      <circle cx="50" cy="37" r="9" fill="#D9C6AD"/>
      <circle cx="50" cy="37" r="3" fill="#ffffff"/>
      <path d="M34 78h32" stroke="#17212B" stroke-width="5" stroke-linecap="round"/>
      <path d="M33 25c11-8 23-8 34 0" fill="none" stroke="#D9C6AD" stroke-width="5" stroke-linecap="round"/></g></g>
  
  <text x="300" y="328" text-anchor="start" font-family="Inter, Arial, sans-serif" font-size="52" font-weight="950" letter-spacing="-.6" fill="#17212B">Vela Skin</text>
  <text x="300" y="355.04" text-anchor="start" font-family="Inter, Arial, sans-serif" font-size="12" font-weight="800" letter-spacing="5" fill="#17212B" opacity=".52">CLEAN SCIENCE IDENTITY</text>
  <text x="130" y="472" font-family="Inter, Arial, sans-serif" font-size="24" font-weight="700" fill="#17212B" opacity=".58">Skincare brand touchpoints</text>
  <rect x="130" y="548" width="390" height="170" rx="26" fill="#ffffff" filter="url(#tightShadow)"/>
  <g transform="translate(168 592) scale(.68)"><g>
      <path d="M20 24 50 80 80 24" fill="none" stroke="#71879D" stroke-width="11" stroke-linecap="round" stroke-linejoin="round"/>
      <circle cx="50" cy="37" r="9" fill="#D9C6AD"/>
      <circle cx="50" cy="37" r="3" fill="#ffffff"/>
      <path d="M34 78h32" stroke="#17212B" stroke-width="5" stroke-linecap="round"/>
      <path d="M33 25c11-8 23-8 34 0" fill="none" stroke="#D9C6AD" stroke-width="5" stroke-linecap="round"/></g></g>
  <text x="270" y="638" font-family="Inter, Arial, sans-serif" font-size="24" font-weight="950" fill="#17212B">Vela Skin</text>
  <text x="270" y="672" font-family="Inter, Arial, sans-serif" font-size="13" font-weight="800" letter-spacing="3" fill="#17212B" opacity=".45">BUSINESS CARD</text>
  
      <rect x="935" y="268" width="170" height="480" rx="34" fill="#ffffff" filter="url(#softShadow)"/>
      <rect x="967" y="334" width="106" height="290" rx="22" fill="#F3F2ED"/>
      <g transform="translate(988 396) scale(.68)"><g>
      <path d="M20 24 50 80 80 24" fill="none" stroke="#71879D" stroke-width="11" stroke-linecap="round" stroke-linejoin="round"/>
      <circle cx="50" cy="37" r="9" fill="#D9C6AD"/>
      <circle cx="50" cy="37" r="3" fill="#ffffff"/>
      <path d="M34 78h32" stroke="#17212B" stroke-width="5" stroke-linecap="round"/>
      <path d="M33 25c11-8 23-8 34 0" fill="none" stroke="#D9C6AD" stroke-width="5" stroke-linecap="round"/></g></g>
      <text x="1020" y="570" text-anchor="middle" font-family="Inter, Arial, sans-serif" font-size="17" font-weight="900" fill="#17212B">Vela Skin</text>
      <rect x="1145" y="340" width="170" height="360" rx="26" fill="#1C2A36" filter="url(#softShadow)"/>
      <g transform="translate(1180 420) scale(.95)"><g>
      <path d="M20 24 50 80 80 24" fill="none" stroke="#71879D" stroke-width="11" stroke-linecap="round" stroke-linejoin="round"/>
      <circle cx="50" cy="37" r="9" fill="#D9C6AD"/>
      <circle cx="50" cy="37" r="3" fill="#ffffff"/>
      <path d="M34 78h32" stroke="#ffffff" stroke-width="5" stroke-linecap="round"/>
      <path d="M33 25c11-8 23-8 34 0" fill="none" stroke="#D9C6AD" stroke-width="5" stroke-linecap="round"/></g></g>
</svg>
