<svg xmlns="http://www.w3.org/2000/svg" width="1800" height="1200" viewBox="0 0 1800 1200" role="img">
  
  <defs>
    <filter id="softShadow" x="-30%" y="-30%" width="160%" height="170%">
      <feDropShadow dx="0" dy="34" stdDeviation="32" flood-color="#1b0d08" flood-opacity=".18"/>
    </filter>
    <filter id="tightShadow" x="-30%" y="-30%" width="160%" height="160%">
      <feDropShadow dx="0" dy="14" stdDeviation="12" flood-color="#1b0d08" flood-opacity=".22"/>
    </filter>
    <filter id="printTexture" x="0" y="0" width="100%" height="100%">
      <feTurbulence type="fractalNoise" baseFrequency=".74" numOctaves="2" stitchTiles="stitch"/>
      <feColorMatrix type="saturate" values="0"/>
      <feComponentTransfer>
        <feFuncA type="table" tableValues="0 .035"/>
      </feComponentTransfer>
    </filter>
    <linearGradient id="warmPaper" x1="0" y1="0" x2="1" y2="1">
      <stop offset="0" stop-color="#fffaf2"/>
      <stop offset=".58" stop-color="#f5eee4"/>
      <stop offset="1" stop-color="#e8d0b4"/>
    </linearGradient>
    <linearGradient id="darkRoast" x1="0" y1="0" x2="1" y2="1">
      <stop offset="0" stop-color="#24140f"/>
      <stop offset=".58" stop-color="#4a2b1f"/>
      <stop offset="1" stop-color="#6f4631"/>
    </linearGradient>
    <linearGradient id="foil" x1="0" y1="0" x2="1" y2="1">
      <stop offset="0" stop-color="#e6c7a4"/>
      <stop offset=".52" stop-color="#a87652"/>
      <stop offset="1" stop-color="#f1d9b8"/>
    </linearGradient>
  </defs>
  
  <rect width="1800" height="1200" fill="#24140f"/>
  <rect x="58" y="58" width="1684" height="1084" rx="46" fill="url(#warmPaper)"/>
  <rect x="58" y="58" width="1684" height="1084" rx="46" fill="#ffffff" filter="url(#printTexture)" opacity=".5"/>
  
  <text x="110" y="122" font-family="Inter, Arial, sans-serif" font-size="18" font-weight="950" letter-spacing="7" fill="#a87652">01 IDENTITY CONCEPT</text>
  <text x="110" y="205" font-family="Inter, Arial, sans-serif" font-size="68" font-weight="950" fill="#16110f">MORU Coffee</text>
  <text x="112" y="256" font-family="Inter, Arial, sans-serif" font-size="24" font-weight="720" fill="#82746a">Quiet specialty roastery identity for daily ritual and craft.</text>
  <g transform="translate(110 370)">
    
  <g transform="translate(0 0) scale(1.625)">
    <circle cx="80" cy="80" r="72" fill="url(#darkRoast)"/>
    <circle cx="80" cy="80" r="56" fill="none" stroke="#d8b78f" stroke-width="5" opacity=".9"/>
    <path d="M41 106V58c0-13 17-18 25-7l14 22 14-22c8-11 25-6 25 7v48" fill="none" stroke="#fffaf2" stroke-width="13" stroke-linecap="round" stroke-linejoin="round"/>
    <path d="M45 103c20-10 50-10 70 0" fill="none" stroke="#d8b78f" stroke-width="9" stroke-linecap="round"/>
    <circle cx="80" cy="80" r="6" fill="#d8b78f"/>
  </g>
    
  <g>
    <text x="0" y="360" text-anchor="start" font-family="Inter, Arial, sans-serif" font-size="98" font-weight="950" letter-spacing="-1" fill="#16110f">MORU Coffee</text>
    <text x="0" y="401.15999999999997" text-anchor="start" font-family="Inter, Arial, sans-serif" font-size="15" font-weight="850" letter-spacing="6" fill="#16110f" opacity=".55">SMALL BATCH ROASTERY</text>
  </g>
    <rect x="0" y="510" width="88" height="88" rx="22" fill="#24140f"/>
    <rect x="112" y="510" width="88" height="88" rx="22" fill="#6f4631"/>
    <rect x="224" y="510" width="88" height="88" rx="22" fill="#a87652"/>
    <rect x="336" y="510" width="88" height="88" rx="22" fill="#fffaf2" stroke="#e8dacc" stroke-width="2"/>
    <text x="0" y="682" font-family="Inter, Arial, sans-serif" font-size="20" font-weight="850" fill="#82746a">Espresso / Cacao / Clay / Warm Cream</text>
  </g>
  <g transform="translate(850 300)" filter="url(#softShadow)">
    <rect x="210" y="0" width="430" height="620" rx="26" fill="#6f4631"/>
    <path d="M210 118h430" stroke="#ffffff" stroke-width="2" opacity=".13"/>
    <path d="M210 496h430" stroke="#000000" stroke-width="2" opacity=".12"/>
    <rect x="260" y="82" width="330" height="410" rx="8" fill="#fffaf2" opacity=".1"/>
    
  <g transform="translate(344 176) scale(0.7375)">
    <circle cx="80" cy="80" r="72" fill="url(#darkRoast)"/>
    <circle cx="80" cy="80" r="56" fill="none" stroke="#d8b78f" stroke-width="5" opacity=".9"/>
    <path d="M41 106V58c0-13 17-18 25-7l14 22 14-22c8-11 25-6 25 7v48" fill="none" stroke="#fffaf2" stroke-width="13" stroke-linecap="round" stroke-linejoin="round"/>
    <path d="M45 103c20-10 50-10 70 0" fill="none" stroke="#d8b78f" stroke-width="9" stroke-linecap="round"/>
    <circle cx="80" cy="80" r="6" fill="#d8b78f"/>
  </g>
    <text x="425" y="353" text-anchor="middle" font-family="Inter, Arial, sans-serif" font-size="42" font-weight="950" fill="#fffaf2">MORU</text>
    <text x="425" y="386" text-anchor="middle" font-family="Inter, Arial, sans-serif" font-size="11" font-weight="850" letter-spacing="5" fill="#fffaf2" opacity=".62">WHOLE BEAN COFFEE</text>
    <rect x="0" y="402" width="470" height="256" rx="18" fill="#fffaf2" transform="rotate(-7 235 530)"/>
    
  <g transform="translate(66 470) scale(0.45)">
    <circle cx="80" cy="80" r="72" fill="#fffaf2"/>
    <circle cx="80" cy="80" r="56" fill="none" stroke="#a87652" stroke-width="5" opacity=".9"/>
    <path d="M41 106V58c0-13 17-18 25-7l14 22 14-22c8-11 25-6 25 7v48" fill="none" stroke="#24140f" stroke-width="13" stroke-linecap="round" stroke-linejoin="round"/>
    <path d="M45 103c20-10 50-10 70 0" fill="none" stroke="#a87652" stroke-width="9" stroke-linecap="round"/>
    <circle cx="80" cy="80" r="6" fill="#a87652"/>
  </g>
    <text x="158" y="516" font-family="Inter, Arial, sans-serif" font-size="33" font-weight="950" fill="#16110f" transform="rotate(-7 158 516)">MORU Coffee</text>
    <text x="158" y="546" font-family="Inter, Arial, sans-serif" font-size="10" font-weight="850" letter-spacing="4" fill="#16110f" opacity=".45" transform="rotate(-7 158 546)">SMALL BATCH ROASTERY</text>
    <circle cx="640" cy="658" r="96" fill="#24140f"/>
    
  <g transform="translate(580 598) scale(0.75)">
    <circle cx="80" cy="80" r="72" fill="url(#darkRoast)"/>
    <circle cx="80" cy="80" r="56" fill="none" stroke="#d8b78f" stroke-width="5" opacity=".9"/>
    <path d="M41 106V58c0-13 17-18 25-7l14 22 14-22c8-11 25-6 25 7v48" fill="none" stroke="#fffaf2" stroke-width="13" stroke-linecap="round" stroke-linejoin="round"/>
    <path d="M45 103c20-10 50-10 70 0" fill="none" stroke="#d8b78f" stroke-width="9" stroke-linecap="round"/>
    <circle cx="80" cy="80" r="6" fill="#d8b78f"/>
  </g>
  </g>
</svg>