<svg xmlns="http://www.w3.org/2000/svg" width="1800" height="1200" viewBox="0 0 1800 1200" role="img">
  
  <defs>
    <filter id="softShadow" x="-30%" y="-30%" width="160%" height="170%">
      <feDropShadow dx="0" dy="34" stdDeviation="32" flood-color="#1b0d08" flood-opacity=".18"/>
    </filter>
    <filter id="tightShadow" x="-30%" y="-30%" width="160%" height="160%">
      <feDropShadow dx="0" dy="14" stdDeviation="12" flood-color="#1b0d08" flood-opacity=".22"/>
    </filter>
    <filter id="printTexture" x="0" y="0" width="100%" height="100%">
      <feTurbulence type="fractalNoise" baseFrequency=".74" numOctaves="2" stitchTiles="stitch"/>
      <feColorMatrix type="saturate" values="0"/>
      <feComponentTransfer>
        <feFuncA type="table" tableValues="0 .035"/>
      </feComponentTransfer>
    </filter>
    <linearGradient id="warmPaper" x1="0" y1="0" x2="1" y2="1">
      <stop offset="0" stop-color="#fffaf2"/>
      <stop offset=".58" stop-color="#f5eee4"/>
      <stop offset="1" stop-color="#e8d0b4"/>
    </linearGradient>
    <linearGradient id="darkRoast" x1="0" y1="0" x2="1" y2="1">
      <stop offset="0" stop-color="#24140f"/>
      <stop offset=".58" stop-color="#4a2b1f"/>
      <stop offset="1" stop-color="#6f4631"/>
    </linearGradient>
    <linearGradient id="foil" x1="0" y1="0" x2="1" y2="1">
      <stop offset="0" stop-color="#e6c7a4"/>
      <stop offset=".52" stop-color="#a87652"/>
      <stop offset="1" stop-color="#f1d9b8"/>
    </linearGradient>
  </defs>
  
  <rect width="1800" height="1200" fill="#24140f"/>
  <rect x="58" y="58" width="1684" height="1084" rx="46" fill="#fffaf2"/>
  <rect x="58" y="58" width="1684" height="1084" rx="46" fill="#ffffff" filter="url(#printTexture)" opacity=".42"/>
  
  <text x="110" y="122" font-family="Inter, Arial, sans-serif" font-size="18" font-weight="950" letter-spacing="7" fill="#a87652">03 BRAND KIT</text>
  <text x="110" y="205" font-family="Inter, Arial, sans-serif" font-size="68" font-weight="950" fill="#16110f">Launch-Ready Touchpoints</text>
  <text x="112" y="256" font-family="Inter, Arial, sans-serif" font-size="24" font-weight="720" fill="#82746a">Business card, package, sticker, social profile, and cup sleeve system.</text>
  <g transform="translate(122 346)" filter="url(#softShadow)">
    <rect x="0" y="190" width="520" height="312" rx="20" fill="#ffffff" transform="rotate(-5 260 346)"/>
    
  <g transform="translate(82 300) scale(0.5375)">
    <circle cx="80" cy="80" r="72" fill="#fffaf2"/>
    <circle cx="80" cy="80" r="56" fill="none" stroke="#a87652" stroke-width="5" opacity=".9"/>
    <path d="M41 106V58c0-13 17-18 25-7l14 22 14-22c8-11 25-6 25 7v48" fill="none" stroke="#24140f" stroke-width="13" stroke-linecap="round" stroke-linejoin="round"/>
    <path d="M45 103c20-10 50-10 70 0" fill="none" stroke="#a87652" stroke-width="9" stroke-linecap="round"/>
    <circle cx="80" cy="80" r="6" fill="#a87652"/>
  </g>
    <text x="195" y="352" font-family="Inter, Arial, sans-serif" font-size="42" font-weight="950" fill="#16110f" transform="rotate(-5 195 352)">MORU Coffee</text>
    <text x="195" y="386" font-family="Inter, Arial, sans-serif" font-size="12" font-weight="850" letter-spacing="5" fill="#16110f" opacity=".45" transform="rotate(-5 195 386)">SMALL BATCH ROASTERY</text>
    <rect x="606" y="22" width="420" height="620" rx="26" fill="#6f4631"/>
    <rect x="654" y="92" width="324" height="420" rx="12" fill="#fffaf2" opacity=".12"/>
    
  <g transform="translate(754 176) scale(0.775)">
    <circle cx="80" cy="80" r="72" fill="url(#darkRoast)"/>
    <circle cx="80" cy="80" r="56" fill="none" stroke="#d8b78f" stroke-width="5" opacity=".9"/>
    <path d="M41 106V58c0-13 17-18 25-7l14 22 14-22c8-11 25-6 25 7v48" fill="none" stroke="#fffaf2" stroke-width="13" stroke-linecap="round" stroke-linejoin="round"/>
    <path d="M45 103c20-10 50-10 70 0" fill="none" stroke="#d8b78f" stroke-width="9" stroke-linecap="round"/>
    <circle cx="80" cy="80" r="6" fill="#d8b78f"/>
  </g>
    <text x="816" y="362" text-anchor="middle" font-family="Inter, Arial, sans-serif" font-size="44" font-weight="950" fill="#fffaf2">MORU</text>
    <text x="816" y="397" text-anchor="middle" font-family="Inter, Arial, sans-serif" font-size="12" font-weight="850" letter-spacing="5" fill="#fffaf2" opacity=".56">ROASTERY</text>
    <rect x="1068" y="248" width="340" height="170" rx="85" fill="#24140f"/>
    <path d="M1068 333h340" stroke="#fffaf2" stroke-width="3" opacity=".18"/>
    
  <g transform="translate(1155 280) scale(0.6)">
    <circle cx="80" cy="80" r="72" fill="url(#darkRoast)"/>
    <circle cx="80" cy="80" r="56" fill="none" stroke="#d8b78f" stroke-width="5" opacity=".9"/>
    <path d="M41 106V58c0-13 17-18 25-7l14 22 14-22c8-11 25-6 25 7v48" fill="none" stroke="#fffaf2" stroke-width="13" stroke-linecap="round" stroke-linejoin="round"/>
    <path d="M45 103c20-10 50-10 70 0" fill="none" stroke="#d8b78f" stroke-width="9" stroke-linecap="round"/>
    <circle cx="80" cy="80" r="6" fill="#d8b78f"/>
  </g>
    <circle cx="1390" cy="600" r="94" fill="#fffaf2"/>
    
  <g transform="translate(1328 538) scale(0.775)">
    <circle cx="80" cy="80" r="72" fill="#fffaf2"/>
    <circle cx="80" cy="80" r="56" fill="none" stroke="#a87652" stroke-width="5" opacity=".9"/>
    <path d="M41 106V58c0-13 17-18 25-7l14 22 14-22c8-11 25-6 25 7v48" fill="none" stroke="#24140f" stroke-width="13" stroke-linecap="round" stroke-linejoin="round"/>
    <path d="M45 103c20-10 50-10 70 0" fill="none" stroke="#a87652" stroke-width="9" stroke-linecap="round"/>
    <circle cx="80" cy="80" r="6" fill="#a87652"/>
  </g>
    <rect x="1234" y="34" width="176" height="176" rx="42" fill="#24140f"/>
    
  <g transform="translate(1262 62) scale(0.75)">
    <circle cx="80" cy="80" r="72" fill="url(#darkRoast)"/>
    <circle cx="80" cy="80" r="56" fill="none" stroke="#d8b78f" stroke-width="5" opacity=".9"/>
    <path d="M41 106V58c0-13 17-18 25-7l14 22 14-22c8-11 25-6 25 7v48" fill="none" stroke="#fffaf2" stroke-width="13" stroke-linecap="round" stroke-linejoin="round"/>
    <path d="M45 103c20-10 50-10 70 0" fill="none" stroke="#d8b78f" stroke-width="9" stroke-linecap="round"/>
    <circle cx="80" cy="80" r="6" fill="#d8b78f"/>
  </g>
  </g>
  <g transform="translate(122 1004)">
    <text x="0" y="0" font-family="Inter, Arial, sans-serif" font-size="18" font-weight="900" letter-spacing="4" fill="#82746a">LOGO / BUSINESS CARD / PACKAGE / STICKER / SOCIAL PROFILE / SOURCE FILES</text>
  </g>
</svg>