<svg xmlns="http://www.w3.org/2000/svg" width="1600" height="1000" viewBox="0 0 1600 1000" role="img">
  
  <defs>
    <filter id="softShadow" x="-20%" y="-20%" width="140%" height="150%">
      <feDropShadow dx="0" dy="24" stdDeviation="26" flood-color="#3B241A" flood-opacity=".18"/>
    </filter>
    <filter id="tightShadow" x="-20%" y="-20%" width="140%" height="150%">
      <feDropShadow dx="0" dy="12" stdDeviation="12" flood-color="#3B241A" flood-opacity=".18"/>
    </filter>
    <linearGradient id="paperGrad" x1="0" y1="0" x2="1" y2="1">
      <stop offset="0" stop-color="#F6EFE5"/>
      <stop offset=".62" stop-color="#ffffff"/>
      <stop offset="1" stop-color="#F6EFE5"/>
    </linearGradient>
    <linearGradient id="accentGrad" x1="0" y1="0" x2="1" y2="1">
      <stop offset="0" stop-color="#A84A2A"/>
      <stop offset="1" stop-color="#D4A64D"/>
    </linearGradient>
  </defs>
  
  <rect width="1600" height="1000" fill="#3B241A"/>
  <rect x="70" y="74" width="1460" height="852" rx="44" fill="url(#paperGrad)"/>
  <text x="126" y="154" font-family="Inter, Arial, sans-serif" font-size="19" font-weight="900" letter-spacing="6" fill="#1E1712" opacity=".5">APPLICATION SYSTEM</text>
  <g transform="translate(130 250) scale(1.45)"><g>
      <rect x="17" y="18" width="29" height="29" rx="8" fill="#A84A2A"/>
      <rect x="54" y="18" width="29" height="29" rx="8" fill="#D4A64D"/>
      <rect x="17" y="55" width="29" height="29" rx="8" fill="#D4A64D"/>
      <rect x="54" y="55" width="29" height="29" rx="8" fill="#A84A2A"/>
      <path d="M30 72c13-18 27-18 40 0" fill="none" stroke="#1E1712" stroke-width="6" stroke-linecap="round"/>
      <path d="M27 30h56M17 47h66M17 55h66M27 84h56" stroke="#ffffff" stroke-width="3" opacity=".55"/></g></g>
  
  <text x="300" y="328" text-anchor="start" font-family="Inter, Arial, sans-serif" font-size="52" font-weight="950" letter-spacing="-1.4" fill="#1E1712">Danchae Table</text>
  <text x="300" y="355.04" text-anchor="start" font-family="Inter, Arial, sans-serif" font-size="12" font-weight="800" letter-spacing="5" fill="#1E1712" opacity=".52">MODERN TABLE IDENTITY</text>
  <text x="130" y="472" font-family="Inter, Arial, sans-serif" font-size="24" font-weight="700" fill="#1E1712" opacity=".58">Korean Dining brand touchpoints</text>
  <rect x="130" y="548" width="390" height="170" rx="26" fill="#ffffff" filter="url(#tightShadow)"/>
  <g transform="translate(168 592) scale(.68)"><g>
      <rect x="17" y="18" width="29" height="29" rx="8" fill="#A84A2A"/>
      <rect x="54" y="18" width="29" height="29" rx="8" fill="#D4A64D"/>
      <rect x="17" y="55" width="29" height="29" rx="8" fill="#D4A64D"/>
      <rect x="54" y="55" width="29" height="29" rx="8" fill="#A84A2A"/>
      <path d="M30 72c13-18 27-18 40 0" fill="none" stroke="#1E1712" stroke-width="6" stroke-linecap="round"/>
      <path d="M27 30h56M17 47h66M17 55h66M27 84h56" stroke="#ffffff" stroke-width="3" opacity=".55"/></g></g>
  <text x="270" y="638" font-family="Inter, Arial, sans-serif" font-size="24" font-weight="950" fill="#1E1712">Danchae Table</text>
  <text x="270" y="672" font-family="Inter, Arial, sans-serif" font-size="13" font-weight="800" letter-spacing="3" fill="#1E1712" opacity=".45">BUSINESS CARD</text>
  
      <rect x="919" y="254" width="420" height="540" rx="20" fill="#ffffff" filter="url(#softShadow)"/>
      <rect x="963" y="304" width="332" height="440" rx="14" fill="#F6EFE5"/>
      <text x="1129" y="370" text-anchor="middle" font-family="Georgia, serif" font-size="24" font-weight="700" fill="#1E1712">MENU</text>
      <g transform="translate(1079 415) scale(1.05)"><g>
      <rect x="17" y="18" width="29" height="29" rx="8" fill="#A84A2A"/>
      <rect x="54" y="18" width="29" height="29" rx="8" fill="#D4A64D"/>
      <rect x="17" y="55" width="29" height="29" rx="8" fill="#D4A64D"/>
      <rect x="54" y="55" width="29" height="29" rx="8" fill="#A84A2A"/>
      <path d="M30 72c13-18 27-18 40 0" fill="none" stroke="#1E1712" stroke-width="6" stroke-linecap="round"/>
      <path d="M27 30h56M17 47h66M17 55h66M27 84h56" stroke="#ffffff" stroke-width="3" opacity=".55"/></g></g>
      <path d="M1007 600h244M1007 650h244M1007 700h244" stroke="#1E1712" stroke-width="3" opacity=".24"/>
      <rect x="1215" y="196" width="58" height="610" rx="29" fill="#A84A2A" opacity=".18"/>
</svg>
