<svg width="1600" height="1000" viewBox="0 0 1600 1000" fill="none" xmlns="http://www.w3.org/2000/svg">
  
  <defs>
    <linearGradient id="bg" x1="0" y1="0" x2="1600" y2="1000" gradientUnits="userSpaceOnUse">
      <stop stop-color="#24150E"/>
      <stop offset=".58" stop-color="#211711"/>
      <stop offset="1" stop-color="#24150E"/>
    </linearGradient>
    <linearGradient id="paper" x1="0" y1="0" x2="1" y2="1">
      <stop stop-color="#fffaf0"/>
      <stop offset="1" stop-color="#F7EFE4"/>
    </linearGradient>
    <linearGradient id="accent" x1="0" y1="0" x2="1" y2="1">
      <stop stop-color="#B6532C"/>
      <stop offset="1" stop-color="#D5A64F"/>
    </linearGradient>
    <filter id="shadow" x="-20%" y="-20%" width="140%" height="150%" color-interpolation-filters="sRGB">
      <feDropShadow dx="0" dy="34" stdDeviation="26" flood-color="#000000" flood-opacity=".34"/>
    </filter>
    <filter id="soft" x="-20%" y="-20%" width="140%" height="150%" color-interpolation-filters="sRGB">
      <feDropShadow dx="0" dy="18" stdDeviation="18" flood-color="#000000" flood-opacity=".20"/>
    </filter>
    <filter id="texture" x="0" y="0" width="100%" height="100%">
      <feTurbulence type="fractalNoise" baseFrequency=".8" numOctaves="2" stitchTiles="stitch"/>
      <feColorMatrix type="saturate" values="0"/>
      <feComponentTransfer><feFuncA type="table" tableValues="0 .045"/></feComponentTransfer>
    </filter>
  </defs>
  
  <rect width="1600" height="1000" fill="#F4F1EC"/>
  <rect x="82" y="92" width="686" height="816" rx="36" fill="#24150E" filter="url(#shadow)"/>
  <rect x="832" y="92" width="686" height="816" rx="36" fill="#ffffff" filter="url(#shadow)"/>
  <text x="132" y="166" font-family="Inter, Arial, sans-serif" font-size="18" font-weight="950" letter-spacing="6" fill="#ffffff" opacity=".48">REVERSE</text>
  <g transform="translate(275 245) scale(1.88)"><rect x="36" y="35" width="52" height="52" rx="13" fill="#B6532C"/><rect x="112" y="35" width="52" height="52" rx="13" fill="#D5A64F"/><rect x="36" y="112" width="52" height="52" rx="13" fill="#D5A64F"/><rect x="112" y="112" width="52" height="52" rx="13" fill="#B6532C"/><path d="M57 150c25-36 61-36 86 0" fill="none" stroke="#24150E" stroke-width="10" stroke-linecap="round"/><path d="M53 59h111M36 88h128M36 112h128M53 164h111" stroke="#F7EFE4" stroke-width="4" opacity=".56"/></g>
  <text x="425" y="690" text-anchor="middle" fill="#ffffff" font-family="Inter, Montserrat, Arial, sans-serif" font-size="46" font-weight="860" letter-spacing="-1">Danchae Table</text>
  <text x="425" y="712.08" text-anchor="middle" fill="#ffffff" opacity=".58" font-family="Inter, Montserrat, Arial, sans-serif" font-size="11" font-weight="820" letter-spacing="4">KOREAN DINING</text>
  <text x="425" y="815" text-anchor="middle" font-family="Inter, Arial, sans-serif" font-size="18" font-weight="850" letter-spacing="5" fill="#ffffff" opacity=".42">DARK BACKGROUND</text>
  <text x="882" y="166" font-family="Inter, Arial, sans-serif" font-size="18" font-weight="950" letter-spacing="6" fill="#211711" opacity=".42">MONO</text>
  <g transform="translate(1025 245) scale(1.88)"><rect x="36" y="35" width="52" height="52" rx="13" fill="#211711"/><rect x="112" y="35" width="52" height="52" rx="13" fill="#211711"/><rect x="36" y="112" width="52" height="52" rx="13" fill="#211711"/><rect x="112" y="112" width="52" height="52" rx="13" fill="#211711"/><path d="M57 150c25-36 61-36 86 0" fill="none" stroke="#211711" stroke-width="10" stroke-linecap="round"/><path d="M53 59h111M36 88h128M36 112h128M53 164h111" stroke="#FFF4E4" stroke-width="4" opacity=".56"/></g>
  <text x="1175" y="690" text-anchor="middle" fill="#211711" font-family="Inter, Montserrat, Arial, sans-serif" font-size="46" font-weight="860" letter-spacing="-1">Danchae Table</text>
  <text x="1175" y="712.08" text-anchor="middle" fill="#211711" opacity=".58" font-family="Inter, Montserrat, Arial, sans-serif" font-size="11" font-weight="820" letter-spacing="4">KOREAN DINING</text>
  <text x="1175" y="815" text-anchor="middle" font-family="Inter, Arial, sans-serif" font-size="18" font-weight="850" letter-spacing="5" fill="#211711" opacity=".42">ONE-COLOR VERSION</text>
</svg>
