<svg width="1600" height="1000" viewBox="0 0 1600 1000" fill="none" xmlns="http://www.w3.org/2000/svg">
  
  <defs>
    <linearGradient id="bg" x1="0" y1="0" x2="1600" y2="1000" gradientUnits="userSpaceOnUse">
      <stop stop-color="#1D1230"/>
      <stop offset=".58" stop-color="#181223"/>
      <stop offset="1" stop-color="#1D1230"/>
    </linearGradient>
    <linearGradient id="paper" x1="0" y1="0" x2="1" y2="1">
      <stop stop-color="#fffaf0"/>
      <stop offset="1" stop-color="#F2ECFF"/>
    </linearGradient>
    <linearGradient id="accent" x1="0" y1="0" x2="1" y2="1">
      <stop stop-color="#7C3AED"/>
      <stop offset="1" stop-color="#F97316"/>
    </linearGradient>
    <filter id="shadow" x="-20%" y="-20%" width="140%" height="150%" color-interpolation-filters="sRGB">
      <feDropShadow dx="0" dy="34" stdDeviation="26" flood-color="#000000" flood-opacity=".34"/>
    </filter>
    <filter id="soft" x="-20%" y="-20%" width="140%" height="150%" color-interpolation-filters="sRGB">
      <feDropShadow dx="0" dy="18" stdDeviation="18" flood-color="#000000" flood-opacity=".20"/>
    </filter>
    <filter id="texture" x="0" y="0" width="100%" height="100%">
      <feTurbulence type="fractalNoise" baseFrequency=".8" numOctaves="2" stitchTiles="stitch"/>
      <feColorMatrix type="saturate" values="0"/>
      <feComponentTransfer><feFuncA type="table" tableValues="0 .045"/></feComponentTransfer>
    </filter>
  </defs>
  
  <rect width="1600" height="1000" fill="#F2ECFF"/>
  <rect width="1600" height="1000" fill="#ffffff" filter="url(#texture)" opacity=".50"/>
  <g opacity=".36"><circle cx="1320" cy="130" r="230" fill="#F97316"/><circle cx="230" cy="860" r="210" fill="#7C3AED"/></g>
  <text x="115" y="126" fill="#F97316" font-family="Inter, Arial, sans-serif" font-size="24" font-weight="850" letter-spacing="6">BUSINESS CARD SYSTEM</text>
  <text x="115" y="192" fill="#181223" font-family="Inter, Arial, sans-serif" font-size="58" font-weight="860">Promptly AI</text>
  <text x="115" y="238" fill="#181223" opacity=".58" font-family="Inter, Arial, sans-serif" font-size="22" font-weight="540">front / back layout for logo and business card sales portfolio</text>
  <g transform="translate(380 300) rotate(-7)" filter="url(#shadow)">
    <rect width="840" height="486" rx="26" fill="url(#paper)"/>
    <rect x="40" y="40" width="760" height="406" rx="14" stroke="#F97316" stroke-width="2" opacity=".6"/>
    <g transform="translate(150 155) scale(0.86)"><path d="M36 48h118c18 0 30 12 30 30v39c0 18-12 30-30 30h-47l-36 28v-28H36c-18 0-28-12-28-30V78c0-18 10-30 28-30Z" fill="#7C3AED"/><path d="M81 77v56l43-27-21-7 18-24" fill="#F97316" stroke="#181223" stroke-width="9" stroke-linejoin="round"/><path d="M146 68l7 16 16 7-16 7-7 16-7-16-16-7 16-7Z" fill="#FFF4E4"/><path d="M51 66h60" stroke="#FFF4E4" stroke-width="8" stroke-linecap="round" opacity=".4"/></g>
    <text x="345" y="246" text-anchor="start" fill="#181223" font-family="Inter, Montserrat, Arial, sans-serif" font-size="52" font-weight="860" letter-spacing="-1">Promptly AI</text>
  <text x="345" y="270.96" text-anchor="start" fill="#181223" opacity=".58" font-family="Inter, Montserrat, Arial, sans-serif" font-size="11" font-weight="820" letter-spacing="4">CONVERSATIONAL AI</text>
    <path d="M347 342h280" stroke="#7C3AED" stroke-width="3"/>
  </g>
  <g transform="translate(705 535) rotate(8)" filter="url(#shadow)">
    <rect width="840" height="486" rx="26" fill="#1D1230"/>
    <rect x="40" y="40" width="760" height="406" rx="14" stroke="#7C3AED" stroke-width="2" opacity=".28"/>
    <g transform="translate(635 185) scale(0.82)"><path d="M36 48h118c18 0 30 12 30 30v39c0 18-12 30-30 30h-47l-36 28v-28H36c-18 0-28-12-28-30V78c0-18 10-30 28-30Z" fill="#7C3AED"/><path d="M81 77v56l43-27-21-7 18-24" fill="#F97316" stroke="#1D1230" stroke-width="9" stroke-linejoin="round"/><path d="M146 68l7 16 16 7-16 7-7 16-7-16-16-7 16-7Z" fill="#F2ECFF"/><path d="M51 66h60" stroke="#F2ECFF" stroke-width="8" stroke-linecap="round" opacity=".4"/></g>
    <text x="90" y="154" fill="#F2ECFF" font-family="Inter, Arial, sans-serif" font-size="38" font-weight="850">Promptly AI</text>
    <text x="92" y="202" fill="#7C3AED" font-family="Inter, Arial, sans-serif" font-size="15" font-weight="850" letter-spacing="5">CONVERSATIONAL AI</text>
    <path d="M92 292h278" stroke="#F97316" stroke-width="2" opacity=".56"/>
    <text x="92" y="342" fill="#F2ECFF" opacity=".62" font-family="Inter, Arial, sans-serif" font-size="21" font-weight="540">promptlyai.kr</text>
    <text x="92" y="380" fill="#F2ECFF" opacity=".62" font-family="Inter, Arial, sans-serif" font-size="21" font-weight="540">@promptly.ai</text>
  </g>
</svg>
