<svg xmlns="http://www.w3.org/2000/svg" width="1600" height="1000" viewBox="0 0 1600 1000" role="img">
  
  <defs>
    <filter id="softShadow" x="-20%" y="-20%" width="140%" height="150%">
      <feDropShadow dx="0" dy="24" stdDeviation="26" flood-color="#25143F" flood-opacity=".18"/>
    </filter>
    <filter id="tightShadow" x="-20%" y="-20%" width="140%" height="150%">
      <feDropShadow dx="0" dy="12" stdDeviation="12" flood-color="#25143F" flood-opacity=".18"/>
    </filter>
    <linearGradient id="paperGrad" x1="0" y1="0" x2="1" y2="1">
      <stop offset="0" stop-color="#F2ECFF"/>
      <stop offset=".62" stop-color="#ffffff"/>
      <stop offset="1" stop-color="#F2ECFF"/>
    </linearGradient>
    <linearGradient id="accentGrad" x1="0" y1="0" x2="1" y2="1">
      <stop offset="0" stop-color="#7C3AED"/>
      <stop offset="1" stop-color="#F97316"/>
    </linearGradient>
  </defs>
  
  <rect width="1600" height="1000" fill="#25143F"/>
  <rect x="70" y="74" width="1460" height="852" rx="44" fill="url(#paperGrad)"/>
  <text x="126" y="154" font-family="Inter, Arial, sans-serif" font-size="19" font-weight="900" letter-spacing="6" fill="#181223" opacity=".5">APPLICATION SYSTEM</text>
  <g transform="translate(130 250) scale(1.45)"><g>
      <path d="M17 23h59c9 0 15 6 15 15v20c0 9-6 15-15 15H52L34 87V73H17C8 73 3 67 3 58V38c0-9 5-15 14-15Z" fill="#7C3AED"/>
      <path d="M39 38v28l21-13-10-3 9-12" fill="#F97316" stroke="#181223" stroke-width="4.5" stroke-linejoin="round"/>
      <path d="M71 34l3 8 8 3-8 3-3 8-3-8-8-3 8-3Z" fill="#ffffff"/>
      <path d="M24 32h30" stroke="#ffffff" stroke-width="4" stroke-linecap="round" opacity=".42"/></g></g>
  
  <text x="300" y="328" text-anchor="start" font-family="Inter, Arial, sans-serif" font-size="52" font-weight="950" letter-spacing="-.6" fill="#181223">Promptly AI</text>
  <text x="300" y="355.04" text-anchor="start" font-family="Inter, Arial, sans-serif" font-size="12" font-weight="800" letter-spacing="5" fill="#181223" opacity=".52">CONVERSATIONAL AI IDENTITY</text>
  <text x="130" y="472" font-family="Inter, Arial, sans-serif" font-size="24" font-weight="700" fill="#181223" opacity=".58">AI Tool brand touchpoints</text>
  <rect x="130" y="548" width="390" height="170" rx="26" fill="#ffffff" filter="url(#tightShadow)"/>
  <g transform="translate(168 592) scale(.68)"><g>
      <path d="M17 23h59c9 0 15 6 15 15v20c0 9-6 15-15 15H52L34 87V73H17C8 73 3 67 3 58V38c0-9 5-15 14-15Z" fill="#7C3AED"/>
      <path d="M39 38v28l21-13-10-3 9-12" fill="#F97316" stroke="#181223" stroke-width="4.5" stroke-linejoin="round"/>
      <path d="M71 34l3 8 8 3-8 3-3 8-3-8-8-3 8-3Z" fill="#ffffff"/>
      <path d="M24 32h30" stroke="#ffffff" stroke-width="4" stroke-linecap="round" opacity=".42"/></g></g>
  <text x="270" y="638" font-family="Inter, Arial, sans-serif" font-size="24" font-weight="950" fill="#181223">Promptly AI</text>
  <text x="270" y="672" font-family="Inter, Arial, sans-serif" font-size="13" font-weight="800" letter-spacing="3" fill="#181223" opacity=".45">BUSINESS CARD</text>
  
      <rect x="923" y="265" width="420" height="505" rx="34" fill="#25143F" filter="url(#softShadow)"/>
      <g transform="translate(977 325) scale(.9)"><g>
      <path d="M17 23h59c9 0 15 6 15 15v20c0 9-6 15-15 15H52L34 87V73H17C8 73 3 67 3 58V38c0-9 5-15 14-15Z" fill="#7C3AED"/>
      <path d="M39 38v28l21-13-10-3 9-12" fill="#F97316" stroke="#ffffff" stroke-width="4.5" stroke-linejoin="round"/>
      <path d="M71 34l3 8 8 3-8 3-3 8-3-8-8-3 8-3Z" fill="#ffffff"/>
      <path d="M24 32h30" stroke="#ffffff" stroke-width="4" stroke-linecap="round" opacity=".42"/></g></g>
      
  <text x="1100" y="380" text-anchor="start" font-family="Inter, Arial, sans-serif" font-size="34" font-weight="950" letter-spacing="-.6" fill="#ffffff">Promptly AI</text>
  <text x="1100" y="397.68" text-anchor="start" font-family="Inter, Arial, sans-serif" font-size="12" font-weight="800" letter-spacing="5" fill="#ffffff" opacity=".52">CONVERSATIONAL AI IDENTITY</text>
      <rect x="971" y="500" width="284" height="54" rx="20" fill="#ffffff" opacity=".18"/>
      <rect x="1037" y="588" width="250" height="54" rx="20" fill="#F97316" opacity=".94"/>
      <rect x="971" y="676" width="312" height="54" rx="20" fill="#ffffff" opacity=".18"/>
</svg>
