<svg width="1600" height="1000" viewBox="0 0 1600 1000" fill="none" xmlns="http://www.w3.org/2000/svg">
  
  <defs>
    <linearGradient id="bg" x1="0" y1="0" x2="1600" y2="1000" gradientUnits="userSpaceOnUse">
      <stop stop-color="#1D1230"/>
      <stop offset=".58" stop-color="#181223"/>
      <stop offset="1" stop-color="#1D1230"/>
    </linearGradient>
    <linearGradient id="paper" x1="0" y1="0" x2="1" y2="1">
      <stop stop-color="#fffaf0"/>
      <stop offset="1" stop-color="#F2ECFF"/>
    </linearGradient>
    <linearGradient id="accent" x1="0" y1="0" x2="1" y2="1">
      <stop stop-color="#7C3AED"/>
      <stop offset="1" stop-color="#F97316"/>
    </linearGradient>
    <filter id="shadow" x="-20%" y="-20%" width="140%" height="150%" color-interpolation-filters="sRGB">
      <feDropShadow dx="0" dy="34" stdDeviation="26" flood-color="#000000" flood-opacity=".34"/>
    </filter>
    <filter id="soft" x="-20%" y="-20%" width="140%" height="150%" color-interpolation-filters="sRGB">
      <feDropShadow dx="0" dy="18" stdDeviation="18" flood-color="#000000" flood-opacity=".20"/>
    </filter>
    <filter id="texture" x="0" y="0" width="100%" height="100%">
      <feTurbulence type="fractalNoise" baseFrequency=".8" numOctaves="2" stitchTiles="stitch"/>
      <feColorMatrix type="saturate" values="0"/>
      <feComponentTransfer><feFuncA type="table" tableValues="0 .045"/></feComponentTransfer>
    </filter>
  </defs>
  
  <rect width="1600" height="1000" fill="#F4F1EC"/>
  <rect x="82" y="92" width="686" height="816" rx="36" fill="#1D1230" filter="url(#shadow)"/>
  <rect x="832" y="92" width="686" height="816" rx="36" fill="#ffffff" filter="url(#shadow)"/>
  <text x="132" y="166" font-family="Inter, Arial, sans-serif" font-size="18" font-weight="950" letter-spacing="6" fill="#ffffff" opacity=".48">REVERSE</text>
  <g transform="translate(275 245) scale(1.88)"><path d="M36 48h118c18 0 30 12 30 30v39c0 18-12 30-30 30h-47l-36 28v-28H36c-18 0-28-12-28-30V78c0-18 10-30 28-30Z" fill="#7C3AED"/><path d="M81 77v56l43-27-21-7 18-24" fill="#F97316" stroke="#1D1230" stroke-width="9" stroke-linejoin="round"/><path d="M146 68l7 16 16 7-16 7-7 16-7-16-16-7 16-7Z" fill="#F2ECFF"/><path d="M51 66h60" stroke="#F2ECFF" stroke-width="8" stroke-linecap="round" opacity=".4"/></g>
  <text x="425" y="690" text-anchor="middle" fill="#ffffff" font-family="Inter, Montserrat, Arial, sans-serif" font-size="46" font-weight="860" letter-spacing="-1">Promptly AI</text>
  <text x="425" y="712.08" text-anchor="middle" fill="#ffffff" opacity=".58" font-family="Inter, Montserrat, Arial, sans-serif" font-size="11" font-weight="820" letter-spacing="4">CONVERSATIONAL AI</text>
  <text x="425" y="815" text-anchor="middle" font-family="Inter, Arial, sans-serif" font-size="18" font-weight="850" letter-spacing="5" fill="#ffffff" opacity=".42">DARK BACKGROUND</text>
  <text x="882" y="166" font-family="Inter, Arial, sans-serif" font-size="18" font-weight="950" letter-spacing="6" fill="#181223" opacity=".42">MONO</text>
  <g transform="translate(1025 245) scale(1.88)"><path d="M36 48h118c18 0 30 12 30 30v39c0 18-12 30-30 30h-47l-36 28v-28H36c-18 0-28-12-28-30V78c0-18 10-30 28-30Z" fill="#181223"/><path d="M81 77v56l43-27-21-7 18-24" fill="#181223" stroke="#181223" stroke-width="9" stroke-linejoin="round"/><path d="M146 68l7 16 16 7-16 7-7 16-7-16-16-7 16-7Z" fill="#FFF4E4"/><path d="M51 66h60" stroke="#FFF4E4" stroke-width="8" stroke-linecap="round" opacity=".4"/></g>
  <text x="1175" y="690" text-anchor="middle" fill="#181223" font-family="Inter, Montserrat, Arial, sans-serif" font-size="46" font-weight="860" letter-spacing="-1">Promptly AI</text>
  <text x="1175" y="712.08" text-anchor="middle" fill="#181223" opacity=".58" font-family="Inter, Montserrat, Arial, sans-serif" font-size="11" font-weight="820" letter-spacing="4">CONVERSATIONAL AI</text>
  <text x="1175" y="815" text-anchor="middle" font-family="Inter, Arial, sans-serif" font-size="18" font-weight="850" letter-spacing="5" fill="#181223" opacity=".42">ONE-COLOR VERSION</text>
</svg>
