<svg xmlns="http://www.w3.org/2000/svg" width="1600" height="1000" viewBox="0 0 1600 1000" role="img">
  
  <defs>
    <filter id="ambientShadow" x="-20%" y="-20%" width="140%" height="150%">
      <feDropShadow dx="0" dy="34" stdDeviation="30" flood-color="#25143F" flood-opacity=".24"/>
    </filter>
    <filter id="contactShadow" x="-20%" y="-20%" width="140%" height="150%">
      <feDropShadow dx="0" dy="14" stdDeviation="11" flood-color="#000000" flood-opacity=".22"/>
    </filter>
    <filter id="pressedInk" x="-20%" y="-20%" width="140%" height="140%">
      <feDropShadow dx="0" dy="1.4" stdDeviation=".6" flood-color="#ffffff" flood-opacity=".45"/>
      <feDropShadow dx="0" dy="2.2" stdDeviation="1.8" flood-color="#000000" flood-opacity=".16"/>
    </filter>
    <filter id="neonGlow" x="-60%" y="-60%" width="220%" height="220%">
      <feDropShadow dx="0" dy="0" stdDeviation="5" flood-color="#F97316" flood-opacity=".45"/>
      <feDropShadow dx="0" dy="0" stdDeviation="16" flood-color="#7C3AED" flood-opacity=".28"/>
    </filter>
    <filter id="paperNoise" x="0" y="0" width="100%" height="100%">
      <feTurbulence type="fractalNoise" baseFrequency=".92" numOctaves="2" stitchTiles="stitch"/>
      <feColorMatrix type="saturate" values="0"/>
      <feComponentTransfer>
        <feFuncA type="table" tableValues="0 .045"/>
      </feComponentTransfer>
    </filter>
    <linearGradient id="studioBg" x1="0" y1="0" x2="1" y2="1">
      <stop offset="0" stop-color="#F2ECFF"/>
      <stop offset=".52" stop-color="#ffffff"/>
      <stop offset="1" stop-color="#F97316" stop-opacity=".52"/>
    </linearGradient>
    <linearGradient id="darkPanel" x1="0" y1="0" x2="1" y2="1">
      <stop offset="0" stop-color="#25143F"/>
      <stop offset=".65" stop-color="#181223"/>
      <stop offset="1" stop-color="#7C3AED"/>
    </linearGradient>
    <linearGradient id="cardSheen" x1="0" y1="0" x2="1" y2="1">
      <stop offset="0" stop-color="#ffffff" stop-opacity=".96"/>
      <stop offset=".48" stop-color="#F2ECFF" stop-opacity=".92"/>
      <stop offset=".51" stop-color="#ffffff" stop-opacity=".45"/>
      <stop offset="1" stop-color="#ffffff" stop-opacity=".86"/>
    </linearGradient>
    <linearGradient id="glass" x1="0" y1="0" x2="1" y2="1">
      <stop offset="0" stop-color="#ffffff" stop-opacity=".78"/>
      <stop offset=".35" stop-color="#F2ECFF" stop-opacity=".22"/>
      <stop offset="1" stop-color="#ffffff" stop-opacity=".06"/>
    </linearGradient>
  </defs>
  
  <rect width="1600" height="1000" fill="#f4f2ee"/>
  <rect width="1600" height="1000" fill="#ffffff" filter="url(#paperNoise)" opacity=".38"/>
  <rect x="82" y="92" width="686" height="816" rx="36" fill="#25143F" filter="url(#ambientShadow)"/>
  <rect x="832" y="92" width="686" height="816" rx="36" fill="#ffffff" filter="url(#ambientShadow)"/>
  <text x="132" y="166" font-family="Inter, Arial, sans-serif" font-size="18" font-weight="950" letter-spacing="6" fill="#ffffff" opacity=".48">REVERSE</text>
  <g transform="translate(255 272) scale(2.45)"><g><path d="M17 23h59c9 0 15 6 15 15v20c0 9-6 15-15 15H52L34 87V73H17C8 73 3 67 3 58V38c0-9 5-15 14-15Z" fill="#ffffff"/><path d="M39 38v28l21-13-10-3 9-12" fill="#ffffff" stroke="#ffffff" stroke-width="4.5" stroke-linejoin="round"/><path d="M71 34l3 8 8 3-8 3-3 8-3-8-8-3 8-3Z" fill="#ffffff"/><path d="M24 32h30" stroke="#ffffff" stroke-width="4" stroke-linecap="round" opacity=".42"/></g></g>
  
  <text x="425" y="676" text-anchor="middle" font-family="Inter, Arial, sans-serif" font-size="48" font-weight="950" fill="#ffffff">Promptly AI</text>
  <text x="425" y="699.04" text-anchor="middle" font-family="Inter, Arial, sans-serif" font-size="10" font-weight="850" letter-spacing="4" fill="#ffffff" opacity=".48">CONVERSATIONAL AI IDENTITY</text>
  <text x="425" y="780" text-anchor="middle" font-family="Inter, Arial, sans-serif" font-size="18" font-weight="850" letter-spacing="5" fill="#ffffff" opacity=".42">DARK BACKGROUND</text>
  <text x="882" y="166" font-family="Inter, Arial, sans-serif" font-size="18" font-weight="950" letter-spacing="6" fill="#181223" opacity=".42">MONO</text>
  <g transform="translate(1005 272) scale(2.45)"><g><path d="M17 23h59c9 0 15 6 15 15v20c0 9-6 15-15 15H52L34 87V73H17C8 73 3 67 3 58V38c0-9 5-15 14-15Z" fill="#181223"/><path d="M39 38v28l21-13-10-3 9-12" fill="#181223" stroke="#181223" stroke-width="4.5" stroke-linejoin="round"/><path d="M71 34l3 8 8 3-8 3-3 8-3-8-8-3 8-3Z" fill="#F2ECFF"/><path d="M24 32h30" stroke="#F2ECFF" stroke-width="4" stroke-linecap="round" opacity=".42"/></g></g>
  
  <text x="1175" y="676" text-anchor="middle" font-family="Inter, Arial, sans-serif" font-size="48" font-weight="950" fill="#181223">Promptly AI</text>
  <text x="1175" y="699.04" text-anchor="middle" font-family="Inter, Arial, sans-serif" font-size="10" font-weight="850" letter-spacing="4" fill="#181223" opacity=".48">CONVERSATIONAL AI IDENTITY</text>
  <text x="1175" y="780" text-anchor="middle" font-family="Inter, Arial, sans-serif" font-size="18" font-weight="850" letter-spacing="5" fill="#181223" opacity=".42">ONE-COLOR VERSION</text>
</svg>
