<svg xmlns="http://www.w3.org/2000/svg" width="1600" height="1000" viewBox="0 0 1600 1000" role="img">
  
  <defs>
    <filter id="ambientShadow" x="-20%" y="-20%" width="140%" height="150%">
      <feDropShadow dx="0" dy="34" stdDeviation="30" flood-color="#25143F" flood-opacity=".24"/>
    </filter>
    <filter id="contactShadow" x="-20%" y="-20%" width="140%" height="150%">
      <feDropShadow dx="0" dy="14" stdDeviation="11" flood-color="#000000" flood-opacity=".22"/>
    </filter>
    <filter id="pressedInk" x="-20%" y="-20%" width="140%" height="140%">
      <feDropShadow dx="0" dy="1.4" stdDeviation=".6" flood-color="#ffffff" flood-opacity=".45"/>
      <feDropShadow dx="0" dy="2.2" stdDeviation="1.8" flood-color="#000000" flood-opacity=".16"/>
    </filter>
    <filter id="neonGlow" x="-60%" y="-60%" width="220%" height="220%">
      <feDropShadow dx="0" dy="0" stdDeviation="5" flood-color="#F97316" flood-opacity=".45"/>
      <feDropShadow dx="0" dy="0" stdDeviation="16" flood-color="#7C3AED" flood-opacity=".28"/>
    </filter>
    <filter id="paperNoise" x="0" y="0" width="100%" height="100%">
      <feTurbulence type="fractalNoise" baseFrequency=".92" numOctaves="2" stitchTiles="stitch"/>
      <feColorMatrix type="saturate" values="0"/>
      <feComponentTransfer>
        <feFuncA type="table" tableValues="0 .045"/>
      </feComponentTransfer>
    </filter>
    <linearGradient id="studioBg" x1="0" y1="0" x2="1" y2="1">
      <stop offset="0" stop-color="#F2ECFF"/>
      <stop offset=".52" stop-color="#ffffff"/>
      <stop offset="1" stop-color="#F97316" stop-opacity=".52"/>
    </linearGradient>
    <linearGradient id="darkPanel" x1="0" y1="0" x2="1" y2="1">
      <stop offset="0" stop-color="#25143F"/>
      <stop offset=".65" stop-color="#181223"/>
      <stop offset="1" stop-color="#7C3AED"/>
    </linearGradient>
    <linearGradient id="cardSheen" x1="0" y1="0" x2="1" y2="1">
      <stop offset="0" stop-color="#ffffff" stop-opacity=".96"/>
      <stop offset=".48" stop-color="#F2ECFF" stop-opacity=".92"/>
      <stop offset=".51" stop-color="#ffffff" stop-opacity=".45"/>
      <stop offset="1" stop-color="#ffffff" stop-opacity=".86"/>
    </linearGradient>
    <linearGradient id="glass" x1="0" y1="0" x2="1" y2="1">
      <stop offset="0" stop-color="#ffffff" stop-opacity=".78"/>
      <stop offset=".35" stop-color="#F2ECFF" stop-opacity=".22"/>
      <stop offset="1" stop-color="#ffffff" stop-opacity=".06"/>
    </linearGradient>
  </defs>
  
  <rect width="1600" height="1000" fill="#25143F"/>
  <rect x="0" y="0" width="1600" height="640" fill="url(#studioBg)"/>
  <rect x="0" y="640" width="1600" height="360" fill="#F2ECFF"/>
  <rect width="1600" height="1000" fill="#ffffff" filter="url(#paperNoise)" opacity=".38"/>
  <path d="M0 640h1600" stroke="#181223" stroke-width="2" opacity=".08"/>
  <rect x="160" y="160" width="1280" height="600" rx="8" fill="#ffffff" filter="url(#ambientShadow)"/>
  <rect x="160" y="160" width="1280" height="146" rx="8" fill="url(#darkPanel)"/>
  <rect x="202" y="205" width="1196" height="60" rx="30" fill="#ffffff" opacity=".08"/>
  <g filter="url(#neonGlow)">
    <g transform="translate(520 190) scale(.88)"><g><path d="M17 23h59c9 0 15 6 15 15v20c0 9-6 15-15 15H52L34 87V73H17C8 73 3 67 3 58V38c0-9 5-15 14-15Z" fill="#7C3AED"/><path d="M39 38v28l21-13-10-3 9-12" fill="#F97316" stroke="#ffffff" stroke-width="4.5" stroke-linejoin="round"/><path d="M71 34l3 8 8 3-8 3-3 8-3-8-8-3 8-3Z" fill="#ffffff"/><path d="M24 32h30" stroke="#ffffff" stroke-width="4" stroke-linecap="round" opacity=".42"/></g></g>
    
  <text x="655" y="247" text-anchor="start" font-family="Inter, Arial, sans-serif" font-size="48" font-weight="950" fill="#ffffff">Promptly AI</text>
  <text x="655" y="270.04" text-anchor="start" font-family="Inter, Arial, sans-serif" font-size="10" font-weight="850" letter-spacing="4" fill="#ffffff" opacity=".48">CONVERSATIONAL AI IDENTITY</text>
  </g>
  <rect x="214" y="348" width="570" height="360" rx="14" fill="#25143F" opacity=".85"/>
  <rect x="244" y="378" width="510" height="300" rx="12" fill="url(#glass)"/>
  <path d="M260 660 724 392M340 690 744 456" stroke="#ffffff" stroke-width="12" opacity=".16"/>
  <rect x="844" y="348" width="342" height="360" rx="14" fill="url(#glass)" stroke="#181223" stroke-width="1" opacity=".74"/>
  <rect x="1214" y="348" width="130" height="360" rx="12" fill="#25143F" opacity=".82"/>
  <circle cx="1238" cy="530" r="9" fill="#F97316"/>
  <g transform="translate(936 435) scale(1.2)"><g><path d="M17 23h59c9 0 15 6 15 15v20c0 9-6 15-15 15H52L34 87V73H17C8 73 3 67 3 58V38c0-9 5-15 14-15Z" fill="#7C3AED"/><path d="M39 38v28l21-13-10-3 9-12" fill="#F97316" stroke="#181223" stroke-width="4.5" stroke-linejoin="round"/><path d="M71 34l3 8 8 3-8 3-3 8-3-8-8-3 8-3Z" fill="#ffffff"/><path d="M24 32h30" stroke="#ffffff" stroke-width="4" stroke-linecap="round" opacity=".42"/></g></g>
  <text x="1015" y="610" text-anchor="middle" font-family="Inter, Arial, sans-serif" font-size="31" font-weight="950" fill="#181223">Promptly AI</text>
  <rect x="214" y="788" width="1130" height="58" rx="29" fill="#ffffff" opacity=".72"/>
  <text x="872" y="766" font-family="Inter, Arial, sans-serif" font-size="15" font-weight="900" letter-spacing="3" fill="#181223" opacity=".45">CHAT</text><text x="1022" y="766" font-family="Inter, Arial, sans-serif" font-size="15" font-weight="900" letter-spacing="3" fill="#181223" opacity=".45">PROMPT</text><text x="1172" y="766" font-family="Inter, Arial, sans-serif" font-size="15" font-weight="900" letter-spacing="3" fill="#181223" opacity=".45">MODEL</text>
  <text x="96" y="920" font-family="Inter, Arial, sans-serif" font-size="18" font-weight="950" letter-spacing="6" fill="#ffffff" opacity=".42">SIGNAGE MOCKUP</text>
  <text x="96" y="962" font-family="Inter, Arial, sans-serif" font-size="24" font-weight="850" fill="#ffffff" opacity=".74">Exterior sign, window decal, door plate</text>
</svg>
