<svg width="1600" height="900" viewBox="0 0 1600 900" fill="none" xmlns="http://www.w3.org/2000/svg">
  
  <defs>
    <linearGradient id="bg" x1="0" y1="0" x2="1600" y2="1000" gradientUnits="userSpaceOnUse">
      <stop stop-color="#102B29"/>
      <stop offset=".58" stop-color="#102322"/>
      <stop offset="1" stop-color="#102B29"/>
    </linearGradient>
    <linearGradient id="paper" x1="0" y1="0" x2="1" y2="1">
      <stop stop-color="#fffaf0"/>
      <stop offset="1" stop-color="#EAF4F1"/>
    </linearGradient>
    <linearGradient id="accent" x1="0" y1="0" x2="1" y2="1">
      <stop stop-color="#247B78"/>
      <stop offset="1" stop-color="#83AD74"/>
    </linearGradient>
    <filter id="shadow" x="-20%" y="-20%" width="140%" height="150%" color-interpolation-filters="sRGB">
      <feDropShadow dx="0" dy="34" stdDeviation="26" flood-color="#000000" flood-opacity=".34"/>
    </filter>
    <filter id="soft" x="-20%" y="-20%" width="140%" height="150%" color-interpolation-filters="sRGB">
      <feDropShadow dx="0" dy="18" stdDeviation="18" flood-color="#000000" flood-opacity=".20"/>
    </filter>
    <filter id="texture" x="0" y="0" width="100%" height="100%">
      <feTurbulence type="fractalNoise" baseFrequency=".8" numOctaves="2" stitchTiles="stitch"/>
      <feColorMatrix type="saturate" values="0"/>
      <feComponentTransfer><feFuncA type="table" tableValues="0 .045"/></feComponentTransfer>
    </filter>
  </defs>
  
  <rect width="1600" height="900" fill="url(#bg)"/>
  <g opacity=".10"><circle cx="1300" cy="120" r="220" stroke="#247B78"/><circle cx="1380" cy="760" r="360" stroke="#247B78"/><path d="M70 118h1460M70 770h1460" stroke="#247B78"/></g>
  <text x="92" y="116" fill="#247B78" font-family="Inter, Arial, sans-serif" font-size="18" font-weight="900" letter-spacing="6">WELLNESS CLINIC</text>
  <text x="92" y="178" fill="#EAF4F1" font-family="Inter, Arial, sans-serif" font-size="52" font-weight="860">Trust-Led Recovery Clinic</text>
  <text x="92" y="222" fill="#EAF4F1" opacity=".58" font-family="Inter, Arial, sans-serif" font-size="21" font-weight="560">M + cross + root line / logo, business card, brand kit</text>
  <g filter="url(#shadow)"><g transform="translate(154 328) scale(1.55)"><path d="M38 156V46l62 61 62-61v110" fill="none" stroke="#247B78" stroke-width="16" stroke-linecap="round" stroke-linejoin="round"/><path d="M100 76v80M76 100h48" stroke="#102322" stroke-width="12" stroke-linecap="round"/><path d="M100 156c-21-20-37-27-58-22M100 156c21-20 37-27 58-22" stroke="#83AD74" stroke-width="10" stroke-linecap="round"/><circle cx="100" cy="100" r="48" fill="none" stroke="#FFF4E4" stroke-width="6" opacity=".55"/></g></g>
  <text x="112" y="670" fill="#EAF4F1" font-family="Inter, Arial, sans-serif" font-size="76" font-weight="860" letter-spacing="-2">MediRoot</text>
  <text x="116" y="722" fill="#247B78" font-family="Inter, Arial, sans-serif" font-size="20" font-weight="820" letter-spacing="7">WELLNESS CLINIC</text>
  <g transform="translate(885 212)" filter="url(#shadow)">
    <rect x="0" y="45" width="520" height="292" rx="18" fill="url(#paper)" transform="rotate(-6 0 45)"/>
    <rect x="54" y="276" width="520" height="292" rx="18" fill="#102B29" transform="rotate(8 54 276)"/>
    <g transform="translate(130 120) rotate(-6)"><g transform="translate(0 0) scale(0.52)"><path d="M38 156V46l62 61 62-61v110" fill="none" stroke="#247B78" stroke-width="16" stroke-linecap="round" stroke-linejoin="round"/><path d="M100 76v80M76 100h48" stroke="#102322" stroke-width="12" stroke-linecap="round"/><path d="M100 156c-21-20-37-27-58-22M100 156c21-20 37-27 58-22" stroke="#83AD74" stroke-width="10" stroke-linecap="round"/><circle cx="100" cy="100" r="48" fill="none" stroke="#FFF4E4" stroke-width="6" opacity=".55"/></g><text x="120" y="60" text-anchor="start" fill="#102322" font-family="Inter, Montserrat, Arial, sans-serif" font-size="30" font-weight="860" letter-spacing="-1">MediRoot</text>
  <text x="120" y="74.4" text-anchor="start" fill="#102322" opacity=".58" font-family="Inter, Montserrat, Arial, sans-serif" font-size="11" font-weight="820" letter-spacing="4">WELLNESS CLINIC</text></g>
    <g transform="translate(190 362) rotate(8)"><g transform="translate(0 0) scale(0.5)"><path d="M38 156V46l62 61 62-61v110" fill="none" stroke="#247B78" stroke-width="16" stroke-linecap="round" stroke-linejoin="round"/><path d="M100 76v80M76 100h48" stroke="#102B29" stroke-width="12" stroke-linecap="round"/><path d="M100 156c-21-20-37-27-58-22M100 156c21-20 37-27 58-22" stroke="#83AD74" stroke-width="10" stroke-linecap="round"/><circle cx="100" cy="100" r="48" fill="none" stroke="#EAF4F1" stroke-width="6" opacity=".55"/></g><text x="116" y="58" text-anchor="start" fill="#EAF4F1" font-family="Inter, Montserrat, Arial, sans-serif" font-size="29" font-weight="860" letter-spacing="-1">MediRoot</text>
  <text x="116" y="71.92" text-anchor="start" fill="#EAF4F1" opacity=".58" font-family="Inter, Montserrat, Arial, sans-serif" font-size="11" font-weight="820" letter-spacing="4">WELLNESS CLINIC</text></g>
  </g>
  <g transform="translate(92 760)">
    <rect x="0" y="0" width="70" height="34" rx="17" fill="#247B78"/><rect x="86" y="0" width="70" height="34" rx="17" fill="#83AD74"/><rect x="172" y="0" width="70" height="34" rx="17" fill="#EAF4F1"/>
    <text x="286" y="24" fill="#EAF4F1" opacity=".56" font-family="Inter, Arial, sans-serif" font-size="14" font-weight="800" letter-spacing="4">PRIMARY / ACCENT / PAPER</text>
  </g>
</svg>
