<svg xmlns="http://www.w3.org/2000/svg" width="1600" height="1000" viewBox="0 0 1600 1000" role="img">
  
  <defs>
    <filter id="softShadow" x="-20%" y="-20%" width="140%" height="150%">
      <feDropShadow dx="0" dy="24" stdDeviation="26" flood-color="#173936" flood-opacity=".18"/>
    </filter>
    <filter id="tightShadow" x="-20%" y="-20%" width="140%" height="150%">
      <feDropShadow dx="0" dy="12" stdDeviation="12" flood-color="#173936" flood-opacity=".18"/>
    </filter>
    <linearGradient id="paperGrad" x1="0" y1="0" x2="1" y2="1">
      <stop offset="0" stop-color="#EAF4F1"/>
      <stop offset=".62" stop-color="#ffffff"/>
      <stop offset="1" stop-color="#EAF4F1"/>
    </linearGradient>
    <linearGradient id="accentGrad" x1="0" y1="0" x2="1" y2="1">
      <stop offset="0" stop-color="#247B78"/>
      <stop offset="1" stop-color="#7EAD73"/>
    </linearGradient>
  </defs>
  
  <rect width="1600" height="1000" fill="#173936"/>
  <rect x="70" y="74" width="1460" height="852" rx="44" fill="url(#paperGrad)"/>
  <text x="126" y="154" font-family="Inter, Arial, sans-serif" font-size="19" font-weight="900" letter-spacing="6" fill="#102322" opacity=".5">APPLICATION SYSTEM</text>
  <g transform="translate(130 250) scale(1.45)"><g>
      <path d="M18 78V23l32 31 32-31v55" fill="none" stroke="#247B78" stroke-width="8.5" stroke-linecap="round" stroke-linejoin="round"/>
      <path d="M50 37v40M38 50h24" stroke="#102322" stroke-width="6.5" stroke-linecap="round"/>
      <path d="M50 78c-10-10-18-13-29-11M50 78c10-10 18-13 29-11" stroke="#7EAD73" stroke-width="5.5" stroke-linecap="round"/>
      <circle cx="50" cy="50" r="24" fill="none" stroke="#ffffff" stroke-width="3" opacity=".55"/></g></g>
  
  <text x="300" y="328" text-anchor="start" font-family="Inter, Arial, sans-serif" font-size="52" font-weight="950" letter-spacing="-.6" fill="#102322">MediRoot</text>
  <text x="300" y="355.04" text-anchor="start" font-family="Inter, Arial, sans-serif" font-size="12" font-weight="800" letter-spacing="5" fill="#102322" opacity=".52">RECOVERY CLINIC IDENTITY</text>
  <text x="130" y="472" font-family="Inter, Arial, sans-serif" font-size="24" font-weight="700" fill="#102322" opacity=".58">Wellness Clinic brand touchpoints</text>
  <rect x="130" y="548" width="390" height="170" rx="26" fill="#ffffff" filter="url(#tightShadow)"/>
  <g transform="translate(168 592) scale(.68)"><g>
      <path d="M18 78V23l32 31 32-31v55" fill="none" stroke="#247B78" stroke-width="8.5" stroke-linecap="round" stroke-linejoin="round"/>
      <path d="M50 37v40M38 50h24" stroke="#102322" stroke-width="6.5" stroke-linecap="round"/>
      <path d="M50 78c-10-10-18-13-29-11M50 78c10-10 18-13 29-11" stroke="#7EAD73" stroke-width="5.5" stroke-linecap="round"/>
      <circle cx="50" cy="50" r="24" fill="none" stroke="#ffffff" stroke-width="3" opacity=".55"/></g></g>
  <text x="270" y="638" font-family="Inter, Arial, sans-serif" font-size="24" font-weight="950" fill="#102322">MediRoot</text>
  <text x="270" y="672" font-family="Inter, Arial, sans-serif" font-size="13" font-weight="800" letter-spacing="3" fill="#102322" opacity=".45">BUSINESS CARD</text>
  
      <rect x="925" y="290" width="410" height="500" rx="28" fill="#ffffff" filter="url(#softShadow)"/>
      <rect x="925" y="290" width="410" height="118" rx="28" fill="#247B78"/>
      <g transform="translate(1083 470) scale(1.15)"><g>
      <path d="M18 78V23l32 31 32-31v55" fill="none" stroke="#247B78" stroke-width="8.5" stroke-linecap="round" stroke-linejoin="round"/>
      <path d="M50 37v40M38 50h24" stroke="#102322" stroke-width="6.5" stroke-linecap="round"/>
      <path d="M50 78c-10-10-18-13-29-11M50 78c10-10 18-13 29-11" stroke="#7EAD73" stroke-width="5.5" stroke-linecap="round"/>
      <circle cx="50" cy="50" r="24" fill="none" stroke="#ffffff" stroke-width="3" opacity=".55"/></g></g>
      <text x="1130" y="675" text-anchor="middle" font-family="Inter, Arial, sans-serif" font-size="32" font-weight="950" fill="#102322">MediRoot</text>
      <rect x="973" y="725" width="312" height="16" rx="8" fill="#7EAD73" opacity=".55"/>
</svg>
