<svg width="1600" height="900" viewBox="0 0 1600 900" fill="none" xmlns="http://www.w3.org/2000/svg">
  
  <defs>
    <linearGradient id="bg" x1="0" y1="0" x2="1600" y2="1000" gradientUnits="userSpaceOnUse">
      <stop stop-color="#1A100C"/>
      <stop offset=".58" stop-color="#21140F"/>
      <stop offset="1" stop-color="#1A100C"/>
    </linearGradient>
    <linearGradient id="paper" x1="0" y1="0" x2="1" y2="1">
      <stop stop-color="#fffaf0"/>
      <stop offset="1" stop-color="#FFF4E4"/>
    </linearGradient>
    <linearGradient id="accent" x1="0" y1="0" x2="1" y2="1">
      <stop stop-color="#C9954A"/>
      <stop offset="1" stop-color="#6B442E"/>
    </linearGradient>
    <filter id="shadow" x="-20%" y="-20%" width="140%" height="150%" color-interpolation-filters="sRGB">
      <feDropShadow dx="0" dy="34" stdDeviation="26" flood-color="#000000" flood-opacity=".34"/>
    </filter>
    <filter id="soft" x="-20%" y="-20%" width="140%" height="150%" color-interpolation-filters="sRGB">
      <feDropShadow dx="0" dy="18" stdDeviation="18" flood-color="#000000" flood-opacity=".20"/>
    </filter>
    <filter id="texture" x="0" y="0" width="100%" height="100%">
      <feTurbulence type="fractalNoise" baseFrequency=".8" numOctaves="2" stitchTiles="stitch"/>
      <feColorMatrix type="saturate" values="0"/>
      <feComponentTransfer><feFuncA type="table" tableValues="0 .045"/></feComponentTransfer>
    </filter>
  </defs>
  
  <rect width="1600" height="900" fill="url(#bg)"/>
  <g opacity=".10"><circle cx="1300" cy="120" r="220" stroke="#C9954A"/><circle cx="1380" cy="760" r="360" stroke="#C9954A"/><path d="M70 118h1460M70 770h1460" stroke="#C9954A"/></g>
  <text x="92" y="116" fill="#C9954A" font-family="Inter, Arial, sans-serif" font-size="18" font-weight="900" letter-spacing="6">F&amp;B CAFE</text>
  <text x="92" y="178" fill="#FFF4E4" font-family="Inter, Arial, sans-serif" font-size="52" font-weight="860">Quiet Roastery Identity</text>
  <text x="92" y="222" fill="#FFF4E4" opacity=".58" font-family="Inter, Arial, sans-serif" font-size="21" font-weight="560">M + bean + cup silhouette / logo, business card, brand kit</text>
  <g filter="url(#shadow)"><g transform="translate(154 328) scale(1.55)"><circle cx="100" cy="100" r="80" fill="#21140F"/><circle cx="100" cy="100" r="74" fill="none" stroke="#C9954A" stroke-width="9"/><path d="M44 129V81c0-22 14-36 34-36 13 0 22 6 28 17 6-11 15-17 28-17 20 0 34 14 34 36v48" stroke="#FFF4E4" stroke-width="25" stroke-linecap="round" stroke-linejoin="round"/><path d="M48 137c25-18 79-18 104 0" stroke="#C9954A" stroke-width="18" stroke-linecap="round"/><path d="M100 66c16 15 16 40 0 55-16-15-16-40 0-55Z" fill="#C9954A"/><path d="M100 72c-4 18-4 30 0 45" stroke="#21140F" stroke-width="4" stroke-linecap="round"/><path d="M57 158c31 14 58 14 86 0" stroke="#FFF4E4" stroke-width="5" stroke-linecap="round"/></g></g>
  <text x="112" y="670" fill="#FFF4E4" font-family="Inter, Arial, sans-serif" font-size="76" font-weight="860" letter-spacing="-2">MORU Coffee</text>
  <text x="116" y="722" fill="#C9954A" font-family="Inter, Arial, sans-serif" font-size="20" font-weight="820" letter-spacing="7">SMALL BATCH ROASTERY</text>
  <g transform="translate(885 212)" filter="url(#shadow)">
    <rect x="0" y="45" width="520" height="292" rx="18" fill="url(#paper)" transform="rotate(-6 0 45)"/>
    <rect x="54" y="276" width="520" height="292" rx="18" fill="#1A100C" transform="rotate(8 54 276)"/>
    <g transform="translate(130 120) rotate(-6)"><g transform="translate(0 0) scale(0.52)"><circle cx="100" cy="100" r="80" fill="#21140F"/><circle cx="100" cy="100" r="74" fill="none" stroke="#C9954A" stroke-width="9"/><path d="M44 129V81c0-22 14-36 34-36 13 0 22 6 28 17 6-11 15-17 28-17 20 0 34 14 34 36v48" stroke="#FFF4E4" stroke-width="25" stroke-linecap="round" stroke-linejoin="round"/><path d="M48 137c25-18 79-18 104 0" stroke="#C9954A" stroke-width="18" stroke-linecap="round"/><path d="M100 66c16 15 16 40 0 55-16-15-16-40 0-55Z" fill="#C9954A"/><path d="M100 72c-4 18-4 30 0 45" stroke="#21140F" stroke-width="4" stroke-linecap="round"/><path d="M57 158c31 14 58 14 86 0" stroke="#FFF4E4" stroke-width="5" stroke-linecap="round"/></g><text x="120" y="60" text-anchor="start" fill="#21140F" font-family="Inter, Montserrat, Arial, sans-serif" font-size="30" font-weight="860" letter-spacing="-1">MORU Coffee</text>
  <text x="120" y="74.4" text-anchor="start" fill="#21140F" opacity=".58" font-family="Inter, Montserrat, Arial, sans-serif" font-size="11" font-weight="820" letter-spacing="4">SMALL BATCH ROASTERY</text></g>
    <g transform="translate(190 362) rotate(8)"><g transform="translate(0 0) scale(0.5)"><circle cx="100" cy="100" r="80" fill="#1A100C"/><circle cx="100" cy="100" r="74" fill="none" stroke="#C9954A" stroke-width="9"/><path d="M44 129V81c0-22 14-36 34-36 13 0 22 6 28 17 6-11 15-17 28-17 20 0 34 14 34 36v48" stroke="#FFF4E4" stroke-width="25" stroke-linecap="round" stroke-linejoin="round"/><path d="M48 137c25-18 79-18 104 0" stroke="#C9954A" stroke-width="18" stroke-linecap="round"/><path d="M100 66c16 15 16 40 0 55-16-15-16-40 0-55Z" fill="#C9954A"/><path d="M100 72c-4 18-4 30 0 45" stroke="#1A100C" stroke-width="4" stroke-linecap="round"/><path d="M57 158c31 14 58 14 86 0" stroke="#FFF4E4" stroke-width="5" stroke-linecap="round"/></g><text x="116" y="58" text-anchor="start" fill="#FFF4E4" font-family="Inter, Montserrat, Arial, sans-serif" font-size="29" font-weight="860" letter-spacing="-1">MORU Coffee</text>
  <text x="116" y="71.92" text-anchor="start" fill="#FFF4E4" opacity=".58" font-family="Inter, Montserrat, Arial, sans-serif" font-size="11" font-weight="820" letter-spacing="4">SMALL BATCH ROASTERY</text></g>
  </g>
  <g transform="translate(92 760)">
    <rect x="0" y="0" width="70" height="34" rx="17" fill="#C9954A"/><rect x="86" y="0" width="70" height="34" rx="17" fill="#6B442E"/><rect x="172" y="0" width="70" height="34" rx="17" fill="#FFF4E4"/>
    <text x="286" y="24" fill="#FFF4E4" opacity=".56" font-family="Inter, Arial, sans-serif" font-size="14" font-weight="800" letter-spacing="4">PRIMARY / ACCENT / PAPER</text>
  </g>
</svg>
