<svg width="1600" height="1000" viewBox="0 0 1600 1000" fill="none" xmlns="http://www.w3.org/2000/svg">
  
  <defs>
    <linearGradient id="bg" x1="0" y1="0" x2="1600" y2="1000" gradientUnits="userSpaceOnUse">
      <stop stop-color="#1A100C"/>
      <stop offset=".58" stop-color="#21140F"/>
      <stop offset="1" stop-color="#1A100C"/>
    </linearGradient>
    <linearGradient id="paper" x1="0" y1="0" x2="1" y2="1">
      <stop stop-color="#fffaf0"/>
      <stop offset="1" stop-color="#FFF4E4"/>
    </linearGradient>
    <linearGradient id="accent" x1="0" y1="0" x2="1" y2="1">
      <stop stop-color="#C9954A"/>
      <stop offset="1" stop-color="#6B442E"/>
    </linearGradient>
    <filter id="shadow" x="-20%" y="-20%" width="140%" height="150%" color-interpolation-filters="sRGB">
      <feDropShadow dx="0" dy="34" stdDeviation="26" flood-color="#000000" flood-opacity=".34"/>
    </filter>
    <filter id="soft" x="-20%" y="-20%" width="140%" height="150%" color-interpolation-filters="sRGB">
      <feDropShadow dx="0" dy="18" stdDeviation="18" flood-color="#000000" flood-opacity=".20"/>
    </filter>
    <filter id="texture" x="0" y="0" width="100%" height="100%">
      <feTurbulence type="fractalNoise" baseFrequency=".8" numOctaves="2" stitchTiles="stitch"/>
      <feColorMatrix type="saturate" values="0"/>
      <feComponentTransfer><feFuncA type="table" tableValues="0 .045"/></feComponentTransfer>
    </filter>
  </defs>
  
  <rect width="1600" height="1000" fill="#FFF4E4"/>
  <rect width="1600" height="1000" fill="#ffffff" filter="url(#texture)" opacity=".42"/>
  <rect x="78" y="72" width="1444" height="856" rx="38" fill="#ffffff" filter="url(#soft)"/>
  <text x="132" y="150" font-family="Inter, Arial, sans-serif" font-size="18" font-weight="950" letter-spacing="6" fill="#C9954A">BRAND GUIDE</text>
  <text x="132" y="220" font-family="Inter, Arial, sans-serif" font-size="50" font-weight="950" fill="#21140F">MORU Coffee</text>
  <text x="132" y="268" font-family="Inter, Arial, sans-serif" font-size="21" font-weight="750" fill="#21140F" opacity=".58">M + bean + cup silhouette / clearspace, scale, and palette rules</text>
  <g transform="translate(180 390) scale(1.8)"><circle cx="100" cy="100" r="80" fill="#21140F"/><circle cx="100" cy="100" r="74" fill="none" stroke="#C9954A" stroke-width="9"/><path d="M44 129V81c0-22 14-36 34-36 13 0 22 6 28 17 6-11 15-17 28-17 20 0 34 14 34 36v48" stroke="#FFF4E4" stroke-width="25" stroke-linecap="round" stroke-linejoin="round"/><path d="M48 137c25-18 79-18 104 0" stroke="#C9954A" stroke-width="18" stroke-linecap="round"/><path d="M100 66c16 15 16 40 0 55-16-15-16-40 0-55Z" fill="#C9954A"/><path d="M100 72c-4 18-4 30 0 45" stroke="#21140F" stroke-width="4" stroke-linecap="round"/><path d="M57 158c31 14 58 14 86 0" stroke="#FFF4E4" stroke-width="5" stroke-linecap="round"/></g><path d="M150 360h260v260H150Z" fill="none" stroke="#C9954A" stroke-width="3" stroke-dasharray="10 12" opacity=".45"/><path d="M180 390h200v200H180Z" fill="none" stroke="#21140F" stroke-width="2" opacity=".12"/><text x="150" y="682" font-family="Inter, Arial, sans-serif" font-size="18" font-weight="900" letter-spacing="3" fill="#21140F" opacity=".45">CLEARSPACE</text>
  <g transform="translate(590 392) scale(1.1)"><circle cx="100" cy="100" r="80" fill="#21140F"/><circle cx="100" cy="100" r="74" fill="none" stroke="#C9954A" stroke-width="9"/><path d="M44 129V81c0-22 14-36 34-36 13 0 22 6 28 17 6-11 15-17 28-17 20 0 34 14 34 36v48" stroke="#FFF4E4" stroke-width="25" stroke-linecap="round" stroke-linejoin="round"/><path d="M48 137c25-18 79-18 104 0" stroke="#C9954A" stroke-width="18" stroke-linecap="round"/><path d="M100 66c16 15 16 40 0 55-16-15-16-40 0-55Z" fill="#C9954A"/><path d="M100 72c-4 18-4 30 0 45" stroke="#21140F" stroke-width="4" stroke-linecap="round"/><path d="M57 158c31 14 58 14 86 0" stroke="#FFF4E4" stroke-width="5" stroke-linecap="round"/></g><g transform="translate(815 420) scale(0.72)"><circle cx="100" cy="100" r="80" fill="#21140F"/><circle cx="100" cy="100" r="74" fill="none" stroke="#C9954A" stroke-width="9"/><path d="M44 129V81c0-22 14-36 34-36 13 0 22 6 28 17 6-11 15-17 28-17 20 0 34 14 34 36v48" stroke="#FFF4E4" stroke-width="25" stroke-linecap="round" stroke-linejoin="round"/><path d="M48 137c25-18 79-18 104 0" stroke="#C9954A" stroke-width="18" stroke-linecap="round"/><path d="M100 66c16 15 16 40 0 55-16-15-16-40 0-55Z" fill="#C9954A"/><path d="M100 72c-4 18-4 30 0 45" stroke="#21140F" stroke-width="4" stroke-linecap="round"/><path d="M57 158c31 14 58 14 86 0" stroke="#FFF4E4" stroke-width="5" stroke-linecap="round"/></g><g transform="translate(985 448) scale(0.45)"><circle cx="100" cy="100" r="80" fill="#21140F"/><circle cx="100" cy="100" r="74" fill="none" stroke="#C9954A" stroke-width="9"/><path d="M44 129V81c0-22 14-36 34-36 13 0 22 6 28 17 6-11 15-17 28-17 20 0 34 14 34 36v48" stroke="#FFF4E4" stroke-width="25" stroke-linecap="round" stroke-linejoin="round"/><path d="M48 137c25-18 79-18 104 0" stroke="#C9954A" stroke-width="18" stroke-linecap="round"/><path d="M100 66c16 15 16 40 0 55-16-15-16-40 0-55Z" fill="#C9954A"/><path d="M100 72c-4 18-4 30 0 45" stroke="#21140F" stroke-width="4" stroke-linecap="round"/><path d="M57 158c31 14 58 14 86 0" stroke="#FFF4E4" stroke-width="5" stroke-linecap="round"/></g><path d="M570 620h548" stroke="#21140F" stroke-width="2" opacity=".12"/><text x="570" y="682" font-family="Inter, Arial, sans-serif" font-size="18" font-weight="900" letter-spacing="3" fill="#21140F" opacity=".45">SCALE TEST</text>
  <rect x="1190" y="380" width="120" height="120" rx="26" fill="#C9954A"/><rect x="1340" y="380" width="120" height="120" rx="26" fill="#6B442E"/><rect x="1190" y="535" width="120" height="120" rx="26" fill="#21140F"/><rect x="1340" y="535" width="120" height="120" rx="26" fill="#FFF4E4" stroke="#21140F" stroke-width="2" opacity=".9"/><text x="1190" y="710" font-family="Inter, Arial, sans-serif" font-size="18" font-weight="900" letter-spacing="3" fill="#21140F" opacity=".45">PALETTE</text>
</svg>
