<svg xmlns="http://www.w3.org/2000/svg" width="1600" height="1000" viewBox="0 0 1600 1000" role="img">
  
  <defs>
    <filter id="softShadow" x="-20%" y="-20%" width="140%" height="150%">
      <feDropShadow dx="0" dy="24" stdDeviation="26" flood-color="#2B1A13" flood-opacity=".18"/>
    </filter>
    <filter id="tightShadow" x="-20%" y="-20%" width="140%" height="150%">
      <feDropShadow dx="0" dy="12" stdDeviation="12" flood-color="#2B1A13" flood-opacity=".18"/>
    </filter>
    <linearGradient id="paperGrad" x1="0" y1="0" x2="1" y2="1">
      <stop offset="0" stop-color="#F5EFE6"/>
      <stop offset=".62" stop-color="#ffffff"/>
      <stop offset="1" stop-color="#F5EFE6"/>
    </linearGradient>
    <linearGradient id="accentGrad" x1="0" y1="0" x2="1" y2="1">
      <stop offset="0" stop-color="#7A4E2E"/>
      <stop offset="1" stop-color="#C99B6A"/>
    </linearGradient>
  </defs>
  
  <rect width="1600" height="1000" fill="#2B1A13"/>
  <rect x="70" y="74" width="1460" height="852" rx="44" fill="url(#paperGrad)"/>
  <text x="126" y="154" font-family="Inter, Arial, sans-serif" font-size="19" font-weight="900" letter-spacing="6" fill="#211712" opacity=".5">APPLICATION SYSTEM</text>
  <g transform="translate(130 250) scale(1.45)"><g>
      <circle cx="50" cy="50" r="42" fill="#7A4E2E"/>
      <path d="M28 52c6-28 39-36 48-8 7 23-16 43-36 30-9-6-14-14-12-22Z" fill="#C99B6A"/>
      <path d="M42 27c16 16 17 41-3 56" fill="none" stroke="#211712" stroke-width="6.5" stroke-linecap="round"/>
      <path d="M26 58h48" stroke="#ffffff" stroke-width="5" stroke-linecap="round" opacity=".92"/>
      <path d="M36 39c9-7 18-7 27 0" fill="none" stroke="#ffffff" stroke-width="4" stroke-linecap="round" opacity=".9"/></g></g>
  
  <text x="300" y="328" text-anchor="start" font-family="Inter, Arial, sans-serif" font-size="52" font-weight="950" letter-spacing="-.6" fill="#211712">MORU Coffee</text>
  <text x="300" y="355.04" text-anchor="start" font-family="Inter, Arial, sans-serif" font-size="12" font-weight="800" letter-spacing="5" fill="#211712" opacity=".52">ROASTERY IDENTITY</text>
  <text x="130" y="472" font-family="Inter, Arial, sans-serif" font-size="24" font-weight="700" fill="#211712" opacity=".58">F&amp;B Cafe brand touchpoints</text>
  <rect x="130" y="548" width="390" height="170" rx="26" fill="#ffffff" filter="url(#tightShadow)"/>
  <g transform="translate(168 592) scale(.68)"><g>
      <circle cx="50" cy="50" r="42" fill="#7A4E2E"/>
      <path d="M28 52c6-28 39-36 48-8 7 23-16 43-36 30-9-6-14-14-12-22Z" fill="#C99B6A"/>
      <path d="M42 27c16 16 17 41-3 56" fill="none" stroke="#211712" stroke-width="6.5" stroke-linecap="round"/>
      <path d="M26 58h48" stroke="#ffffff" stroke-width="5" stroke-linecap="round" opacity=".92"/>
      <path d="M36 39c9-7 18-7 27 0" fill="none" stroke="#ffffff" stroke-width="4" stroke-linecap="round" opacity=".9"/></g></g>
  <text x="270" y="638" font-family="Inter, Arial, sans-serif" font-size="24" font-weight="950" fill="#211712">MORU Coffee</text>
  <text x="270" y="672" font-family="Inter, Arial, sans-serif" font-size="13" font-weight="800" letter-spacing="3" fill="#211712" opacity=".45">BUSINESS CARD</text>
  
      <rect x="895" y="230" width="410" height="540" rx="28" fill="#ffffff" filter="url(#softShadow)"/>
      <rect x="945" y="300" width="310" height="300" rx="150" fill="#7A4E2E" opacity=".16"/>
      <g transform="translate(1049 380) scale(1.35)"><g>
      <circle cx="50" cy="50" r="42" fill="#7A4E2E"/>
      <path d="M28 52c6-28 39-36 48-8 7 23-16 43-36 30-9-6-14-14-12-22Z" fill="#C99B6A"/>
      <path d="M42 27c16 16 17 41-3 56" fill="none" stroke="#211712" stroke-width="6.5" stroke-linecap="round"/>
      <path d="M26 58h48" stroke="#ffffff" stroke-width="5" stroke-linecap="round" opacity=".92"/>
      <path d="M36 39c9-7 18-7 27 0" fill="none" stroke="#ffffff" stroke-width="4" stroke-linecap="round" opacity=".9"/></g></g>
      <rect x="929" y="656" width="342" height="72" rx="18" fill="#2B1A13"/>
      <text x="1100" y="702" text-anchor="middle" font-family="Inter, Arial, sans-serif" font-size="20" font-weight="900" fill="#ffffff">MORU Coffee</text>
      <path d="M1315 422c75 20 75 132 0 152" fill="none" stroke="#2B1A13" stroke-width="34" stroke-linecap="round" opacity=".28"/>
</svg>
