<svg width="1600" height="1000" viewBox="0 0 1600 1000" fill="none" xmlns="http://www.w3.org/2000/svg">
  
  <defs>
    <linearGradient id="bg" x1="0" y1="0" x2="1600" y2="1000" gradientUnits="userSpaceOnUse">
      <stop stop-color="#1A100C"/>
      <stop offset=".58" stop-color="#21140F"/>
      <stop offset="1" stop-color="#1A100C"/>
    </linearGradient>
    <linearGradient id="paper" x1="0" y1="0" x2="1" y2="1">
      <stop stop-color="#fffaf0"/>
      <stop offset="1" stop-color="#FFF4E4"/>
    </linearGradient>
    <linearGradient id="accent" x1="0" y1="0" x2="1" y2="1">
      <stop stop-color="#C9954A"/>
      <stop offset="1" stop-color="#6B442E"/>
    </linearGradient>
    <filter id="shadow" x="-20%" y="-20%" width="140%" height="150%" color-interpolation-filters="sRGB">
      <feDropShadow dx="0" dy="34" stdDeviation="26" flood-color="#000000" flood-opacity=".34"/>
    </filter>
    <filter id="soft" x="-20%" y="-20%" width="140%" height="150%" color-interpolation-filters="sRGB">
      <feDropShadow dx="0" dy="18" stdDeviation="18" flood-color="#000000" flood-opacity=".20"/>
    </filter>
    <filter id="texture" x="0" y="0" width="100%" height="100%">
      <feTurbulence type="fractalNoise" baseFrequency=".8" numOctaves="2" stitchTiles="stitch"/>
      <feColorMatrix type="saturate" values="0"/>
      <feComponentTransfer><feFuncA type="table" tableValues="0 .045"/></feComponentTransfer>
    </filter>
  </defs>
  
  <rect width="1600" height="1000" fill="#F4F1EC"/>
  <rect x="82" y="92" width="686" height="816" rx="36" fill="#1A100C" filter="url(#shadow)"/>
  <rect x="832" y="92" width="686" height="816" rx="36" fill="#ffffff" filter="url(#shadow)"/>
  <text x="132" y="166" font-family="Inter, Arial, sans-serif" font-size="18" font-weight="950" letter-spacing="6" fill="#ffffff" opacity=".48">REVERSE</text>
  <g transform="translate(275 245) scale(1.88)"><circle cx="100" cy="100" r="80" fill="#1A100C"/><circle cx="100" cy="100" r="74" fill="none" stroke="#C9954A" stroke-width="9"/><path d="M44 129V81c0-22 14-36 34-36 13 0 22 6 28 17 6-11 15-17 28-17 20 0 34 14 34 36v48" stroke="#FFF4E4" stroke-width="25" stroke-linecap="round" stroke-linejoin="round"/><path d="M48 137c25-18 79-18 104 0" stroke="#C9954A" stroke-width="18" stroke-linecap="round"/><path d="M100 66c16 15 16 40 0 55-16-15-16-40 0-55Z" fill="#C9954A"/><path d="M100 72c-4 18-4 30 0 45" stroke="#1A100C" stroke-width="4" stroke-linecap="round"/><path d="M57 158c31 14 58 14 86 0" stroke="#FFF4E4" stroke-width="5" stroke-linecap="round"/></g>
  <text x="425" y="690" text-anchor="middle" fill="#ffffff" font-family="Inter, Montserrat, Arial, sans-serif" font-size="46" font-weight="860" letter-spacing="-1">MORU Coffee</text>
  <text x="425" y="712.08" text-anchor="middle" fill="#ffffff" opacity=".58" font-family="Inter, Montserrat, Arial, sans-serif" font-size="11" font-weight="820" letter-spacing="4">SMALL BATCH ROASTERY</text>
  <text x="425" y="815" text-anchor="middle" font-family="Inter, Arial, sans-serif" font-size="18" font-weight="850" letter-spacing="5" fill="#ffffff" opacity=".42">DARK BACKGROUND</text>
  <text x="882" y="166" font-family="Inter, Arial, sans-serif" font-size="18" font-weight="950" letter-spacing="6" fill="#21140F" opacity=".42">MONO</text>
  <g transform="translate(1025 245) scale(1.88)"><circle cx="100" cy="100" r="80" fill="#21140F"/><circle cx="100" cy="100" r="74" fill="none" stroke="#21140F" stroke-width="9"/><path d="M44 129V81c0-22 14-36 34-36 13 0 22 6 28 17 6-11 15-17 28-17 20 0 34 14 34 36v48" stroke="#FFF4E4" stroke-width="25" stroke-linecap="round" stroke-linejoin="round"/><path d="M48 137c25-18 79-18 104 0" stroke="#21140F" stroke-width="18" stroke-linecap="round"/><path d="M100 66c16 15 16 40 0 55-16-15-16-40 0-55Z" fill="#21140F"/><path d="M100 72c-4 18-4 30 0 45" stroke="#21140F" stroke-width="4" stroke-linecap="round"/><path d="M57 158c31 14 58 14 86 0" stroke="#FFF4E4" stroke-width="5" stroke-linecap="round"/></g>
  <text x="1175" y="690" text-anchor="middle" fill="#21140F" font-family="Inter, Montserrat, Arial, sans-serif" font-size="46" font-weight="860" letter-spacing="-1">MORU Coffee</text>
  <text x="1175" y="712.08" text-anchor="middle" fill="#21140F" opacity=".58" font-family="Inter, Montserrat, Arial, sans-serif" font-size="11" font-weight="820" letter-spacing="4">SMALL BATCH ROASTERY</text>
  <text x="1175" y="815" text-anchor="middle" font-family="Inter, Arial, sans-serif" font-size="18" font-weight="850" letter-spacing="5" fill="#21140F" opacity=".42">ONE-COLOR VERSION</text>
</svg>
