<svg width="1600" height="900" viewBox="0 0 1600 900" fill="none" xmlns="http://www.w3.org/2000/svg">
  
  <defs>
    <linearGradient id="bg" x1="0" y1="0" x2="1600" y2="1000" gradientUnits="userSpaceOnUse">
      <stop stop-color="#121A2B"/>
      <stop offset=".58" stop-color="#101827"/>
      <stop offset="1" stop-color="#121A2B"/>
    </linearGradient>
    <linearGradient id="paper" x1="0" y1="0" x2="1" y2="1">
      <stop stop-color="#fffaf0"/>
      <stop offset="1" stop-color="#EAF1FF"/>
    </linearGradient>
    <linearGradient id="accent" x1="0" y1="0" x2="1" y2="1">
      <stop stop-color="#2563EB"/>
      <stop offset="1" stop-color="#22C55E"/>
    </linearGradient>
    <filter id="shadow" x="-20%" y="-20%" width="140%" height="150%" color-interpolation-filters="sRGB">
      <feDropShadow dx="0" dy="34" stdDeviation="26" flood-color="#000000" flood-opacity=".34"/>
    </filter>
    <filter id="soft" x="-20%" y="-20%" width="140%" height="150%" color-interpolation-filters="sRGB">
      <feDropShadow dx="0" dy="18" stdDeviation="18" flood-color="#000000" flood-opacity=".20"/>
    </filter>
    <filter id="texture" x="0" y="0" width="100%" height="100%">
      <feTurbulence type="fractalNoise" baseFrequency=".8" numOctaves="2" stitchTiles="stitch"/>
      <feColorMatrix type="saturate" values="0"/>
      <feComponentTransfer><feFuncA type="table" tableValues="0 .045"/></feComponentTransfer>
    </filter>
  </defs>
  
  <rect width="1600" height="900" fill="url(#bg)"/>
  <g opacity=".10"><circle cx="1300" cy="120" r="220" stroke="#2563EB"/><circle cx="1380" cy="760" r="360" stroke="#2563EB"/><path d="M70 118h1460M70 770h1460" stroke="#2563EB"/></g>
  <text x="92" y="116" fill="#2563EB" font-family="Inter, Arial, sans-serif" font-size="18" font-weight="900" letter-spacing="6">WORKFLOW SAAS</text>
  <text x="92" y="178" fill="#EAF1FF" font-family="Inter, Arial, sans-serif" font-size="52" font-weight="860">Modular Workflow System</text>
  <text x="92" y="222" fill="#EAF1FF" opacity=".58" font-family="Inter, Arial, sans-serif" font-size="21" font-weight="560">stack layers + flow arrow / logo, business card, brand kit</text>
  <g filter="url(#shadow)"><g transform="translate(154 328) scale(1.55)"><rect x="32" y="44" width="95" height="34" rx="11" fill="#2563EB"/><rect x="53" y="84" width="95" height="34" rx="11" fill="#22C55E"/><rect x="74" y="124" width="95" height="34" rx="11" fill="#2563EB"/><path d="M128 58 166 100 128 142" fill="none" stroke="#101827" stroke-width="13" stroke-linecap="round" stroke-linejoin="round"/><path d="M50 62h61M71 102h61M92 142h61" stroke="#FFF4E4" stroke-width="6" stroke-linecap="round" opacity=".65"/></g></g>
  <text x="112" y="670" fill="#EAF1FF" font-family="Inter, Arial, sans-serif" font-size="76" font-weight="860" letter-spacing="-2">Flowstack</text>
  <text x="116" y="722" fill="#2563EB" font-family="Inter, Arial, sans-serif" font-size="20" font-weight="820" letter-spacing="7">AUTOMATION SYSTEM</text>
  <g transform="translate(885 212)" filter="url(#shadow)">
    <rect x="0" y="45" width="520" height="292" rx="18" fill="url(#paper)" transform="rotate(-6 0 45)"/>
    <rect x="54" y="276" width="520" height="292" rx="18" fill="#121A2B" transform="rotate(8 54 276)"/>
    <g transform="translate(130 120) rotate(-6)"><g transform="translate(0 0) scale(0.52)"><rect x="32" y="44" width="95" height="34" rx="11" fill="#2563EB"/><rect x="53" y="84" width="95" height="34" rx="11" fill="#22C55E"/><rect x="74" y="124" width="95" height="34" rx="11" fill="#2563EB"/><path d="M128 58 166 100 128 142" fill="none" stroke="#101827" stroke-width="13" stroke-linecap="round" stroke-linejoin="round"/><path d="M50 62h61M71 102h61M92 142h61" stroke="#FFF4E4" stroke-width="6" stroke-linecap="round" opacity=".65"/></g><text x="120" y="60" text-anchor="start" fill="#101827" font-family="Inter, Montserrat, Arial, sans-serif" font-size="30" font-weight="860" letter-spacing="-1">Flowstack</text>
  <text x="120" y="74.4" text-anchor="start" fill="#101827" opacity=".58" font-family="Inter, Montserrat, Arial, sans-serif" font-size="11" font-weight="820" letter-spacing="4">AUTOMATION SYSTEM</text></g>
    <g transform="translate(190 362) rotate(8)"><g transform="translate(0 0) scale(0.5)"><rect x="32" y="44" width="95" height="34" rx="11" fill="#2563EB"/><rect x="53" y="84" width="95" height="34" rx="11" fill="#22C55E"/><rect x="74" y="124" width="95" height="34" rx="11" fill="#2563EB"/><path d="M128 58 166 100 128 142" fill="none" stroke="#121A2B" stroke-width="13" stroke-linecap="round" stroke-linejoin="round"/><path d="M50 62h61M71 102h61M92 142h61" stroke="#EAF1FF" stroke-width="6" stroke-linecap="round" opacity=".65"/></g><text x="116" y="58" text-anchor="start" fill="#EAF1FF" font-family="Inter, Montserrat, Arial, sans-serif" font-size="29" font-weight="860" letter-spacing="-1">Flowstack</text>
  <text x="116" y="71.92" text-anchor="start" fill="#EAF1FF" opacity=".58" font-family="Inter, Montserrat, Arial, sans-serif" font-size="11" font-weight="820" letter-spacing="4">AUTOMATION SYSTEM</text></g>
  </g>
  <g transform="translate(92 760)">
    <rect x="0" y="0" width="70" height="34" rx="17" fill="#2563EB"/><rect x="86" y="0" width="70" height="34" rx="17" fill="#22C55E"/><rect x="172" y="0" width="70" height="34" rx="17" fill="#EAF1FF"/>
    <text x="286" y="24" fill="#EAF1FF" opacity=".56" font-family="Inter, Arial, sans-serif" font-size="14" font-weight="800" letter-spacing="4">PRIMARY / ACCENT / PAPER</text>
  </g>
</svg>
