<svg xmlns="http://www.w3.org/2000/svg" width="1600" height="1000" viewBox="0 0 1600 1000" role="img">
  
  <defs>
    <filter id="softShadow" x="-20%" y="-20%" width="140%" height="150%">
      <feDropShadow dx="0" dy="24" stdDeviation="26" flood-color="#17233A" flood-opacity=".18"/>
    </filter>
    <filter id="tightShadow" x="-20%" y="-20%" width="140%" height="150%">
      <feDropShadow dx="0" dy="12" stdDeviation="12" flood-color="#17233A" flood-opacity=".18"/>
    </filter>
    <linearGradient id="paperGrad" x1="0" y1="0" x2="1" y2="1">
      <stop offset="0" stop-color="#EAF1FF"/>
      <stop offset=".62" stop-color="#ffffff"/>
      <stop offset="1" stop-color="#EAF1FF"/>
    </linearGradient>
    <linearGradient id="accentGrad" x1="0" y1="0" x2="1" y2="1">
      <stop offset="0" stop-color="#2563EB"/>
      <stop offset="1" stop-color="#22C55E"/>
    </linearGradient>
  </defs>
  
  <rect width="1600" height="1000" fill="#17233A"/>
  <rect x="70" y="74" width="1460" height="852" rx="44" fill="url(#paperGrad)"/>
  <text x="126" y="154" font-family="Inter, Arial, sans-serif" font-size="19" font-weight="900" letter-spacing="6" fill="#101827" opacity=".5">APPLICATION SYSTEM</text>
  <g transform="translate(130 250) scale(1.45)"><g>
      <rect x="17" y="22" width="48" height="17" rx="6" fill="#2563EB"/>
      <rect x="27" y="43" width="48" height="17" rx="6" fill="#22C55E"/>
      <rect x="37" y="64" width="48" height="17" rx="6" fill="#2563EB"/>
      <path d="M66 29 84 50 66 71" fill="none" stroke="#101827" stroke-width="6.5" stroke-linecap="round" stroke-linejoin="round"/>
      <path d="M26 31h31M36 52h31M46 73h31" stroke="#ffffff" stroke-width="3" stroke-linecap="round" opacity=".65"/></g></g>
  
  <text x="300" y="328" text-anchor="start" font-family="Inter, Arial, sans-serif" font-size="52" font-weight="950" letter-spacing="-.6" fill="#101827">Flowstack</text>
  <text x="300" y="355.04" text-anchor="start" font-family="Inter, Arial, sans-serif" font-size="12" font-weight="800" letter-spacing="5" fill="#101827" opacity=".52">AUTOMATION SYSTEM IDENTITY</text>
  <text x="130" y="472" font-family="Inter, Arial, sans-serif" font-size="24" font-weight="700" fill="#101827" opacity=".58">Workflow SaaS brand touchpoints</text>
  <rect x="130" y="548" width="390" height="170" rx="26" fill="#ffffff" filter="url(#tightShadow)"/>
  <g transform="translate(168 592) scale(.68)"><g>
      <rect x="17" y="22" width="48" height="17" rx="6" fill="#2563EB"/>
      <rect x="27" y="43" width="48" height="17" rx="6" fill="#22C55E"/>
      <rect x="37" y="64" width="48" height="17" rx="6" fill="#2563EB"/>
      <path d="M66 29 84 50 66 71" fill="none" stroke="#101827" stroke-width="6.5" stroke-linecap="round" stroke-linejoin="round"/>
      <path d="M26 31h31M36 52h31M46 73h31" stroke="#ffffff" stroke-width="3" stroke-linecap="round" opacity=".65"/></g></g>
  <text x="270" y="638" font-family="Inter, Arial, sans-serif" font-size="24" font-weight="950" fill="#101827">Flowstack</text>
  <text x="270" y="672" font-family="Inter, Arial, sans-serif" font-size="13" font-weight="800" letter-spacing="3" fill="#101827" opacity=".45">BUSINESS CARD</text>
  
      <rect x="905" y="270" width="450" height="480" rx="32" fill="#ffffff" filter="url(#softShadow)"/>
      <g transform="translate(965 348) scale(.94)"><g>
      <rect x="17" y="22" width="48" height="17" rx="6" fill="#2563EB"/>
      <rect x="27" y="43" width="48" height="17" rx="6" fill="#22C55E"/>
      <rect x="37" y="64" width="48" height="17" rx="6" fill="#2563EB"/>
      <path d="M66 29 84 50 66 71" fill="none" stroke="#101827" stroke-width="6.5" stroke-linecap="round" stroke-linejoin="round"/>
      <path d="M26 31h31M36 52h31M46 73h31" stroke="#ffffff" stroke-width="3" stroke-linecap="round" opacity=".65"/></g></g>
      <rect x="983" y="545" width="210" height="64" rx="18" fill="#2563EB" opacity=".86"/><rect x="1065" y="580" width="210" height="64" rx="18" fill="#22C55E" opacity=".86"/><rect x="1147" y="615" width="210" height="64" rx="18" fill="#2563EB" opacity=".86"/>
      <text x="1133" y="705" text-anchor="middle" font-family="Inter, Arial, sans-serif" font-size="29" font-weight="950" fill="#101827">Flowstack</text>
</svg>
