<svg width="1600" height="1000" viewBox="0 0 1600 1000" fill="none" xmlns="http://www.w3.org/2000/svg">
  
  <defs>
    <linearGradient id="bg" x1="0" y1="0" x2="1600" y2="1000" gradientUnits="userSpaceOnUse">
      <stop stop-color="#20272A"/>
      <stop offset=".58" stop-color="#171B1D"/>
      <stop offset="1" stop-color="#20272A"/>
    </linearGradient>
    <linearGradient id="paper" x1="0" y1="0" x2="1" y2="1">
      <stop stop-color="#fffaf0"/>
      <stop offset="1" stop-color="#FFF1E8"/>
    </linearGradient>
    <linearGradient id="accent" x1="0" y1="0" x2="1" y2="1">
      <stop stop-color="#F05A2A"/>
      <stop offset="1" stop-color="#20B8AB"/>
    </linearGradient>
    <filter id="shadow" x="-20%" y="-20%" width="140%" height="150%" color-interpolation-filters="sRGB">
      <feDropShadow dx="0" dy="34" stdDeviation="26" flood-color="#000000" flood-opacity=".34"/>
    </filter>
    <filter id="soft" x="-20%" y="-20%" width="140%" height="150%" color-interpolation-filters="sRGB">
      <feDropShadow dx="0" dy="18" stdDeviation="18" flood-color="#000000" flood-opacity=".20"/>
    </filter>
    <filter id="texture" x="0" y="0" width="100%" height="100%">
      <feTurbulence type="fractalNoise" baseFrequency=".8" numOctaves="2" stitchTiles="stitch"/>
      <feColorMatrix type="saturate" values="0"/>
      <feComponentTransfer><feFuncA type="table" tableValues="0 .045"/></feComponentTransfer>
    </filter>
  </defs>
  
  <rect width="1600" height="1000" fill="#20272A"/>
  <rect x="70" y="64" width="1460" height="872" rx="42" fill="#FFF1E8"/>
  <rect x="70" y="64" width="1460" height="872" rx="42" fill="#ffffff" filter="url(#texture)" opacity=".44"/>
  <text x="130" y="138" font-family="Inter, Arial, sans-serif" font-size="18" font-weight="950" letter-spacing="6" fill="#F05A2A">BRAND KIT DELIVERABLES</text>
  <text x="130" y="212" font-family="Inter, Arial, sans-serif" font-size="58" font-weight="950" fill="#171B1D">HaruFit</text>
  <text x="130" y="262" font-family="Inter, Arial, sans-serif" font-size="22" font-weight="760" fill="#171B1D" opacity=".62">Logo, business card, social profile, application board, and editable source package.</text>
  <g transform="translate(128 340)">
    <rect width="395" height="250" rx="26" fill="#ffffff" filter="url(#soft)"/><text x="34" y="54" font-family="Inter, Arial, sans-serif" font-size="15" font-weight="950" letter-spacing="4" fill="#171B1D" opacity=".42">PRIMARY LOGO</text>
    <g transform="translate(34 102) scale(0.62)"><rect x="34" y="34" width="132" height="132" rx="42" fill="#F05A2A"/><path d="M64 112 89 137 142 66" fill="none" stroke="#FFF4E4" stroke-width="17" stroke-linecap="round" stroke-linejoin="round"/><path d="M62 72h36m30 0h14M98 72v50" stroke="#20B8AB" stroke-width="12" stroke-linecap="round"/><path d="M57 155h88" stroke="#171B1D" stroke-width="7" stroke-linecap="round" opacity=".35"/></g><text x="176.6" y="166.48000000000002" text-anchor="start" fill="#171B1D" font-family="Inter, Montserrat, Arial, sans-serif" font-size="28" font-weight="860" letter-spacing="-1">HaruFit</text>
  <text x="176.6" y="179.92000000000002" text-anchor="start" fill="#171B1D" opacity=".58" font-family="Inter, Montserrat, Arial, sans-serif" font-size="11" font-weight="820" letter-spacing="4">FITNESS ROUTINE</text><path d="M34 198h315" stroke="#171B1D" stroke-width="2" opacity=".08"/><text x="34" y="226" font-family="Inter, Arial, sans-serif" font-size="16" font-weight="800" fill="#171B1D" opacity=".56">Horizontal / symbol / mono versions</text>
  </g>
  <g transform="translate(558 340)">
    <rect width="395" height="250" rx="26" fill="#ffffff" filter="url(#soft)"/><rect x="38" y="58" width="318" height="142" rx="13" fill="url(#paper)" filter="url(#soft)" transform="rotate(-4 197 129)"/>
    <g transform="translate(78 105) rotate(-4)"><g transform="translate(0 0) scale(0.42)"><rect x="34" y="34" width="132" height="132" rx="42" fill="#F05A2A"/><path d="M64 112 89 137 142 66" fill="none" stroke="#FFF4E4" stroke-width="17" stroke-linecap="round" stroke-linejoin="round"/><path d="M62 72h36m30 0h14M98 72v50" stroke="#20B8AB" stroke-width="12" stroke-linecap="round"/><path d="M57 155h88" stroke="#171B1D" stroke-width="7" stroke-linecap="round" opacity=".35"/></g><text x="98" y="49" text-anchor="start" fill="#171B1D" font-family="Inter, Montserrat, Arial, sans-serif" font-size="23" font-weight="860" letter-spacing="-1">HaruFit</text>
  <text x="98" y="60.04" text-anchor="start" fill="#171B1D" opacity=".58" font-family="Inter, Montserrat, Arial, sans-serif" font-size="11" font-weight="820" letter-spacing="4">FITNESS ROUTINE</text></g><text x="38" y="226" font-family="Inter, Arial, sans-serif" font-size="16" font-weight="800" fill="#171B1D" opacity=".56">Business card front design</text>
  </g>
  <g transform="translate(988 340)">
    <rect width="395" height="250" rx="26" fill="#ffffff" filter="url(#soft)"/><rect x="38" y="54" width="132" height="132" rx="34" fill="#20272A" filter="url(#soft)"/>
    <g transform="translate(54 70) scale(0.5)"><rect x="34" y="34" width="132" height="132" rx="42" fill="#F05A2A"/><path d="M64 112 89 137 142 66" fill="none" stroke="#FFF1E8" stroke-width="17" stroke-linecap="round" stroke-linejoin="round"/><path d="M62 72h36m30 0h14M98 72v50" stroke="#20B8AB" stroke-width="12" stroke-linecap="round"/><path d="M57 155h88" stroke="#20272A" stroke-width="7" stroke-linecap="round" opacity=".35"/></g><rect x="204" y="58" width="118" height="118" rx="28" fill="#F05A2A"/><g transform="translate(213 67) scale(0.5)"><rect x="34" y="34" width="132" height="132" rx="42" fill="#F05A2A"/><path d="M64 112 89 137 142 66" fill="none" stroke="#FFF4E4" stroke-width="17" stroke-linecap="round" stroke-linejoin="round"/><path d="M62 72h36m30 0h14M98 72v50" stroke="#20B8AB" stroke-width="12" stroke-linecap="round"/><path d="M57 155h88" stroke="#171B1D" stroke-width="7" stroke-linecap="round" opacity=".35"/></g>
    <text x="38" y="226" font-family="Inter, Arial, sans-serif" font-size="16" font-weight="800" fill="#171B1D" opacity=".56">SNS profile icon set</text>
  </g>
  <g transform="translate(128 638)">
    <rect width="395" height="188" rx="26" fill="#20272A" filter="url(#soft)"/><g transform="translate(42 48) scale(0.52)"><rect x="34" y="34" width="132" height="132" rx="42" fill="#F05A2A"/><path d="M64 112 89 137 142 66" fill="none" stroke="#FFF1E8" stroke-width="17" stroke-linecap="round" stroke-linejoin="round"/><path d="M62 72h36m30 0h14M98 72v50" stroke="#20B8AB" stroke-width="12" stroke-linecap="round"/><path d="M57 155h88" stroke="#20272A" stroke-width="7" stroke-linecap="round" opacity=".35"/></g><text x="164" y="94" text-anchor="start" fill="#FFF1E8" font-family="Inter, Montserrat, Arial, sans-serif" font-size="27" font-weight="860" letter-spacing="-1">HaruFit</text>
  <text x="164" y="106.96" text-anchor="start" fill="#FFF1E8" opacity=".58" font-family="Inter, Montserrat, Arial, sans-serif" font-size="11" font-weight="820" letter-spacing="4">FITNESS ROUTINE</text><text x="34" y="154" font-family="Inter, Arial, sans-serif" font-size="15" font-weight="850" letter-spacing="3" fill="#FFF1E8" opacity=".42">SIGN / PACKAGE MOCKUP</text>
  </g>
  <g transform="translate(558 638)">
    <rect width="395" height="188" rx="26" fill="#ffffff" filter="url(#soft)"/><text x="34" y="52" font-family="Inter, Arial, sans-serif" font-size="15" font-weight="950" letter-spacing="4" fill="#171B1D" opacity=".42">SOURCE PACKAGE</text>
    <text x="36" y="112" font-family="Inter, Arial, sans-serif" font-size="30" font-weight="950" fill="#171B1D">AI</text><text x="112" y="112" font-family="Inter, Arial, sans-serif" font-size="30" font-weight="950" fill="#171B1D">SVG</text><text x="218" y="112" font-family="Inter, Arial, sans-serif" font-size="30" font-weight="950" fill="#171B1D">PNG</text><text x="320" y="112" font-family="Inter, Arial, sans-serif" font-size="30" font-weight="950" fill="#171B1D">PDF</text><path d="M34 136h324" stroke="#171B1D" stroke-width="2" opacity=".08"/><text x="34" y="166" font-family="Inter, Arial, sans-serif" font-size="15" font-weight="800" fill="#171B1D" opacity=".56">Editable and delivery-ready file set</text>
  </g>
  <g transform="translate(988 638)">
    <rect width="395" height="188" rx="26" fill="#ffffff" filter="url(#soft)"/><text x="34" y="52" font-family="Inter, Arial, sans-serif" font-size="15" font-weight="950" letter-spacing="4" fill="#171B1D" opacity=".42">MINI GUIDE</text>
    <rect x="36" y="82" width="64" height="64" rx="16" fill="#F05A2A"/><rect x="118" y="82" width="64" height="64" rx="16" fill="#20B8AB"/><rect x="200" y="82" width="64" height="64" rx="16" fill="#171B1D"/><path d="M304 84h50M304 108h34M304 132h62" stroke="#171B1D" stroke-width="8" stroke-linecap="round" opacity=".18"/><text x="34" y="166" font-family="Inter, Arial, sans-serif" font-size="15" font-weight="800" fill="#171B1D" opacity=".56">Color, spacing, and usage notes</text>
  </g>
</svg>
