<svg xmlns="http://www.w3.org/2000/svg" width="1600" height="1000" viewBox="0 0 1600 1000" role="img">
  
  <defs>
    <filter id="softShadow" x="-20%" y="-20%" width="140%" height="150%">
      <feDropShadow dx="0" dy="24" stdDeviation="26" flood-color="#263238" flood-opacity=".18"/>
    </filter>
    <filter id="tightShadow" x="-20%" y="-20%" width="140%" height="150%">
      <feDropShadow dx="0" dy="12" stdDeviation="12" flood-color="#263238" flood-opacity=".18"/>
    </filter>
    <linearGradient id="paperGrad" x1="0" y1="0" x2="1" y2="1">
      <stop offset="0" stop-color="#FFF1E8"/>
      <stop offset=".62" stop-color="#ffffff"/>
      <stop offset="1" stop-color="#FFF1E8"/>
    </linearGradient>
    <linearGradient id="accentGrad" x1="0" y1="0" x2="1" y2="1">
      <stop offset="0" stop-color="#F05A2A"/>
      <stop offset="1" stop-color="#20B8AB"/>
    </linearGradient>
  </defs>
  
  <rect width="1600" height="1000" fill="#263238"/>
  <rect x="70" y="74" width="1460" height="852" rx="44" fill="url(#paperGrad)"/>
  <text x="126" y="154" font-family="Inter, Arial, sans-serif" font-size="19" font-weight="900" letter-spacing="6" fill="#1A1D1F" opacity=".5">APPLICATION SYSTEM</text>
  <g transform="translate(130 250) scale(1.45)"><g>
      <rect x="17" y="17" width="66" height="66" rx="21" fill="#F05A2A"/>
      <path d="M32 56 45 69 71 33" fill="none" stroke="#ffffff" stroke-width="8" stroke-linecap="round" stroke-linejoin="round"/>
      <path d="M31 36h18m15 0h7M49 36v25" stroke="#20B8AB" stroke-width="6" stroke-linecap="round"/>
      <path d="M28 78h45" stroke="#1A1D1F" stroke-width="4" stroke-linecap="round" opacity=".35"/></g></g>
  
  <text x="300" y="328" text-anchor="start" font-family="Inter, Arial, sans-serif" font-size="52" font-weight="950" letter-spacing="-.6" fill="#1A1D1F">HaruFit</text>
  <text x="300" y="355.04" text-anchor="start" font-family="Inter, Arial, sans-serif" font-size="12" font-weight="800" letter-spacing="5" fill="#1A1D1F" opacity=".52">DAILY ROUTINE IDENTITY</text>
  <text x="130" y="472" font-family="Inter, Arial, sans-serif" font-size="24" font-weight="700" fill="#1A1D1F" opacity=".58">Fitness Routine brand touchpoints</text>
  <rect x="130" y="548" width="390" height="170" rx="26" fill="#ffffff" filter="url(#tightShadow)"/>
  <g transform="translate(168 592) scale(.68)"><g>
      <rect x="17" y="17" width="66" height="66" rx="21" fill="#F05A2A"/>
      <path d="M32 56 45 69 71 33" fill="none" stroke="#ffffff" stroke-width="8" stroke-linecap="round" stroke-linejoin="round"/>
      <path d="M31 36h18m15 0h7M49 36v25" stroke="#20B8AB" stroke-width="6" stroke-linecap="round"/>
      <path d="M28 78h45" stroke="#1A1D1F" stroke-width="4" stroke-linecap="round" opacity=".35"/></g></g>
  <text x="270" y="638" font-family="Inter, Arial, sans-serif" font-size="24" font-weight="950" fill="#1A1D1F">HaruFit</text>
  <text x="270" y="672" font-family="Inter, Arial, sans-serif" font-size="13" font-weight="800" letter-spacing="3" fill="#1A1D1F" opacity=".45">BUSINESS CARD</text>
  
      <rect x="985" y="232" width="280" height="560" rx="46" fill="#263238" filter="url(#softShadow)"/>
      <rect x="1013" y="280" width="224" height="462" rx="32" fill="#ffffff"/>
      <g transform="translate(1075 345) scale(.95)"><g>
      <rect x="17" y="17" width="66" height="66" rx="21" fill="#F05A2A"/>
      <path d="M32 56 45 69 71 33" fill="none" stroke="#ffffff" stroke-width="8" stroke-linecap="round" stroke-linejoin="round"/>
      <path d="M31 36h18m15 0h7M49 36v25" stroke="#20B8AB" stroke-width="6" stroke-linecap="round"/>
      <path d="M28 78h45" stroke="#1A1D1F" stroke-width="4" stroke-linecap="round" opacity=".35"/></g></g>
      <path d="M1049 556h150M1049 600h118M1049 644h150" stroke="#1A1D1F" stroke-width="10" stroke-linecap="round" opacity=".16"/>
      <rect x="1049" y="670" width="150" height="42" rx="21" fill="#F05A2A"/>
</svg>
